<?xml version="1.0" encoding="utf-8"?>
<!-- Generator: Adobe Illustrator 25.2.0, SVG Export Plug-In . SVG Version: 6.00 Build 0)  -->
<svg version="1.1" id="Layer_1" xmlns="http://www.w3.org/2000/svg" xmlns:xlink="http://www.w3.org/1999/xlink" x="0px" y="0px"
	 width="100px" height="13.8px" viewBox="0 0 100 13.8" style="enable-background:new 0 0 100 13.8;" xml:space="preserve">
<style type="text/css">
	.st0{fill:#C1BDC9;}
</style>
<g>
	<polygon class="st0" points="0,0.4 0,10.4 6.9,10.4 6.6,8.6 2.3,8.6 2.3,0.4 	"/>
	<g>
		<path class="st0" d="M9.8,6.1h2.4c-0.1-0.4-0.2-0.7-0.4-0.9C11.7,5,11.4,4.9,11,4.9c-0.3,0-0.6,0.1-0.8,0.3
			C10,5.5,9.9,5.8,9.8,6.1 M14.5,7.5H9.9c0.2,0.8,0.8,1.3,1.9,1.3c0.7,0,1.4-0.2,2-0.6l0.6,1.6c-0.3,0.2-0.7,0.4-1.2,0.6
			c-0.5,0.1-1,0.2-1.6,0.2c-1.3,0-2.3-0.3-3.1-1C7.8,8.9,7.4,8,7.4,6.8c0-0.8,0.2-1.4,0.5-2c0.3-0.6,0.8-1,1.3-1.3
			C9.7,3.2,10.4,3,11.1,3c0.7,0,1.3,0.2,1.8,0.5c0.5,0.3,0.9,0.8,1.1,1.3c0.3,0.6,0.4,1.2,0.4,1.9V7.5z"/>
	</g>
	<polygon class="st0" points="17.6,10.4 15,3.6 17.2,3 18.7,7.4 20.2,3.3 22.5,3.3 19.7,10.4 	"/>
	<g>
		<path class="st0" d="M25.5,6.1h2.4c-0.1-0.4-0.2-0.7-0.4-0.9C27.3,5,27,4.9,26.7,4.9c-0.3,0-0.6,0.1-0.8,0.3
			C25.6,5.5,25.5,5.8,25.5,6.1 M30.1,7.5h-4.6c0.2,0.8,0.8,1.3,1.9,1.3c0.7,0,1.4-0.2,2-0.6L30,9.8c-0.3,0.2-0.7,0.4-1.2,0.6
			c-0.5,0.1-1,0.2-1.6,0.2c-1.3,0-2.3-0.3-3.1-1C23.4,8.9,23,8,23,6.8c0-0.8,0.2-1.4,0.5-2c0.3-0.6,0.8-1,1.3-1.3
			C25.4,3.2,26,3,26.7,3c0.7,0,1.3,0.2,1.8,0.5c0.5,0.3,0.9,0.8,1.1,1.3c0.3,0.6,0.4,1.2,0.4,1.9V7.5z"/>
		<path class="st0" d="M33.5,10.4h-2.3V3.3h1.2l0.6,1c0.3-0.3,0.7-0.5,1.2-0.7c0.5-0.2,0.9-0.3,1.2-0.3l0.5,1.8
			c-0.3,0-0.7,0.1-1.2,0.3c-0.4,0.2-0.8,0.4-1.2,0.7V10.4z"/>
		<path class="st0" d="M38.5,8.2c0,0.2,0.1,0.3,0.2,0.5c0.1,0.1,0.3,0.2,0.5,0.2c0.4,0,0.8-0.2,1.3-0.6V7.4h-1.1
			c-0.2,0-0.4,0.1-0.6,0.2C38.6,7.7,38.5,7.9,38.5,8.2 M37.5,5.5l-0.6-1.8c0.3-0.2,0.8-0.3,1.3-0.5C38.8,3.1,39.3,3,39.7,3
			c0.6,0,1.1,0.1,1.6,0.4c0.5,0.2,0.8,0.6,1.1,1c0.3,0.4,0.4,0.9,0.4,1.5v4.6h-1.3l-0.5-0.8c-0.5,0.6-1.1,0.9-1.8,0.9
			c-0.9,0-1.5-0.2-2-0.6c-0.4-0.4-0.7-1-0.7-1.7c0-0.7,0.2-1.3,0.7-1.6c0.5-0.4,1.2-0.5,2-0.5h1.1c0-0.3-0.1-0.6-0.3-0.7
			C39.9,5.1,39.7,5,39.4,5c-0.3,0-0.6,0-1,0.1C38.1,5.2,37.7,5.3,37.5,5.5"/>
		<path class="st0" d="M48.7,8.3v-3C48.4,5,48,4.9,47.6,4.9c-0.4,0-0.8,0.2-1,0.5c-0.3,0.4-0.4,0.8-0.4,1.4c0,0.6,0.1,1.1,0.4,1.4
			c0.3,0.3,0.6,0.5,1.1,0.5C48,8.7,48.4,8.6,48.7,8.3 M51,3.3v7.4c0,0.6-0.2,1.2-0.5,1.7c-0.3,0.5-0.8,0.8-1.4,1.1
			c-0.6,0.3-1.3,0.4-2,0.4c-0.4,0-0.9-0.1-1.6-0.2c-0.6-0.1-1.2-0.3-1.5-0.6l0.7-1.6c0.8,0.4,1.6,0.6,2.3,0.6c0.5,0,0.9-0.1,1.2-0.3
			c0.3-0.2,0.5-0.5,0.5-0.9v-0.4c-0.4,0.2-0.9,0.3-1.3,0.3c-1.1,0-2-0.3-2.7-1c-0.7-0.6-1-1.6-1-2.8s0.3-2.1,1-2.8
			c0.7-0.7,1.6-1,2.7-1c0.3,0,0.7,0.1,1,0.2c0.3,0.1,0.7,0.3,1,0.6l0.4-0.5H51z"/>
		<path class="st0" d="M54.7,6.1h2.4c-0.1-0.4-0.2-0.7-0.4-0.9c-0.2-0.2-0.5-0.3-0.8-0.3c-0.3,0-0.6,0.1-0.8,0.3
			C54.9,5.5,54.7,5.8,54.7,6.1 M59.3,7.5h-4.6c0.2,0.8,0.8,1.3,1.9,1.3c0.7,0,1.4-0.2,2-0.6l0.6,1.6c-0.3,0.2-0.7,0.4-1.2,0.6
			c-0.5,0.1-1,0.2-1.6,0.2c-1.3,0-2.3-0.3-3.1-1c-0.8-0.7-1.1-1.6-1.1-2.7c0-0.8,0.2-1.4,0.5-2c0.3-0.6,0.8-1,1.3-1.3
			C54.6,3.2,55.2,3,56,3c0.7,0,1.3,0.2,1.8,0.5c0.5,0.3,0.9,0.8,1.1,1.3c0.3,0.6,0.4,1.2,0.4,1.9V7.5z"/>
		<path class="st0" d="M62.7,8.2c0.3,0.3,0.6,0.5,1.1,0.5c0.3,0,0.7-0.1,1.1-0.4V5.3c-0.4-0.2-0.7-0.4-1.1-0.4c-0.4,0-0.8,0.2-1,0.5
			s-0.4,0.8-0.4,1.4C62.3,7.4,62.5,7.9,62.7,8.2 M67.2,0v10.4H66l-0.4-0.6c-0.3,0.2-0.6,0.4-1,0.5c-0.3,0.1-0.7,0.2-1.1,0.2
			c-1.1,0-2-0.3-2.7-1c-0.7-0.6-1-1.6-1-2.8c0-1.2,0.3-2.1,1-2.8c0.7-0.7,1.6-1,2.7-1c0.4,0,0.8,0.1,1.2,0.3V0.2L67.2,0z"/>
		<path class="st0" d="M76.3,2.2h-1.3v3.1h1.4c0.5,0,0.9-0.1,1.2-0.4C77.8,4.7,78,4.3,78,3.9c0-0.5-0.2-0.9-0.4-1.2
			C77.2,2.4,76.8,2.2,76.3,2.2 M74.9,10.4h-2.3v-10h3.7c0.8,0,1.4,0.1,2,0.4C79,1,79.5,1.4,79.8,1.9c0.4,0.5,0.5,1.1,0.5,1.9
			c0,0.7-0.2,1.4-0.6,1.9c-0.4,0.5-0.9,0.9-1.5,1.1c-0.6,0.3-1.3,0.4-2.1,0.4h-1.3V10.4z"/>
	</g>
	<polygon class="st0" points="83.9,0 81.6,0.2 81.6,10.4 83.9,10.4 	"/>
	<g>
		<path class="st0" d="M87.3,8.2c0,0.2,0.1,0.3,0.2,0.5s0.3,0.2,0.5,0.2c0.4,0,0.8-0.2,1.3-0.6V7.4h-1.1c-0.2,0-0.4,0.1-0.6,0.2
			C87.4,7.7,87.3,7.9,87.3,8.2 M86.3,5.5l-0.6-1.8C86,3.5,86.5,3.4,87,3.2C87.6,3.1,88.1,3,88.6,3c0.6,0,1.1,0.1,1.6,0.4
			c0.5,0.2,0.8,0.6,1.1,1c0.3,0.4,0.4,0.9,0.4,1.5v4.6h-1.3l-0.5-0.8c-0.5,0.6-1.1,0.9-1.8,0.9c-0.9,0-1.5-0.2-2-0.6
			c-0.4-0.4-0.7-1-0.7-1.7c0-0.7,0.2-1.3,0.7-1.6c0.5-0.4,1.2-0.5,2-0.5h1.1c0-0.3-0.1-0.6-0.3-0.7C88.8,5.1,88.5,5,88.2,5
			c-0.3,0-0.6,0-1,0.1C86.9,5.2,86.6,5.3,86.3,5.5"/>
		<path class="st0" d="M94.8,10.6l0.2-0.5l-2.5-6.5L94.6,3l1.6,4.4l1.5-4.2h2.4l-3.2,8c-0.2,0.6-0.6,1.1-1.2,1.5
			c-0.6,0.4-1.2,0.7-1.9,0.9l-0.8-1.8c0.5-0.2,0.9-0.4,1.2-0.6C94.5,11,94.7,10.8,94.8,10.6"/>
	</g>
</g>
</svg>
