<?xml version="1.0" encoding="utf-8"?>
<!-- Generator: Adobe Illustrator 25.2.0, SVG Export Plug-In . SVG Version: 6.00 Build 0)  -->
<svg version="1.1" id="Layer_1" xmlns="http://www.w3.org/2000/svg" xmlns:xlink="http://www.w3.org/1999/xlink" x="0px" y="0px"
	 width="100px" height="33.5px" viewBox="0 0 100 33.5" style="enable-background:new 0 0 100 33.5;" xml:space="preserve">
<style type="text/css">
	.st0{fill:#F1634E;}
	.st1{fill:#F79A5E;}
</style>
<g>
	<defs>
		<path id="SVGID_1_" d="M0,15.6c0,6.8,5.7,10.9,10.9,10.9c2.8,0,5.4-1,7.4-2.9l0.8-0.7l0.2-0.2c0.9-1.1,1.9-2.4,3.1-4l0,0
			c1.4-2,3-4.2,4.6-5.9c0.1-0.1,0.2-0.2,0.2-0.3c0.2-0.2,0.5-0.5,0.7-0.7l0.8-0.7c0.9-0.8,2.5-1.4,4-1.4h0.3c3.3,0,6,2.7,6,6
			c0,3.3-2.7,6-6,6c-3.2,0-5.8-2.5-6-5.7c-1,1.2-2,2.6-2.9,3.9l0,0c-0.2,0.3-0.5,0.7-0.7,1c1.9,3.4,5.5,5.7,9.6,5.7
			c6,0,10.9-4.9,10.9-10.9S39,4.7,32.9,4.7c-0.1,0-0.2,0-0.3,0v0c-2.7,0-5.5,1-7.3,2.7l-0.8,0.7c-2.2,2.1-4.3,5-6.2,7.6l0,0
			c-1.1,1.5-2,2.7-2.7,3.6l-0.7,0.7c-1.1,1.1-2.5,1.6-4,1.6c-2.9,0-6-2.3-6-6c0-3.3,2.7-6,6-6c1.4,0,2.8,0.6,3.9,1.6l3.3-3.6
			c-2-1.8-4.6-2.8-7.2-2.8C4.9,4.7,0,9.6,0,15.6"/>
	</defs>
	<linearGradient id="SVGID_2_" gradientUnits="userSpaceOnUse" x1="43.8514" y1="15.644" x2="0" y2="15.644">
		<stop  offset="0" style="stop-color:#F16C51"/>
		<stop  offset="4.223130e-02" style="stop-color:#F16C51"/>
		<stop  offset="1" style="stop-color:#F79A5E"/>
	</linearGradient>
	<use xlink:href="#SVGID_1_"  style="overflow:visible;fill:url(#SVGID_2_);"/>
	<clipPath id="SVGID_3_">
		<use xlink:href="#SVGID_1_"  style="overflow:visible;"/>
	</clipPath>
</g>
<path class="st0" d="M95.1,4.7v2c-1.8-1.3-3.9-2-6.3-2c-6,0-10.9,4.9-10.9,10.9c0,6,4.9,10.9,10.9,10.9c2.3,0,4.5-0.7,6.3-2v2h4.9
	V4.7H95.1z M88.8,21.6c-3.3,0-6-2.7-6-6c0-3.3,2.7-6,6-6c3.3,0,6,2.7,6,6C94.8,19,92.1,21.6,88.8,21.6"/>
<path class="st1" d="M72.8,0c-1.5,0-2.6,1.2-2.6,2.6c0,1.5,1.2,2.7,2.6,2.7c1.5,0,2.7-1.2,2.7-2.7C75.4,1.2,74.2,0,72.8,0"/>
<path class="st0" d="M70.3,6.6v19.9h4.9V6.6c-0.7,0.4-1.6,0.7-2.5,0.7C71.9,7.3,71,7.1,70.3,6.6"/>
<path class="st0" d="M56.8,4.7c-6,0-10.9,4.9-10.9,10.9v17.8h4.9v-0.3v-8.4v-9.1c0-3.3,2.7-6,6-6c3.3,0,6,2.7,6,6c0,3.3-2.7,6-6,6
	c-1.5,0-2.9-0.6-3.9-1.5v5.7c1.2,0.5,2.6,0.7,3.9,0.7c6,0,10.9-4.9,10.9-10.9C67.7,9.6,62.8,4.7,56.8,4.7"/>
</svg>
