<svg version="1.1" id="Layer_1" xmlns="http://www.w3.org/2000/svg" xmlns:xlink="http://www.w3.org/1999/xlink" viewBox="0 0 36 36" xml:space="preserve">
<g>
	<path fill="#99AAB5" d="M33,36H4c4,0,3-9,3-9c0-2.2,1.8-15,4-15h21c0,0,4,0,4,4v17C36,33,36,36,33,36z"/>
	<path fill="#CCD6DD" d="M30,33c0,3,3,3,3,3H3c0,0-3,0-3-4V4c0-2.2,1.8-4,4-4h22c2.2,0,4,1.8,4,4V33z"/>
	<path fill="#99AAB5" d="M27,20c0,0.6-0.4,1-1,1h-8c-0.6,0-1-0.4-1-1s0.4-1,1-1h8C26.6,19,27,19.4,27,20z M27,16c0,0.6-0.4,1-1,1h-8
		c-0.6,0-1-0.4-1-1s0.4-1,1-1h8C26.6,15,27,15.4,27,16z M27,12c0,0.6-0.4,1-1,1h-8c-0.6,0-1-0.4-1-1c0-0.6,0.4-1,1-1h8
		C26.6,11,27,11.4,27,12z M27,24c0,0.6-0.4,1-1,1H4c-0.6,0-1-0.4-1-1s0.4-1,1-1h22C26.6,23,27,23.4,27,24z M27,28c0,0.6-0.4,1-1,1H4
		c-0.6,0-1-0.4-1-1s0.4-1,1-1h22C26.6,27,27,27.4,27,28z M27,32c0,0.6-0.4,1-1,1H4c-0.6,0-1-0.4-1-1c0-0.6,0.4-1,1-1h22
		C26.6,31,27,31.4,27,32z M25,9c0,0,2,0,2-2V5c0,0,0-2-2-2H5c0,0-2,0-2,2v2c0,0,0,2,2,2H25z"/>
	<path fill="#55ACEE" d="M13,21c0,0,2,0,2-2v-6c0,0,0-2-2-2H5c0,0-2,0-2,2v6c0,0,0,2,2,2H13z"/>
</g>
</svg>
