<svg version="1.1" id="Layer_1" xmlns="http://www.w3.org/2000/svg" xmlns:xlink="http://www.w3.org/1999/xlink" viewBox="0 0 36 36" xml:space="preserve">
<g>
	<ellipse fill="#F4900C" cx="33.5" cy="15" rx="2.5" ry="3.5"/>
	<ellipse fill="#F4900C" cx="2.5" cy="15" rx="2.5" ry="3.5"/>
	<path fill="#FFAC33" d="M34,19.5c0,0.6-0.4,1-1,1h-3c-0.6,0-1-0.4-1-1v-9c0-0.6,0.4-1,1-1h3c0.6,0,1,0.4,1,1V19.5z M7,19.5
		c0,0.6-0.4,1-1,1H3c-0.6,0-1-0.4-1-1v-9c0-0.6,0.4-1,1-1h3c0.6,0,1,0.4,1,1V19.5z"/>
	<path fill="#FFCC4D" d="M28,5.5c0,2.8-4.5,4-10,4c-5.5,0-10-1.2-10-4s4.5-5,10-5C23.5,0.5,28,2.7,28,5.5z"/>
	<path fill="#F4900C" d="M25,4.6c0,1.6-3.1,2.9-7,2.9c-3.9,0-7-1.3-7-2.9s3.1-2.9,7-2.9C21.9,1.7,25,3,25,4.6z"/>
	<path fill="#226699" d="M30,6c0,1.4-1.1,1.5-2.5,1.5h-19C7.1,7.5,6,7.4,6,6s1.1-2.5,2.5-2.5h19C28.9,3.5,30,4.6,30,6z"/>
	<path fill="#55ACEE" d="M30,6.5H6c-1.1,0-2,0.9-2,2v26h28v-26C32,7.4,31.1,6.5,30,6.5z"/>
	<path fill="#3B88C3" d="M35,33.5v-1c0-1.1-0.9-2-2-2H22.1l-3.4,3.4c-0.4,0.4-1,0.4-1.4,0l-3.4-3.4H3c-1.1,0-2,0.9-2,2v1
		c0,1.1-0.1,2,1,2h32C35.1,35.5,35,34.6,35,33.5z"/>
	<circle fill="#FFFFFF" cx="24.5" cy="15" r="4.5"/>
	<circle fill="#DD2E44" cx="24.5" cy="15" r="2.7"/>
	<circle fill="#FFFFFF" cx="11.5" cy="15" r="4.5"/>
	<path fill="#F5F8FA" d="M29,26c0,1.4-1.1,2.5-2.5,2.5h-17C8.1,28.5,7,27.4,7,26s1.1-2.5,2.5-2.5h17C27.9,23.5,29,24.6,29,26z"/>
	<path fill="#CCD6DD" d="M17,23.5h2v5h-2V23.5z M12,23.5h2v5h-2V23.5z M22,23.5h2v5h-2V23.5z M7,26c0,1.2,0.9,2.2,2,2.5v-4.9
		C7.9,23.8,7,24.8,7,26z M27,23.5v4.9c1.1-0.2,2-1.2,2-2.5S28.1,23.8,27,23.5z"/>
	<circle fill="#DD2E44" cx="11.5" cy="15" r="2.7"/>
</g>
</svg>
