<svg version="1.1" id="Layer_1" xmlns="http://www.w3.org/2000/svg" xmlns:xlink="http://www.w3.org/1999/xlink" viewBox="0 0 36 36" xml:space="preserve">
<g>
	<path fill="#3B88C3" d="M36,32c0,2.2-1.8,4-4,4H4c-2.2,0-4-1.8-4-4V4c0-2.2,1.8-4,4-4h28c2.2,0,4,1.8,4,4V32z"/>
	<path fill="#FFFFFF" d="M24.1,12.2c0,2-0.8,3.7-2.5,4.7c2.2,1,3.8,3.1,3.8,5.6c0,3.7-3.4,6.9-7.8,6.9c-4.6,0-7.4-3.4-7.4-5.8
		c0-1.2,1.3-2.1,2.4-2.1c2.1,0,1.6,3.6,5.1,3.6c1.6,0,2.9-1.2,2.9-2.9c0-4.3-5.3-1.1-5.3-4.8c0-3.3,4.4-1.1,4.4-4.5
		c0-1.2-0.8-2.1-2.2-2.1c-2.9,0-2.5,3-4.7,3c-1.3,0-2-1.1-2-2.3c0-2.4,3.3-5,6.8-5C22,6.6,24.1,9.8,24.1,12.2z"/>
</g>
</svg>
