<svg version="1.1" id="Layer_1" xmlns="http://www.w3.org/2000/svg" xmlns:xlink="http://www.w3.org/1999/xlink" viewBox="0 0 36 36" xml:space="preserve">
<circle fill="#FFFFFF" cx="18" cy="18" r="16.5"/>
<g>
	<path fill="#59B2EF" d="M18,0C8.1,0,0,8.1,0,18c0,9.9,8.1,18,18,18s18-8.1,18-18C36,8.1,27.9,0,18,0z M18,34C9.2,34,2,26.8,2,18
		C2,9.2,9.2,2,18,2c8.8,0,16,7.2,16,16C34,26.8,26.8,34,18,34z"/>
	<path fill="#59B2EF" d="M18.7,6.6c2.3,0,6.7,0.7,6.7,3.5c0,1.1-0.8,2.1-1.9,2.1c-1.3,0-2.1-1.1-4.7-1.1c-3.8,0-5.8,3.3-5.8,7
		c0,3.7,2,6.9,5.8,6.9c2.6,0,3.7-1.3,4.9-1.3c1.4,0,2,1.4,2,2.1c0,3-4.7,3.7-7,3.7c-6.3,0-10.7-5-10.7-11.4
		C8.1,11.5,12.4,6.6,18.7,6.6z"/>
</g>
</svg>
