<svg version="1.1" id="Layer_1" xmlns="http://www.w3.org/2000/svg" xmlns:xlink="http://www.w3.org/1999/xlink" viewBox="0 0 36 36" xml:space="preserve">
<g>
	<circle fill="#F5F8FA" cx="18" cy="18" r="18"/>
	<path fill="#CCD6DD" d="M18,11c-0.6,0-1-0.4-1-1V3c0-0.6,0.4-1,1-1s1,0.4,1,1v7C19,10.6,18.6,11,18,11z M11.4,15.5
		c-0.1,0-0.2,0-0.3,0l-8-2.5c-0.5-0.2-0.8-0.7-0.7-1.3c0.2-0.5,0.7-0.8,1.3-0.7l8,2.5c0.5,0.2,0.8,0.7,0.7,1.3
		C12.2,15.2,11.8,15.5,11.4,15.5z M25,15.2c-0.4,0-0.8-0.3-1-0.7c-0.2-0.5,0.2-1.1,0.7-1.2l6.8-2c0.5-0.2,1.1,0.2,1.2,0.7
		c0.2,0.5-0.2,1.1-0.7,1.2l-6.8,2C25.2,15.2,25.1,15.2,25,15.2z M27,30.2c-0.3,0-0.6-0.1-0.8-0.4l-5.5-7.3C20.5,22,20.5,21.4,21,21
		c0.4-0.3,1.1-0.2,1.4,0.2l5.5,7.3c0.3,0.4,0.2,1.1-0.2,1.4C27.5,30.1,27.2,30.2,27,30.2z M8.7,30.1c-0.2,0-0.4-0.1-0.6-0.2
		c-0.5-0.3-0.6-0.9-0.2-1.4l5.1-7.4c0.3-0.5,0.9-0.6,1.4-0.3s0.6,0.9,0.2,1.4l-5.1,7.4C9.4,29.9,9.1,30.1,8.7,30.1z M3.5,27.1
		c-0.4,0-0.8-0.3-1-0.7l-2.2-8.1c-0.1-0.5,0.2-1.1,0.7-1.2c0.5-0.1,1.1,0.2,1.2,0.7l2.2,8.1c0.1,0.5-0.2,1.1-0.7,1.2
		C3.7,27.1,3.6,27.1,3.5,27.1z M22,34h-9c-0.6,0-1-0.4-1-1s0.4-1,1-1h9c0.6,0,1,0.4,1,1S22.6,34,22,34z M32.1,27.1
		c-0.1,0-0.2,0-0.2,0c-0.5-0.1-0.9-0.7-0.7-1.2l2.1-8.6c0.1-0.5,0.7-0.9,1.2-0.7c0.5,0.1,0.9,0.7,0.7,1.2l-2.1,8.6
		C33,26.8,32.6,27.1,32.1,27.1z M30.3,7.7c-0.2,0-0.3,0-0.5-0.1l-7.6-4.4c-0.5-0.3-0.6-0.9-0.4-1.4c0.3-0.5,0.9-0.6,1.4-0.4l7.6,4.4
		c0.5,0.3,0.6,0.9,0.4,1.4C31,7.5,30.7,7.7,30.3,7.7z M5.5,7.7c-0.3,0-0.6-0.1-0.8-0.4C4.4,6.8,4.5,6.2,4.9,5.9l6.2-4.4
		c0.4-0.3,1.1-0.2,1.4,0.2c0.3,0.4,0.2,1.1-0.2,1.4L6.1,7.5C5.9,7.6,5.7,7.7,5.5,7.7z"/>
	<path fill="#31373D" d="M25.5,13.5l-7.2-5.1c-0.3-0.2-0.8-0.2-1.2,0L10,13.6c-0.3,0.2-0.5,0.7-0.4,1.1l2.5,8.6
		c0.1,0.4,0.5,0.7,1,0.7h9c0.4,0,0.8-0.3,0.9-0.7l2.9-8.7C26,14.2,25.9,13.8,25.5,13.5z M1.3,19.5c0.1,0,0.1,0,0.2,0
		C1.8,19.5,2,19.3,2.2,19l3.4-6c0.1-0.1,0.1-0.2,0.1-0.3L7,6.2C7,5.9,7,5.6,6.8,5.4C6.6,5.1,6.3,5,6,5H5.6C2.1,8.3,0,12.9,0,18
		c0,0.3,0,0.5,0,0.8l0.6,0.5C0.8,19.5,1.1,19.5,1.3,19.5z M10.6,3c0.1,0.2,0.3,0.4,0.6,0.4l6.4,1c0,0,0.1,0,0.1,0s0.1,0,0.1,0l6.1-1
		c0.2,0,0.4-0.1,0.5-0.3c0.1-0.2,0.2-0.4,0.1-0.6l-0.3-1.4C22.3,0.4,20.2,0,18,0c-2.4,0-4.7,0.5-6.8,1.4l-0.5,1
		C10.5,2.5,10.5,2.8,10.6,3z M31.1,5.7l-1.5-0.1c-0.2,0-0.5,0.1-0.6,0.2c-0.2,0.2-0.2,0.4-0.2,0.6l1.2,6.2c0,0.1,0,0.1,0.1,0.2
		c1.5,2.5,3.2,5.3,3.4,5.8c0,0.1,0.1,0.1,0.1,0.2c0.1,0.2,0.4,0.1,0.6,0.1h0c0.2,0,0.3,0.1,1.8-0.8c0-0.1,0-0.2,0-0.2
		C36,13.2,34.1,8.9,31.1,5.7z M14.5,33.4c0-0.2-0.1-0.4-0.2-0.5l-4.5-5c-0.1-0.1-0.1-0.1-0.2-0.2c-5.9-3.1-6-3.1-6.1-3.1
		c-0.1,0-0.2,0-0.2,0c-0.5,0-0.7,0.1-1.2,2c2.2,4.1,6.1,7.3,10.6,8.7l1.5-1.3C14.4,33.8,14.5,33.6,14.5,33.4z M32.4,24.8
		c-0.2-0.1-0.4-0.1-0.6,0l-6.1,2.7c-0.1,0-0.2,0.1-0.3,0.2l-4.2,5.1C21,32.9,21,33.1,21,33.3c0,0.2,0.1,0.4,0.3,0.5
		c0.7,0.6,1.3,1,1.8,1.4c4.4-1.3,8.2-4.2,10.5-8.1l-0.7-1.9C32.7,25,32.6,24.9,32.4,24.8z"/>
</g>
</svg>
