<svg version="1.1" id="Layer_1" xmlns="http://www.w3.org/2000/svg" xmlns:xlink="http://www.w3.org/1999/xlink" viewBox="0 0 36 36" xml:space="preserve">
<g>
	<path d="M35,18c0,9.4-7.6,17-17,17S1,27.4,1,18S8.6,1,18,1S35,8.6,35,18"/>
	<path fill="#F5F8FA" d="M9.5,12.2H7.8c-1.4,0-1.9-1-1.9-2c0-1,0.7-2,1.9-2h4c1.2,0,1.9,0.9,1.9,2v16.1c0,1.4-0.9,2.2-2.1,2.2
		s-2.1-0.8-2.1-2.2V12.2z M16.8,22.4c0-2.3,1.2-3.9,3-4.9c-1.3-1-2.1-2.3-2.1-4c0-3.3,2.7-5.4,6.1-5.4c3.3,0,6.1,2.1,6.1,5.4
		c0,1.6-0.8,3.2-2.2,4c1.9,1,3,2.7,3,4.9c0,3.9-3.2,6.5-7,6.5C19.9,28.8,16.8,26.2,16.8,22.4z M21.2,22.1c0,1.4,0.8,2.8,2.6,2.8
		c1.6,0,2.6-1.4,2.6-2.8c0-1.8-1-2.8-2.6-2.8C22.2,19.3,21.2,20.5,21.2,22.1z M21.8,13.9c0,1.3,0.7,2.2,2,2.2c1.3,0,2.1-0.9,2.1-2.2
		c0-1.2-0.7-2.2-2.1-2.2S21.8,12.7,21.8,13.9z"/>
	<path fill="#DD2E44" d="M18,0C8.1,0,0,8.1,0,18c0,9.9,8.1,18,18,18s18-8.1,18-18C36,8.1,27.9,0,18,0z M34,18c0,4-1.5,7.6-3.8,10.4
		L7.6,5.8C10.4,3.5,14,2,18,2C26.8,2,34,9.2,34,18z M2,18c0-4,1.5-7.6,3.8-10.4l22.5,22.5C25.6,32.5,22,34,18,34C9.2,34,2,26.8,2,18
		z"/>
</g>
</svg>
