<svg version="1.1" id="Layer_1" xmlns="http://www.w3.org/2000/svg" xmlns:xlink="http://www.w3.org/1999/xlink" viewBox="0 0 36 36" xml:space="preserve">
<g>
	<path fill="#D79E84" d="M36,30.7c0,1.2-0.9,2.1-2.1,2.1H2.1c-1.2,0-2.1-0.9-2.1-2.1V5.3c0-1.2,0.9-2.1,2.1-2.1h31.8
		c1.2,0,2.1,0.9,2.1,2.1V30.7z"/>
	<path fill="#BF6952" d="M33.9,3.2H2.1C0.9,3.2,0,4.1,0,5.3v25.4c0,0.4,0.1,0.8,0.3,1.1L35.6,4.1C35.2,3.5,34.6,3.2,33.9,3.2z"/>
	<path fill="#8CCAF7" d="M31.8,22.2V8.5c0-0.6-0.5-1.1-1.1-1.1H5.3c-0.6,0-1.1,0.5-1.1,1.1v13.8H31.8z"/>
	<path fill="#5DADEC" d="M5.3,28.6h13.8v-7.4H4.2v6.4C4.2,28.1,4.7,28.6,5.3,28.6z"/>
	<path fill="#292F33" d="M19.1,21.2v7.4h11.6c0.6,0,1.1-0.5,1.1-1.1v-6.4H19.1z"/>
	<path fill="#67757F" d="M20.1,19.1c-0.6,0-0.9,1.2-1.5,2.1c-0.4,0.6-0.9,1.1-1.7,1.1c-2.1,0-2.1,3.2-3.2,3.2
		c-1.3,0-2.7,1.7-3.5,3.2h8.8c0.9-1.9,1.9-3.7,4.2-4.1c0.3-0.1,0.7-0.1,1.1-0.1c3.2,0,3.3-1.6,4.2-2.1c1.4-0.7,2.4-0.5,3.2-0.2v-3
		H20.1z"/>
	<path fill="#E75A70" d="M25.4,10.6l-4.2,4.2v4.2h8.5v-4.2L25.4,10.6z"/>
	<path fill="#292F33" d="M29.6,15.9c-0.3,0-0.5-0.1-0.7-0.3l-3.5-3.5l-3.5,3.5c-0.4,0.4-1.1,0.4-1.5,0c-0.4-0.4-0.4-1.1,0-1.5
		l4.2-4.2c0.4-0.4,1.1-0.4,1.5,0l4.2,4.2c0.4,0.4,0.4,1.1,0,1.5C30.2,15.8,29.9,15.9,29.6,15.9z"/>
	<path fill="#BB1A34" d="M23.3,15.9h2.1v3.2h-2.1V15.9z"/>
	<path fill="#FFFFFF" d="M17.2,13.9c0-1.1-0.9-2-2-2c-0.1,0-0.2,0-0.2,0c0-0.1,0-0.3,0-0.4c0-1.1-0.9-2-2-2c-0.7,0-1.3,0.4-1.7,0.9
		c-0.2-0.1-0.5-0.1-0.7-0.1c-1,0-1.8,0.8-2,1.7c-0.2-0.1-0.5-0.1-0.7-0.1c-1.1,0-2,0.9-2,2s0.9,2,2,2c0,0,0.1,0,0.1,0l0,0h7.1v0
		C16.3,15.9,17.2,15,17.2,13.9z"/>
</g>
</svg>
