<svg version="1.1" id="Layer_1" xmlns="http://www.w3.org/2000/svg" xmlns:xlink="http://www.w3.org/1999/xlink" viewBox="0 0 36 36" xml:space="preserve">
<g>
	<path fill="#3B88C3" d="M36,32c0,2.2-1.8,4-4,4H4c-2.2,0-4-1.8-4-4V4c0-2.2,1.8-4,4-4h28c2.2,0,4,1.8,4,4V32z"/>
	<path fill="#FFFFFF" d="M22.2,22.2l2.8,2.8c-3.9,3.9-10.2,3.9-14.1,0c-2.2-2.2-3.2-5.3-2.9-8.2l-4,0.4C3.8,21.1,5.2,25,8.1,27.9
		c5.5,5.5,14.3,5.5,19.8,0l2.8,2.8l0.8-9.3L22.2,22.2z M27.9,8.1c-5.5-5.5-14.3-5.5-19.8,0L5.3,5.3l-0.8,9.3l9.3-0.8l-2.8-2.8
		c3.9-3.9,10.2-3.9,14.1,0c2.2,2.2,3.2,5.3,2.9,8.2l4-0.4C32.2,14.9,30.8,11,27.9,8.1z"/>
</g>
</svg>
