<svg version="1.1" id="Layer_1" xmlns="http://www.w3.org/2000/svg" xmlns:xlink="http://www.w3.org/1999/xlink" viewBox="0 0 36 36" xml:space="preserve">
<g>
	<circle fill="#FFCB4C" cx="18" cy="17" r="17"/>
	<path fill="#65471B" d="M14.5,21c-0.1-0.1-0.3-0.3-0.3-0.5c-0.1-0.5,0.1-0.9,0.6-1c4.5-1,7.6,1.4,7.7,1.5c0.4,0.3,0.5,0.8,0.2,1.2
		c-0.3,0.4-0.8,0.4-1.2,0.1c-0.1-0.1-2.5-1.9-6.2-1.1C15,21.3,14.7,21.2,14.5,21z"/>
	<ellipse fill="#65471B" cx="13.1" cy="11.2" rx="2.1" ry="2.7"/>
	<ellipse fill="#65471B" cx="24.4" cy="12.2" rx="2.1" ry="2.7"/>
	<path fill="#F19020" d="M17.3,35.1c0,0,1.3-0.4,1.4-1.4c0.2-1-0.6-1.2-0.6-1.2s1-0.2,1.2-1.4c0.1-1.1-0.9-1.4-0.9-1.4s1-0.4,1-1.5
		c0-1-1-1.4-1-1.4s5-1.2,5.6-1.3c0.5-0.1,1.3-0.6,1.1-1.7c-0.2-1.1-1.2-1.1-1.7-1c-0.5,0.1-6.7,1.6-8.9,2.1L13,25.3
		c-0.5,0.1-0.8-0.1-0.4-0.5c0.5-0.5,0.8-1.1,0.9-2.1c0.1-1-0.2-2.3-0.4-2.8c-0.4-0.9-1-1.6-1.7-1.9c-1.1-0.4-1.9,0.3-1.5,1.6
		c0.6,1.9,0.2,3.4-0.8,4.3c-2.5,2.2-3.6,3.7-2.8,7c0.8,3.6,4.4,5.9,8,5.1C14.1,35.8,17.3,35.1,17.3,35.1z"/>
	<path fill="#65471B" d="M9.3,6.3C9.1,6.2,9,6.1,8.9,5.9C8.7,5.5,8.9,5,9.3,4.8c4.3-1.8,7.7,0,7.8,0c0.4,0.2,0.6,0.7,0.4,1.2
		c-0.2,0.4-0.7,0.5-1.2,0.3c-0.1-0.1-2.8-1.4-6.3,0C9.8,6.5,9.5,6.5,9.3,6.3z M21.4,10.1c-0.2-0.1-0.3-0.2-0.4-0.4
		c-0.2-0.4,0-0.9,0.5-1.1c4.4-1.5,7.7,0.5,7.8,0.6c0.4,0.3,0.6,0.8,0.3,1.2c-0.2,0.4-0.8,0.5-1.2,0.2c-0.1-0.1-2.7-1.6-6.3-0.4
		C22,10.3,21.7,10.2,21.4,10.1z"/>
</g>
</svg>
