<svg version="1.1" id="Layer_1" xmlns="http://www.w3.org/2000/svg" xmlns:xlink="http://www.w3.org/1999/xlink" viewBox="0 0 36 36" xml:space="preserve">
<g>
	<path fill="#66757F" d="M28.9,3.8h2v1h-2V3.8z"/>
	<path fill="#CCD6DD" d="M1.9,11.9V32c0,2.2,1.8,4,4,4h24.1c2.2,0,4-1.8,4-4V11.9H1.9z"/>
	<path fill="#DD2E44" d="M30.1,3.8H5.9c-2.2,0-4,1.8-4,4v5h32.2v-5C34.1,5.6,32.3,3.8,30.1,3.8z"/>
	<path fill="#292F33" d="M8.8,8.6c-0.7,0-1.3-0.7-1.3-1.5c0-0.8,0.6-1.5,1.3-1.5c0.7,0,1.3,0.7,1.3,1.5S9.5,8.6,8.8,8.6z M14.8,8.6
		c-0.7,0-1.3-0.7-1.3-1.5c0-0.8,0.6-1.5,1.3-1.5c0.7,0,1.3,0.7,1.3,1.5S15.5,8.6,14.8,8.6z M20.9,8.6c-0.7,0-1.3-0.7-1.3-1.5
		c0-0.8,0.6-1.5,1.3-1.5c0.7,0,1.3,0.7,1.3,1.5C22.1,7.9,21.6,8.6,20.9,8.6z M26.9,8.6c-0.7,0-1.3-0.7-1.3-1.5
		c0-0.8,0.6-1.5,1.3-1.5c0.7,0,1.3,0.7,1.3,1.5C28.2,7.9,27.6,8.6,26.9,8.6z"/>
	<path fill="#66757F" d="M27.4,0c-1.3,0-2.4,0.8-3,2c-0.6-1.1-1.7-2-3-2c-1.3,0-2.4,0.8-3,2c-0.6-1.1-1.7-2-3-2c-1.3,0-2.4,0.8-3,2
		c-0.6-1.1-1.7-2-3-2C7.3,0,5.8,1.8,5.8,4c0,1.9,1.1,3.4,2.6,3.9c0.8,0.3,1.2-0.4,1.2-1c-0.1-0.5-0.4-0.8-0.7-1c-0.5-0.3-1-1-1-1.9
		c0-1.1,0.7-2.1,1.5-2.1s1.5,0.9,1.5,1.9h1c0,0.1,0,0.1,0,0.2c0,1.9,1.1,3.4,2.6,3.9c0.8,0.3,1.2-0.4,1.2-1c-0.1-0.5-0.4-0.8-0.7-1
		c-0.5-0.3-1-1-1-1.9c0-1.1,0.7-2.1,1.5-2.1c0.8,0,1.5,0.9,1.5,1.9h1c0,0.1,0,0.1,0,0.2c0,1.9,1.1,3.4,2.6,3.9
		c0.8,0.3,1.2-0.4,1.2-1c-0.1-0.5-0.4-0.8-0.7-1c-0.5-0.3-1-1-1-1.9c0-1.1,0.7-2.1,1.5-2.1s1.5,0.9,1.5,1.9h1c0,0.1,0,0.1,0,0.2
		c0,1.9,1.1,3.4,2.6,3.9c0.8,0.3,1.2-0.4,1.2-1c-0.1-0.5-0.4-0.8-0.7-1c-0.5-0.3-1-1-1-1.9c0-1.1,0.7-2.1,1.5-2.1s1.5,0.9,1.5,1.9h2
		C30.9,1.8,29.3,0,27.4,0z"/>
	<path fill="#FFFFFF" d="M11,14.9h4v4h-4V14.9z M16,14.9h4v4h-4V14.9z M21,14.9h4v4h-4V14.9z M26,14.9h4v4h-4V14.9z M5.9,19.9h4v4
		h-4V19.9z M11,19.9h4v4h-4V19.9z M16,19.9h4v4h-4V19.9z M21,19.9h4v4h-4V19.9z M26,19.9h4v4h-4V19.9z M5.9,24.9h4v4h-4V24.9z
		 M11,24.9h4v4h-4V24.9z M16,24.9h4v4h-4V24.9z M21,24.9h4v4h-4V24.9z M26,24.9h4v4h-4V24.9z M5.9,30h4v4h-4V30z M11,30h4v4h-4V30z
		 M16,30h4v4h-4V30z"/>
</g>
</svg>
