<svg version="1.1" id="Layer_1" xmlns="http://www.w3.org/2000/svg" xmlns:xlink="http://www.w3.org/1999/xlink" viewBox="0 0 36 36" xml:space="preserve">
<path fill="#6D6D6D" d="M28.3,13.7V8.8C28.3,4,24.5,0,19.8,0h-3.7c-4.7,0-8.5,4-8.5,8.8v4.9C6,13.9,4.7,15.4,4.7,17v15.6
	c0,1.9,1.6,3.4,3.5,3.4h19.7c1.9,0,3.5-1.6,3.5-3.4V17C31.3,15.4,30,13.9,28.3,13.7z M19.7,25.3v3.8c0,0.6-0.5,1.2-1.2,1.2h-0.4
	c-0.6,0-1.2-0.5-1.2-1.2v-3.8c-1.3-0.5-2.3-1.8-2.3-3.2c0-1.9,1.6-3.5,3.5-3.5s3.5,1.6,3.5,3.5C21.7,23.5,20.9,24.7,19.7,25.3z
	 M25.4,13.7h-15V8.8c0-3.2,2.5-5.9,5.6-5.9h3.7c3.1,0,5.6,2.6,5.6,5.9V13.7z"/>
</svg>
