<svg version="1.1" id="Layer_1" xmlns="http://www.w3.org/2000/svg" xmlns:xlink="http://www.w3.org/1999/xlink" viewBox="0 0 36 36" xml:space="preserve">
<g>
	<path fill="#BF6952" d="M19,35h-2c-6.5,0-12.8-5-12.8-12c0-4,1.5-6,1.5-6s-0.5-2-0.5-4c0-6,6.3-11,12.8-11s12.8,6,12.8,11
		c0,2-0.5,4-0.5,4s1.5,2,1.5,6C31.8,30,25.5,35,19,35z"/>
	<path fill="#D79E84" d="M29.7,15.4c0-3.8-3.1-6.9-6.9-6.9c-1.9,0-3.5,0.7-4.8,1.9c-1.2-1.2-2.9-1.9-4.8-1.9c-3.8,0-6.9,3.1-6.9,6.9
		c0,2.3,1.1,4.3,2.9,5.6c-0.5,1.2-0.8,2.5-0.8,3.9c0,5.6,4.3,9,9.5,9s9.5-3.5,9.5-9c0-1.4-0.3-2.7-0.8-3.9
		C28.5,19.7,29.7,17.7,29.7,15.4z"/>
	<ellipse fill="#292F33" cx="13" cy="17" rx="2" ry="3"/>
	<ellipse fill="#292F33" cx="23" cy="17" rx="2" ry="3"/>
	<path fill="#642116" d="M18,31.5c2.7,0,5-1.4,5.9-3.3c0.4-0.8-0.3-1.7-1.2-1.7h-9.5c-0.9,0-1.5,0.9-1.2,1.7
		C13,30.1,15.3,31.5,18,31.5z"/>
	<ellipse fill="#642116" cx="16.5" cy="22" rx="1" ry="1.1"/>
	<circle fill="#642116" cx="19.5" cy="22" r="1"/>
	<path fill="#BF6952" d="M22.2,0.2c0,0-5.3-1.1-7.4,2.1s4.2,1.1,4.2,1.1S20.1,0.2,22.2,0.2z"/>
	<path fill="#9B3C07" d="M9,32c0.1,0.7,1.8,1.4,1.8,1.4L10,19l-2,5C8,24,8.9,31.3,9,32z M27,32c-0.2,0.7-1.8,1.4-1.8,1.4L26,19l2,5
		C28,24,27.2,31.3,27,32z"/>
	<path fill="#BF6952" d="M2,36h8L9,20.2L5,16L2,36z M34,36h-8l1-15.8l4-4.2L34,36z"/>
	<path fill="#D79E84" d="M30.6,15.1c0,0,0.2-2.5,1.2-3.5c1.3-1.4,2.9-0.3,2.7,1.6c-0.4,7.1-2,9-4,10.2c-2,1.2-4.8,0.9-7.7-1.9
		s-4.2-4.6-4.5-5.8c-0.4-1.2,1-2.3,2.1-1.6c1,0.6,2.5,2.3,2.5,2.3s-1.9-2.7-2.2-3.7c-0.4-1.4,1.3-2.3,2.2-1.5
		c0.9,0.8,2.8,3.2,2.8,3.2s-1.6-2.5-1.8-3.7c-0.1-1.2,1.2-2.2,2.5-1.2C27.6,10.5,29.6,13.4,30.6,15.1z M5.4,15.1
		c0,0-0.2-2.5-1.2-3.5c-1.3-1.4-2.9-0.3-2.7,1.6c0.4,7.1,2,9,4,10.2c2,1.2,4.8,0.9,7.7-1.9s4.2-4.6,4.5-5.8c0.4-1.2-1-2.3-2.1-1.6
		c-1,0.6-2.5,2.3-2.5,2.3s1.9-2.7,2.2-3.7c0.4-1.4-1.3-2.3-2.2-1.5c-0.9,0.8-2.8,3.2-2.8,3.2s1.6-2.5,1.8-3.7
		c0.1-1.2-1.2-2.2-2.5-1.2S6.4,13.4,5.4,15.1z"/>
	<path fill="#BF6952" d="M28.1,24.5c-1.8,0-3.8-0.9-5.6-2.7c-2.8-2.7-4.2-4.5-4.6-6c-0.2-0.8,0-1.6,0.7-2c0.6-0.5,1.4-0.5,2-0.2
		c-0.2-0.3-0.3-0.6-0.3-0.8c-0.2-0.9,0.1-1.7,0.8-2.1c0.7-0.5,1.6-0.4,2.2,0.1c0.1,0.1,0.2,0.2,0.3,0.3c0-0.1,0-0.2-0.1-0.3
		c-0.1-0.8,0.3-1.6,1-1.9c0.7-0.4,1.6-0.3,2.3,0.3c1.1,0.9,2.7,3.2,3.6,4.6c0.2-0.8,0.5-1.9,1.1-2.5c0.7-0.7,1.5-1,2.3-0.6
		c0.9,0.4,1.4,1.4,1.3,2.7c-0.4,7-2,9.3-4.3,10.6C29.9,24.3,29,24.5,28.1,24.5z M19.7,14.4c-0.2,0-0.4,0.1-0.6,0.2
		c-0.3,0.2-0.4,0.6-0.3,1c0.4,1.3,1.8,3.1,4.4,5.6c2.5,2.4,5,3,7.1,1.8c1.7-1,3.3-2.5,3.8-9.8c0.1-0.9-0.3-1.5-0.7-1.7
		c-0.4-0.2-0.8,0-1.2,0.4c-0.7,0.8-1,2.6-1.1,3.2c0,0.2-0.2,0.4-0.4,0.4c-0.2,0.1-0.4,0-0.5-0.2c-1-1.6-2.9-4.5-4.1-5.5
		c-0.5-0.4-0.9-0.3-1.2-0.2c-0.3,0.2-0.5,0.6-0.5,0.9c0.1,0.9,1.2,2.8,1.7,3.4c0.1,0.2,0.1,0.5-0.1,0.7c-0.2,0.2-0.5,0.1-0.7-0.1
		c0,0-1.9-2.3-2.7-3.1c-0.3-0.3-0.8-0.2-1.1,0c-0.2,0.1-0.5,0.4-0.4,1c0.2,0.8,1.6,2.8,2.1,3.6c0.2,0.2,0.1,0.5-0.1,0.7
		c-0.2,0.2-0.5,0.1-0.7-0.1c-0.4-0.5-1.6-1.8-2.4-2.2C20,14.4,19.8,14.4,19.7,14.4z"/>
	<path fill="#BF6952" d="M7.9,24.5c-0.9,0-1.9-0.2-2.7-0.7c-2.3-1.3-3.8-3.6-4.3-10.6c-0.1-1.2,0.4-2.3,1.3-2.7
		c0.8-0.3,1.6-0.1,2.3,0.6c0.6,0.6,0.9,1.7,1.1,2.5c0.9-1.4,2.5-3.7,3.6-4.6c0.7-0.6,1.5-0.7,2.3-0.3c0.7,0.4,1.1,1.2,1,1.9
		c0,0.1,0,0.2-0.1,0.3c0.1-0.1,0.2-0.2,0.3-0.3c0.6-0.5,1.5-0.6,2.2-0.1c0.7,0.5,1.1,1.3,0.8,2.1c-0.1,0.2-0.2,0.5-0.3,0.8
		c0.7-0.3,1.4-0.3,2,0.2c0.6,0.5,0.9,1.3,0.7,2c-0.4,1.5-1.8,3.3-4.6,6C11.7,23.6,9.7,24.5,7.9,24.5z M3,11.4c-0.1,0-0.2,0-0.3,0.1
		c-0.4,0.2-0.8,0.8-0.7,1.7c0.5,7.3,2.1,8.8,3.8,9.8c2.1,1.2,4.6,0.6,7.1-1.8c2.6-2.5,4-4.3,4.4-5.6c0.1-0.4,0-0.7-0.3-1
		c-0.3-0.2-0.7-0.3-1-0.1c-0.8,0.4-2,1.7-2.4,2.2c-0.2,0.2-0.5,0.2-0.7,0.1c-0.2-0.2-0.3-0.5-0.1-0.7c0.5-0.7,1.9-2.8,2.1-3.6
		c0.2-0.6-0.2-0.9-0.4-1c-0.3-0.2-0.7-0.2-1,0c-0.9,0.7-2.7,3.1-2.7,3.1c-0.2,0.2-0.5,0.3-0.7,0.1S9.7,14.2,9.9,14
		c0.4-0.7,1.6-2.6,1.7-3.4c0-0.4-0.2-0.7-0.5-0.9c-0.2-0.1-0.6-0.2-1.2,0.2c-1,0.9-2.8,3.4-4.1,5.5c-0.1,0.2-0.3,0.3-0.5,0.2
		c-0.2-0.1-0.4-0.2-0.4-0.4c-0.1-0.6-0.3-2.5-1.1-3.2C3.5,11.5,3.2,11.4,3,11.4z"/>
	<path fill="#9B3C07" d="M26,9.8c0,0,0.1,0,0.1,0.1c1.2,1,3.1,3.9,4.1,5.5c0.1,0.1,0.2,0.2,0.4,0.2c0.2-1.1,0.3-2.3,0.3-3.5
		c-0.2,0.5-0.4,1.1-0.5,1.6c-0.9-1.4-2.5-3.7-3.6-4.6c-0.7-0.6-1.5-0.7-2.2-0.3C25.2,8.9,25.7,9.3,26,9.8z M5.8,15.3
		c1.2-2,3.1-4.6,4.1-5.5C10,9.8,10,9.7,10.1,9.7c0.3-0.4,0.7-0.8,1.4-1c-0.7-0.3-1.5-0.2-2.2,0.3c-1.1,0.9-2.7,3.2-3.6,4.6
		c-0.1-0.5-0.3-1-0.5-1.5c0,1.1,0.1,2.3,0.3,3.3C5.6,15.5,5.7,15.4,5.8,15.3z"/>
</g>
</svg>
