<svg version="1.1" id="Layer_1" xmlns="http://www.w3.org/2000/svg" xmlns:xlink="http://www.w3.org/1999/xlink" viewBox="0 0 36 36" xml:space="preserve">
<path fill="#3B88C3" d="M36,32c0,2.2-1.8,4-4,4H4c-2.2,0-4-1.8-4-4V4c0-2.2,1.8-4,4-4h28c2.2,0,4,1.8,4,4V32z"/>
<path fill="#FFFFFF" d="M10.3,22.3c0-2.5,1.4-4.3,3.3-5.4c-1.5-1.1-2.4-2.5-2.4-4.4c0-3.6,3-6,6.7-6c3.6,0,6.7,2.3,6.7,6
		c0,1.7-0.9,3.5-2.4,4.4c2.1,1.1,3.3,3,3.3,5.4c0,4.3-3.5,7.1-7.7,7.1C13.7,29.4,10.3,26.5,10.3,22.3z M15.2,22
		c0,1.6,0.9,3.1,2.8,3.1c1.8,0,2.8-1.5,2.8-3.1c0-2-1.1-3.1-2.8-3.1C16.2,18.9,15.2,20.3,15.2,22z M15.8,13c0,1.4,0.8,2.4,2.2,2.4
		c1.4,0,2.3-1,2.3-2.4c0-1.3-0.8-2.4-2.3-2.4S15.8,11.7,15.8,13z"/>
</svg>
