<svg version="1.1" id="Layer_1" xmlns="http://www.w3.org/2000/svg" xmlns:xlink="http://www.w3.org/1999/xlink" viewBox="0 0 100 100" xml:space="preserve">
<g>
	<path fill="#BFD6DD" d="M40.2,44.6h-0.8c-0.3,0-0.5,0.2-0.6,0.6l-1.6,5.1h5.3l-1.6-5.1C40.6,44.7,40.4,44.6,40.2,44.6z"/>
	<path fill="#BFD6DD" d="M95.5,51c-1.6,0-3,0.8-3.8,2.1H77.5v-6H94v-4.8H77.5v-6h10.4l4.5-4.5c1.5,0.3,3-0.1,4.2-1.2
		c1.8-1.8,1.8-4.6,0-6.4s-4.6-1.8-6.4,0c-1.1,1.1-1.5,2.7-1.2,4.2l-3.1,3.1h-8.4v-1.7c0-3.9-3.2-7.2-7.2-7.2h-1.7V16l3.5-3.5
		c1.5,0.3,3-0.1,4.2-1.2C78,9.6,78,6.7,76.2,5c-1.8-1.8-4.6-1.8-6.4,0c-1.1,1.1-1.5,2.7-1.2,4.2L63.8,14v8.6h-6V0H53v22.5h-6V12
		h-4.8v10.6h-6V9.2l-3.7-3.7c0.3-1.5-0.1-3-1.2-4.2c-1.8-1.8-4.6-1.8-6.4,0c-1.8,1.8-1.8,4.6,0,6.4c1.1,1.1,2.7,1.5,4.2,1.2l2.3,2.3
		v11.4h-1.7c-3.9,0-7.2,3.2-7.2,7.2v1.7H12v4.8h10.6v6H8.3c-0.8-1.3-2.2-2.1-3.8-2.1c-2.5,0-4.5,2-4.5,4.5s2,4.5,4.5,4.5
		c1.6,0,3-0.8,3.8-2.1h14.2v6H6v4.8h16.6v6H12.2l-4.5,4.5c-1.5-0.3-3,0.1-4.2,1.2c-1.8,1.8-1.8,4.6,0,6.4s4.6,1.8,6.4,0
		c1.1-1.1,1.5-2.7,1.2-4.2l3.1-3.1h8.4v1.7c0,3.9,3.2,7.2,7.2,7.2h1.7v6.6l-3.5,3.5c-1.5-0.3-3,0.1-4.2,1.2c-1.8,1.8-1.8,4.6,0,6.4
		c1.8,1.8,4.6,1.8,6.4,0c1.1-1.1,1.5-2.7,1.2-4.2l4.9-4.9v-8.6h6V100H47V77.5h6v10.6h4.8V77.5h6v13.4l3.7,3.7
		c-0.3,1.5,0.1,3,1.2,4.2c1.8,1.8,4.6,1.8,6.4,0c1.8-1.8,1.8-4.6,0-6.4c-1.1-1.1-2.7-1.5-4.2-1.2l-2.3-2.3V77.5h1.7
		c3.9,0,7.2-3.2,7.2-7.2v-1.7H88v-4.8H77.5v-6h14.2c0.8,1.3,2.2,2.1,3.8,2.1c2.5,0,4.5-2,4.5-4.5C100,53,98,51,95.5,51z M50.3,61
		c0,0.8-0.4,1.2-1.2,1.2H44c-0.9,0-1.3-0.4-1.3-1.2v-4.7h-5.9V61c0,0.8-0.4,1.2-1.2,1.2h-4.9c-0.8,0-1.2-0.4-1.2-1.2v-8.8
		c0-1.3,0.4-3,1.3-5.4l2.9-7.6c0.3-0.8,0.8-1.1,1.7-1.1h9c0.9,0,1.4,0.3,1.7,1.1l2.9,7.6c0.9,2.3,1.3,4,1.3,5.4V61z M70.6,43.4
		c0,0.8-0.4,1.2-1.2,1.2h-3.2v11.3h3.2c0.8,0,1.2,0.4,1.2,1.2v4c0,0.8-0.4,1.2-1.2,1.2H55.1c-0.8,0-1.2-0.4-1.2-1.2v-4
		c0-0.8,0.4-1.2,1.2-1.2h3.3V44.6h-3.3c-0.8,0-1.2-0.4-1.2-1.2v-4.1c0-0.8,0.4-1.2,1.2-1.2h14.3c0.8,0,1.2,0.4,1.2,1.2V43.4z"/>
</g>
</svg>
