<svg version="1.1" id="Layer_1" xmlns="http://www.w3.org/2000/svg" xmlns:xlink="http://www.w3.org/1999/xlink" viewBox="0 0 100 100" xml:space="preserve">
<linearGradient id="SVGID_1_" gradientUnits="userSpaceOnUse" x1="50" y1="1.346780e-08" x2="50" y2="100">
	<stop  offset="0" style="stop-color:#7CDAFA"/>
	<stop  offset="1" style="stop-color:#63AEC8"/>
</linearGradient>
<circle fill="url(#SVGID_1_)" cx="50" cy="50" r="50"/>
<g>
	<g>
		<path fill="#287C99" d="M55.1,49.4c-2.4,0-4.4-2-4.4-4.4c0-2.1,1.5-3.8,3.4-4.2c-1.2-0.6-2.6-0.9-4.1-0.9
			c-5.6,0-10.3,4.6-10.3,10.3S44.3,60.4,50,60.4s10.3-4.6,10.3-10.3c0-1.5-0.3-2.9-0.9-4.1C58.9,47.9,57.2,49.4,55.1,49.4z"/>
		<path fill="#287C99" d="M50,25.9c-17.5,0-32.3,10.3-36.6,24.2C17.7,64,32.5,74.3,50,74.3S82.3,64,86.6,50.1
			C82.3,36.2,67.5,25.9,50,25.9z M50,68.4c-10.1,0-18.3-8.2-18.3-18.3S39.9,31.8,50,31.8S68.3,40,68.3,50.1S60.1,68.4,50,68.4z"/>
	</g>
</g>
</svg>
