<svg version="1.1" id="Layer_1" xmlns="http://www.w3.org/2000/svg" xmlns:xlink="http://www.w3.org/1999/xlink" viewBox="0 0 290 250" xml:space="preserve">
<g>
	<path fill="#3F4E6C" d="M251.3,202.2L251.3,202.2c-2.3-22-4.4-39.1-6-43c-4.1-9.3-43.6-17.9-57.8-20.8c-0.3-0.1-0.5-0.1-0.8-0.2
		l-0.1,0.1c-2.7-0.6-4.3-0.9-4.3-0.9v0.1c0,0.1,0,0.1-0.1,0.2v0.1c-1.4,3.6-11.7,31.2-21.2,64.3h-32.4c-8.7-30.4-18.2-56.2-20.8-63
		c-0.1-0.2-0.1-0.3-0.2-0.5v-0.1c-0.1-0.1-0.1-0.3-0.1-0.4c0-0.1-0.1-0.2-0.1-0.3c0-0.1-0.1-0.2-0.1-0.3c0-0.1,0-0.1-0.1-0.1v-0.1
		c0,0-1.6,0.3-4.3,0.9c-0.2,0-0.4,0.1-0.7,0.2c-14.1,2.8-53.8,11.5-57.7,20.9c-1.6,3.9-3.8,21-6,42.8h0L34.9,250h220.1L251.3,202.2z
		"/>
	<path fill="#6F492F" d="M144.7,142h0.2c0.9,0,1.6,0,2.5-0.1c6.6-0.5,13.3-3,19.5-5.5c2.6-1.2,4.7-2.6,6.3-3.7l0,0
		c-1.2-1.2-2.2-4.1-2.9-7.3c-6.4,2.2-14.6,3.5-25.1,3.5c-10.5,0-18.7-1.2-25.1-3.4c-0.6,2.5-1.2,4.6-2.1,6.1l0,0
		C125.8,137,134.6,142,144.7,142z"/>
	<path fill="#FFFFFF" d="M182.4,137.8c0-0.1,0.1-0.2,0.1-0.2v-0.1l0,0l0,0c-1.9-0.8-4-1.8-5.9-2.8c-5.6,4.5-17,11.7-31.7,11.6
		c-16-0.2-25.3-8.4-30.1-12.8c-2.4,1.5-5.3,3.4-7.5,4.3c0,0,0,0.1,0.1,0.1l0,0c0,0.1,0.1,0.2,0.1,0.3c0,0.1,0.1,0.2,0.1,0.3
		c0,0.1,0.1,0.2,0.1,0.4v0.1c0.1,0.2,0.1,0.3,0.2,0.5c0,0,0,0,0,0.1c3.8,10.2,23.2,63.4,32.3,110.5c1.5,0,7.7,0,9.5,0
		C159.5,199.9,180.4,143.2,182.4,137.8C182.4,137.9,182.4,137.9,182.4,137.8z"/>
	<path fill="#8499A6" d="M182.5,137.7c0,0.1,0,0.1-0.1,0.2C182.4,137.8,182.4,137.7,182.5,137.7z"/>
	<path fill="#8499A6" d="M182.5,137.6L182.5,137.6L182.5,137.6L182.5,137.6z"/>
	<path fill="#8499A6" d="M107.3,137.6L107.3,137.6L107.3,137.6z"/>
	<path fill="#8499A6" d="M107.4,137.8c0,0.1,0.1,0.2,0.1,0.3C107.4,137.9,107.4,137.8,107.4,137.8z"/>
	<path fill="#8499A6" d="M107.6,138.3c0,0.1,0.1,0.2,0.1,0.4C107.7,138.5,107.6,138.4,107.6,138.3z"/>
	<path fill="#8499A6" d="M107.8,138.8c0.1,0.2,0.1,0.3,0.2,0.5C107.9,139.1,107.8,138.9,107.8,138.8z"/>
	<path fill="#D4DADC" d="M176.6,134.7c-1.3-0.8-2.6-1.4-3.4-2l0,0c-1.5,1.1-3.7,2.5-6.3,3.7c-6.2,2.5-12.8,4.9-19.5,5.5
		c-0.9,0.1-1.7,0.1-2.5,0.1h-0.2c-10.2,0-18.9-5-26.9-10.4l0,0c-0.8,0.5-1.8,1.1-2.9,1.9c4.7,4.4,14,12.7,30.1,12.8
		C159.5,146.4,170.9,139.2,176.6,134.7z"/>
	<path fill="#6F492F" d="M189.1,80.6c3.9-1.8,6.2-6.8,6.5-11.9c0.5-5.2-1.2-11-7.3-13L187,70.1C187.6,73.2,188.5,76.7,189.1,80.6z"
		/>
	<path fill="#6F492F" d="M101.6,55.7c-6.1,2-7.8,7.8-7.3,13c0.4,5.1,2.8,10.2,6.5,11.9c0.8-4,1.5-7.6,2.1-10.8L101.6,55.7z"/>
	<polygon fill="#905E39" points="154.3,17 109,22.7 103.8,28.3 106.1,95.3 138,110 176.6,98.1 185.5,75.3 186.4,29.8 	"/>
	<path fill="#38302C" d="M182.2,14.4c-1.7-0.2-3.4,0-4.9,0.5l0,0c-1.7-4.1-5.7-6.8-10.3-6.8c-1.1,0-2.2,0.2-3.1,0.5
		c-1.9-3.4-5.6-5.7-9.8-5.7c-2.8,0-5.5,1-7.5,2.8l0.1-0.1c-2-1.6-4.6-2.6-7.4-2.5c-3.5,0.1-6.5,2-8.5,4.6c-1.9-1.3-4.3-2.1-6.7-2
		c-5.4,0.2-9.8,4.2-10.6,9.3c-0.7-0.2-1.4-0.4-2.2-0.5c-6.2-0.8-11.7,3.6-12.4,9.8c-0.2,1.6,0,3.2,0.4,4.6l0.1,0.1l2.5,26.7
		l1.3,13.9c0,0.1,0,0.3-0.1,0.4c-0.6,3.1-1.3,6.8-2.1,10.8c-2.9,16.1-4.5,36.7,19,44.8c6.4,2.2,14.6,3.4,25.1,3.4h0.2
		c10.5,0,18.8-1.2,25.1-3.5c23.4-8.1,21.9-28.7,18.9-44.8c-0.7-3.8-1.5-7.4-2-10.5l1.3-14.2l2.4-25v-0.3c0.6-1.1,0.9-2.4,1.1-3.7
		C192.7,20.7,188.4,15.2,182.2,14.4z M182.8,36.6V56h-11c-6.1-1.5-17.4-0.8-21.9,2.6c-1.2,0.9-1.8,1.8-2.1,2.8h-5.2
		c-0.3-0.9-0.9-1.8-2.1-2.8c-4.6-3.3-15.8-4.1-21.9-2.6h-11v4h5.3c-2.8,4.6-0.9,11.2,0.1,14c0.6,2,2.2,3.6,4.6,4.6
		c2.3,1,5.3,1.6,8.3,1.6c2.6,0,5-0.4,6.9-1.2c5.6-2.5,8.9-11.2,9.8-15.5h5.1c0.9,4.3,4.2,13,9.8,15.5c1.9,0.9,4.4,1.2,6.9,1.2
		c2.9,0,6-0.6,8.3-1.6c2.4-1.1,4-2.8,4.6-4.6c0.9-2.8,2.9-9.5,0.2-14h5.3V60v13.2c-4.1,9.7-5.2,19.9-10.5,20.2
		c-5.2,0.3-9.2-4.9-15.1-6.3c-2.2-0.5-8.3,0-12.1,0H145c-3.8,0-9.9-0.6-12.1,0c-6,1.3-9.9,6.5-15.1,6.3c-5.3-0.3-6.5-10.3-10.4-19.8
		v-0.2v-4.7v-8.7v-4V36.5c0.4,0.1,0.7,0.2,1,0.2c6,0.8,11.4-3.4,12.3-9.2l0,0h0.1c1.2,0.4,2.6,0.6,3.9,0.6c3.5-0.1,6.5-1.9,8.5-4.5
		c0,0,0,0,0-0.1c1.9,1.3,4.3,2.1,6.7,2c2.8-0.1,5.2-1.1,7-2.8c1.9,1.5,4.4,2.5,6.9,2.5c1.1,0,2.2-0.2,3.1-0.5
		c1.9,3.4,5.6,5.7,9.8,5.7c1.2,0,2.5-0.2,3.6-0.6c1.5,3.6,4.8,6.4,9,6.8C180.7,36.7,181.7,36.7,182.8,36.6L182.8,36.6z M174.9,73.3
		c-0.5,1.6-2.1,2.7-3.3,3.2c-4.1,1.9-10.2,1.7-13.3,0.3c-4.8-2.2-7.9-10.6-8.4-14.1c-0.1-0.5-0.1-1.2,1.2-2.3
		c4.5-3.2,17.7-3.7,21.9-1.5C176.8,60.9,177.4,65.4,174.9,73.3z M140.2,62.8c-0.7,3.5-3.6,12-8.4,14.1c-3,1.3-9.1,1.5-13.3-0.3
		c-1.2-0.6-2.8-1.6-3.3-3.2c-2.5-8.1-1.8-12.4,1.9-14.5c1.7-0.9,4.9-1.3,8.4-1.3c5.1,0,10.9,0.9,13.5,2.8
		C140.3,61.4,140.3,62.2,140.2,62.8z"/>
</g>
<g>
	<g>
		<g>
			<path fill="#E02828" d="M214.3,205.2h-43.4c-1.7,0-3-1.4-3-3V175c0-1.7,1.4-3,3-3h43.4c1.7,0,3,1.4,3,3v27.2
				C217.3,203.9,215.9,205.2,214.3,205.2z"/>
		</g>
		<g>
			<path fill="#FFFFFF" d="M217.3,185.5v16.6c0,1.7-1.4,3-3,3h-43.4c-1.7,0-3-1.4-3-3v-16.6H217.3z"/>
		</g>
		<g>
			<path fill="#FFFFFF" d="M176.2,182.4v-5.8h0l-1.4,5.8h-1.3l-1.4-5.8h0v5.8h-1.2v-7.3h1.9l1.4,5.7l1.3-5.7h1.9v7.3H176.2z"/>
			<path fill="#FFFFFF" d="M183.7,182.4h-1.3v-2.4h-2.6v2.4h-1.3V177c0-1,0.1-2,2.6-2s2.6,1,2.6,2V182.4z M182.5,177.3
				c0-0.8,0-1.1-1.3-1.1c-1.2,0-1.3,0.4-1.3,1.1v1.5h2.6V177.3z"/>
			<path fill="#FFFFFF" d="M188.7,182.4l-2.5-5.2h0v5.2h-1.2v-7.3h1.4l2.5,5.2h0v-5.2h1.2v7.3H188.7z"/>
			<path fill="#FFFFFF" d="M196.3,182.4h-1.3v-2.4h-2.6v2.4h-1.3V177c0-1,0.1-2,2.6-2s2.6,1,2.6,2V182.4z M195.1,177.3
				c0-0.8,0-1.1-1.3-1.1c-1.2,0-1.3,0.4-1.3,1.1v1.5h2.6V177.3z"/>
			<path fill="#FFFFFF" d="M202.5,180.5c0,1-0.1,2-2.6,2c-2.5,0-2.6-1-2.6-2V177c0-1,0.1-2,2.6-2c2.5,0,2.6,1,2.6,2v0.5h-1.3v-0.3
				c0-0.8,0-1.1-1.3-1.1c-1.2,0-1.3,0.4-1.3,1.1v3c0,0.8,0,1.1,1.3,1.1c1.2,0,1.3-0.4,1.3-1.1v-0.7h-1.4v-1.2h2.7V180.5z"/>
			<path fill="#FFFFFF" d="M204.9,176.3v1.8h2.8v1.2h-2.8v1.8h3v1.3h-4.3v-7.3h4.3v1.3H204.9z"/>
			<path fill="#FFFFFF" d="M212.9,182.4v-1.5c0-0.7-0.2-0.9-0.9-0.9h-1.6v2.5h-1.3v-7.3h3.4c1.5,0,1.7,1,1.7,2v0.9
				c0,0.5-0.2,1.2-1,1.4c0.7,0.1,1,0.7,1,1.4v1.7H212.9z M212.9,177.4c0-0.8-0.2-1.1-1-1.1h-1.6v2.5h1.3c1.2,0,1.3-0.4,1.3-1.2
				V177.4z"/>
		</g>
	</g>
	<g>
		<g>
			<path fill="#4D4D4D" d="M179.3,198.1c-0.8-1.4-1-3-0.4-4.6c0.1-0.4,0.4-0.8,0.6-1.1c0-0.1,0.2-0.4,0.3-0.4c-0.1,0-0.2-0.3-0.1,0
				c0.3,0.8,0.2,1.9,0.3,2.8c0.3,1.7,0.8,3.8,2,5.1c1,1.2,3,1.7,4,0.2c0.9-1.3,0.2-3.6,1.5-4.7c1.3-1,1.5,1.1,2,1.9
				c0.9,1.3,2.5,1.6,3.8,0.8c0.7-0.4,1.2-1.1,1.5-1.7c0.3-0.6,0.5-1.5,1.3-1.6c1-0.1,2,0.6,2.8,1.1c0.9,0.5,1.8,0.9,2.7,1.3
				c2.1,0.8,4.3,1,6.5,0.7c1.9-0.2,1.9-3.2,0-3c-2.2,0.3-4.4,0-6.4-0.9c-1.9-0.8-3.5-2.3-5.6-2.2c-0.9,0-1.8,0.3-2.5,0.9
				c-0.8,0.7-1,1.5-1.5,2.3c-0.1,0.2-0.6,0.6-0.3,0.6c0.2,0,0-0.2-0.1-0.5c-0.3-0.8-0.6-1.5-1.2-2.1c-1.3-1.2-3.3-1-4.7-0.1
				c-0.8,0.5-1.3,1.3-1.7,2.2c-0.3,0.7-0.9,2.2-0.7,3c0,0.1,0,0.1,0,0.2c0.9,0.1,1.2,0,0.9-0.3c0,0-0.2-0.3-0.3-0.3
				c-0.3-0.5-0.5-1.1-0.7-1.7c-0.3-1.1-0.5-2.1-0.5-3.3c-0.1-1.8-1.1-4-3.3-3.8c-2,0.2-3.2,2.6-3.6,4.3c-0.5,2.2-0.2,4.4,0.9,6.3
				C177.7,201.3,180.3,199.8,179.3,198.1L179.3,198.1z"/>
		</g>
	</g>
</g>
</svg>
