<svg version="1.1" id="Layer_1" xmlns="http://www.w3.org/2000/svg" xmlns:xlink="http://www.w3.org/1999/xlink" viewBox="0 0 250 350" xml:space="preserve">
<g>
	<g>
		<g id="XMLID_2_">
			<path fill="#271F1F" d="M162.7,284.3c-3.6,0-4.6-3.1-5.1-5.8c-0.1,2.2-0.8,4.3-3.4,5.3c-0.4,0.1-0.7,0.2-1.2,0.2
				c-2,0-4.2-1.6-4.7-3.4c-1.4-4.6,1.4-8.2,4.1-11.3c0.1-0.1,0.1-0.2,0-0.2c-6.8-7.2-12.8-15.8-16.9-24.2l-0.2-0.5
				c-11.6,18.6-24.9,28.2-40.5,29.4c-0.8,0.1-1.5,0.1-2.2,0.1c-5.7,0-10.6-1.6-14.8-5c-3.6-2.9-6.6-7-9.1-12.3
				c-6.4-13.8-5.3-25.9,3.1-35.9c2.8-3.3,5.4-5.4,7.7-6.2c0.8-0.3,1.5-0.4,2.2-0.4c1.5,0,2.9,0.6,4.3,1.9c0.9,0.8,1.7,1.8,1.2,3.5
				c-0.4,1.4-1.9,3.1-4.2,4.8c-3.7,2.8-5.1,7.3-5.6,10.6c-0.6,4.1-0.3,8.5,0.9,12c0.8,2.3,2.5,4.9,4.7,7.2c2.4,2.5,4.9,4.1,7.2,4.7
				c1.5,0.4,3.1,0.6,4.6,0.6c6.4,0,11.6-3.5,14.8-6.4c3.3-3,6-6.8,8-10.5c-2.6,4.3-5.3,7.7-8.2,10.3c-2,1.8-4.3,3.3-6.9,4.5l-1,0.5
				l-0.4-1c-6.3-16.7-13-56.9-7.7-90.3l0.3-1.7l1.4,1.1c0.5,0.4,1.1,0.8,1.7,1.1c-5-3.9-9.2-8.7-12.1-14.1c-1.6-3-3.1-6.3-4.5-9.4
				c-2.6-5.7-5.2-11.7-9.1-16.8l-1.3-1.7l2.2,0.1c3,0.1,6.6,0.4,10.5,0.9c2.1,0.3,3.9,0.4,5.3,0.4h0.1c1.6,0,2.5-0.1,3.1-0.8
				l0.1-0.1c3.9-4.4,12.1-13.4,21.3-17.3l0.1-0.1c1-0.5,1.6-1.5,2-2.8c0.4-1.4,0.5-2.9,0.5-4.4l0-0.9c0.1-2.5,0.2-4.8,0.5-6.6
				l0.2-1.1l1,0.3c4.5,1.1,15.1,8.1,17.2,12l0.8,1.5h-1.8c-1.4,0-2.8,0.3-4,0.8c-2.2,0.9-4.1,2.4-5.9,4.6c-5,6.4-2.6,12.5-1.3,14.8
				c2.3,4.2,6.5,7.2,10.3,7.5c0.6,0.1,1.3,0.1,1.9,0.1c8.1,0,11.7-5,13.3-9.3c2.2-6,2.2-27.2,2.1-39.8l0-3.1l0-0.1l-0.1-0.1l0,0
				c0,0,0,0-0.1,0c-2-0.6-4.1-2.6-5.4-5c-1.4-2.6-1.8-5.5-1-7.6c0.4-1.1,0.9-1.9,1.5-2.3c0.4-0.3,0.8-0.5,1.3-0.5c0.2,0,0.3,0,0.5,0
				c1.3,0.2,2.9,1.6,3.9,2.7l0.5,0.3l0.1,0.6c0,0.3,0,0.6,0,0.9c0,0.9,0,1.7,0.2,2.7c0,0.2,0,0.2,0.1,0.2c0.1,0,0.2,0,0.2-0.1
				c0,0,0,0,0-0.1c-0.7-4.3-0.4-7.9,0.8-10.2c1.2-2.3,2.7-2.8,3.8-2.8c0.1,0,0.3,0,0.4,0c2.1,0.2,3.4,1.3,4.2,3.4
				c0.8,2.1,0.8,5.1,0.1,8.6c0,0.1,0,0.1,0,0.1c0,0,0.1,0.1,0.2,0.1c0.1,0,0.1,0,0.1-0.1c0.2-0.9,0.2-1.6,0.3-2.5
				c0-0.3,0-0.5,0.1-0.8l0.1-0.7l0.7-0.2c0.1,0,0.1,0,0.2-0.1c1.9-1.4,3.6-2.1,5.1-2.1c0.5,0,1.1,0.1,1.5,0.3c1.5,0.6,2.3,2.1,2.3,4
				c-0.1,4.8-4.9,9.9-9,12.8c0,0-0.1,0.1-0.1,0.1c-0.3,5.5,0.2,12,0.6,18.9c0.8,11.3,1.6,22.9-0.6,32.8c-0.6,2.7-1,4.5-1.3,6.1
				c-0.4,1.9-0.8,3.8-1.5,6.9c-10.8,42.4-7.7,83.8,8.9,116.6l-0.3,1.1l0.3-1c6.3,2.2,8.9,5.2,8.5,9.7c-0.3,2.9-2.4,4.6-5.6,4.6
				c-0.8,0-1.8-0.1-2.7-0.3l-0.6-0.1l0,0c0,0.7-0.1,1.3-0.1,1.7c-0.2,2-1.3,3.5-2.9,4C163.9,284.2,163.3,284.3,162.7,284.3z
				 M103,132.1c-0.7,0-1.4,0.1-2.3,0.2c-2.3,0.4-4.8,1.8-7,3.8c-2.3,2.2-3.8,4.7-4.2,7.2c-1.3,7.6,4,13.1,9.5,15
				c1.5,0.5,3.1,0.8,4.7,0.8c1.5,0,3-0.3,4.4-0.8c3.1-1.2,5.6-3.6,7.1-7c1.6-3.6,1.1-8.7-1.3-12.8c-2-3.4-5.1-5.6-8.8-6.2
				c-0.6-0.1-1.3-0.1-1.9-0.1L103,132.1z M123.1,140.1c-0.6,0.7-0.7,4.5-0.2,5.5c1.3-0.1,3.8-2.8,4.5-3.9c-0.8-0.6-3-1.5-4.2-1.5
				L123.1,140.1L123.1,140.1z"/>
			<path fill="#B2B3B3" d="M178.3,274c0,2.1-0.9,4.4-2.9,5.4c-1.7,0.9-3.9,0.9-6.6,0.5c-0.2,2.2-0.9,4.4-3.8,5.4
				c-2.1,0.7-4.1,0.6-5.6-0.4c-0.7-0.4-1.2-1.1-1.7-1.9c-0.9,1.4-2.2,2.3-3.5,2.6c-2.8,0.6-5.8-1-7.1-3.5c-1-1.9-0.7-4.3,0.1-6.7
				c0.7-2.1,2-4.2,3.6-6.1c-5.4-5.4-13.4-16.9-16.3-21.8c-3.4,5.4-7.2,10.4-11.7,14.7c2.3,1.3,4.5,2.9,6,5c1.6,2.4,2.4,5,2,7.2
				c-0.4,2.1-2.1,3.8-4.5,4c-0.8,0.1-1.7-0.3-2.5-0.6c0,1.5-0.3,3-1.1,4c-1.1,1.4-2.7,2.3-4.5,2.5c-1.7,0.2-3.5-0.3-4.9-1.6
				c-0.1-0.1-0.1-0.3-0.2-0.4c-1,1.3-2.2,2.4-3.5,2.6c-1.7,0.4-3.5-0.2-4.8-1.4c-2.3-2-3.6-5.6-2.8-9.6c-2.2,0.6-4.5,1-7,1.1
				c-7.6,0.6-13.5-1.7-18-5.2s-7.4-8.3-9.4-12.8c-7.5-16.4-3.8-28.9,3.3-37.3c2.9-3.4,5.6-5.7,8.3-6.6c2.7-0.9,5.5-0.3,7.8,1.7
				c0.9,0.8,1.6,1.9,1.7,3.1c0.1,0.6,0,1.2-0.2,1.8c-0.6,1.8-2.1,3.6-4.7,5.5c-2.8,2.1-4.5,5.8-5.1,9.7c-0.6,4-0.2,8.2,0.8,11.4
				c0.7,2,2.4,4.6,4.4,6.7c2,2.1,4.5,3.8,6.6,4.3c3.3,0.9,6.5,0.6,9.4-0.3c-3.3-8.9-6.6-23.3-8.4-39.6c-1.9-17-2.1-36,0.7-52.8
				c-3.5-3.2-6.4-7.1-8.8-11.4c-5.1-9.4-8.1-20.2-14.9-28.1c-0.7-0.7-0.1-1.9,0.9-2c2.8-0.1,5.7,0.2,8.6,0.6c0,0,0-0.1,0-0.1
				c0.9-10.9,0.8-22.9,0.8-33.7c-5.1-1.1-8.5-5.7-9.2-10.1c-0.4-2.4,0-4.8,1.6-6.5c0.8-0.9,2-1.5,3.4-1.9c0-10.7-1.2-61.4,0.9-71.7
				c2.3,8.9,0.5,61.8,1.4,71.5c0.6,0,1.2,0.1,1.8,0.2c0,0,0,0,0,0c0.2-0.8,0.2-1.7,0.6-2.3c1.1-2.1,3.1-3.3,5.2-3.6c0,0,0,0,0.1,0
				c0.6-9.3-0.9-44.5,1.3-50.7c2,7.2,1,41.7,0.9,50.8c1.4,0.3,2.7,1,3.7,2.2c1.1,1.3,1.6,3.4,1.8,5.7c1.3-1,2.6-1.6,3.9-1.7
				c-0.1-11-1.1-54.5,0.9-63.5c2.3,7.9,0.6,53.8,1.4,63.9c2.2,0.9,3.8,3.2,3.7,6.1c0,2.3-1.4,4.5-3.2,6.9c-1.7,2.1-3.9,4.2-6.2,6
				c1.7,8.8,2.1,18.7,4.2,26.1c4.2-4,9-8.1,14.9-10.6c0.6-0.3,1.1-1,1.4-2c0.3-1.1,0.4-2.5,0.5-4.1c0.1-3.1-0.1-6.7,0.9-9.4
				c0.2-0.6,0.8-0.9,1.4-0.7c5.7,1.8,16,8.1,20.9,14.9c0.4,0.1,0.9,0.3,1.3,0.5c5,2.1,8.1,5.6,9.6,9.4c1.3-10.5,0.4-22.4,0.4-33.4
				c-2.2-1-4.1-2.8-5.4-5.2c-1.4-2.7-2.1-5.9-1.1-8.7c0.5-1.3,1.1-2.3,1.9-2.9c0.4-0.3,0.8-0.4,1.2-0.6c-0.1-9.8-1.2-50.8,0.9-59.2
				c2.3,7.4,0.6,50.1,1.4,59.3c0.9,0.3,1.7,0.9,2.5,1.5c0.2-1.5,0.5-2.9,1-3.9c1-1.9,2.5-3.1,4.2-3.5c0.7-8.4-0.9-42.5,1.3-48.4
				c2,6.9,1,40.2,0.9,48.5c2,0.5,3.7,2,4.4,4.1c0.4,1,0.5,2.2,0.6,3.4c1.6-1,3-1.5,4.4-1.7c-0.1-10.1-1.1-49.6,0.9-57.8
				c2.2,7.1,0.6,48.2,1.3,58c0.1,0,0.2,0,0.3,0.1c2.1,0.9,3.1,3,3.1,5.3c-0.1,5.2-4.3,10-9,13.4c-0.6,13.7,3.6,34.3-0.1,50.8
				c-1.3,5.9-1.9,8-6.2,31.7c-4.6,25.8-3.9,64.8,12.2,97.3C175.4,265.8,178.2,267.1,178.3,274z M175.6,274.1
				c0.4-3.9-1.9-6.6-7.8-8.6c-0.3-0.1-0.5-0.3-0.7-0.6c-16.7-33.1-20-74.3-8.9-117.3c1.3-5.8,1.5-7.2,2.8-13
				c3.5-15.7-0.9-37.1-0.1-51.5c0-0.4,0.2-0.7,0.5-0.9c4.6-3.2,8.5-7.9,8.5-11.9c0-1.5-0.6-2.6-1.7-3c-1.1-0.4-2.9-0.3-5.6,1.7
				c-0.1,0.1-0.3,0.1-0.4,0.2c-0.1,1.1-0.1,2.1-0.4,3.3c-0.3,1.6-2.7,1.1-2.3-0.5c0.7-3.5,0.6-6.2,0-8c-0.7-1.7-1.7-2.6-3.4-2.8
				c-1.2-0.1-2.3,0.4-3.2,2.2c-0.9,1.8-1.4,4.9-0.7,9.5c0.3,1.6-2.2,2-2.3,0.4c-0.2-1.4-0.1-2.6-0.2-3.8c-0.1-0.1-0.2-0.1-0.3-0.2
				c-1.1-1.2-2.4-2.2-3.3-2.4c-0.4-0.1-0.7,0-1,0.2c-0.3,0.2-0.8,0.8-1.1,1.9c-0.7,1.9-0.2,4.5,1,6.8c1.2,2.2,3.1,4,4.8,4.5
				c0.2,0.1,0.5,0.2,0.6,0.4c0,0,0.1,0,0.1,0.1c0.2,0.2,0.2,0.6,0.2,0.9c0,12.5,0.3,36.6-2.2,43.3c-2.3,6.2-7.4,10.6-16.2,9.9
				c-4.2-0.4-8.6-3.6-11.1-8.1c-2.5-4.5-2.9-10.5,1.4-15.9c1.5-2,3.6-3.9,6.3-5c1.3-0.5,2.8-0.8,4.4-0.8
				c-1.9-3.5-12.2-10.4-16.5-11.5c-0.4,1.9-0.4,4.6-0.5,7.4c-0.1,1.6-0.2,3.2-0.6,4.7c-0.4,1.4-1.2,2.8-2.5,3.5
				c0,0.1-0.1,0.1-0.1,0.1c-9.1,3.8-17.2,12.9-21.2,17.2c-1,1.1-2.3,1.2-3.9,1.2c-1.6,0-3.5-0.2-5.5-0.5c-3.3-0.4-7-0.8-10.4-0.9
				c6.1,8.1,9.2,18,13.7,26.4c4.1,7.6,10.5,13.5,16.9,17.2c1.4,0.8,1.6,1.7,0.1,1.2c-3.1-1.1-5.7-2.2-8.1-4.1
				c-5.1,32,1.2,72.4,7.6,89.7c2.4-1.1,4.6-2.5,6.6-4.3c5.1-4.6,8.9-11.3,11.5-16.5c0.8-1.6,2.2-1.2,1.5,0.5
				c-2.3,5.8-6,12.8-11.5,17.8c-5.5,5-12.6,8.1-20.4,6c-2.7-0.7-5.4-2.7-7.7-5c-2.3-2.3-4.1-5.1-5-7.6c-1.2-3.6-1.6-8.1-0.9-12.5
				c0.7-4.4,2.5-8.6,6-11.2c2.4-1.8,3.5-3.3,3.9-4.3c0.3-1,0.1-1.6-0.9-2.4c-1.8-1.6-3.4-1.9-5.5-1.2c-2,0.7-4.5,2.6-7.3,5.9
				c-6.6,7.8-10.2,19.1-3,34.8c2,4.3,4.8,8.7,8.8,11.9c4,3.2,9.2,5.2,16.3,4.7c19.8-1.4,33.1-17.2,42.2-33.1c0.8-1.4,2.3-1,1.7,0.5
				c-0.7,1.9-1.2,2.8-2.1,4.3c4,8.1,9.9,16.6,16.7,23.9c0.5,0.4,0.5,1.2,0.1,1.7c-2.5,2.9-5.1,6.2-3.9,10.3c0.5,1.6,3,3.1,4.5,2.5
				c2.5-1,2.9-3,2.7-6c-0.1-1.6,1.6-1.6,1.8-0.1c0.5,3.1,1.1,7.6,6,6.2c1.1-0.3,2-1.5,2.2-3.1c0.2-1.6,0.3-4-1.5-5.9
				c-1.2-1.1,0.1-2,1.2-0.8c1.4,1.5,2,2.6,2.3,4.2C171.3,278.1,175.2,278.1,175.6,274.1z M146.6,123.2c1.2-5.5-1.2-12-9-15.3
				c-1.6-0.7-3-1-4.4-1c-1.3,0-2.5,0.3-3.6,0.7c-2.2,0.9-4.1,2.5-5.4,4.3c-3.8,4.9-3.4,9.7-1.2,13.6c2.2,3.9,6.3,6.7,9.5,7
				C140.4,133.3,145.3,128.7,146.6,123.2z M126,276.1c3.3-1.1,2.7-4.5,0.7-7.6c-1.3-2-3.5-3.6-5.7-4.7c-4.9,4.2-10.4,7.4-16.7,9.4
				c-0.8,2.7-0.1,9.5,4.6,9.2c0.9-0.1,1.9-0.7,2.8-2.3c-0.3-1-0.5-2.2-0.4-3.6c0.1-1.6,1.7-1.6,1.6,0c-0.1,2.8,1.2,5.6,4.9,5.5
				c1.1,0,2.2-0.7,2.9-1.6c0.7-0.9,1-2,0.7-3.5c0-0.1,0-0.2,0-0.3c-0.9-0.7-1.2-1.5-2-2.7c-0.9-1.4,0-2.5,1-1.2
				C122.7,275.5,124.8,276.5,126,276.1z M99.8,78.4c0-2.5-1.3-3.9-3-4c-1.7-0.1-4.2,1.1-6.2,5.5c-0.6,1.5-2.9,0.5-2.2-1
				c0.5-1,1-1.8,1.5-2.6c0-0.1,0-0.1,0-0.2c0.4-3.3-0.3-5.4-1.3-6.6c-0.8-0.9-1.7-1.4-2.8-1.5v0c-0.3-0.1-0.7-0.1-1,0
				c-1.4,0.2-2.7,1-3.5,2.4c-0.7,1.4-1,3.4,0,6.1c0.6,1.5-1.7,2.4-2.2,0.8c-0.5-1.2-0.6-2.3-0.6-3.4h-0.3c-2.9-0.5-4.5,0.1-5.4,1.1
				s-1.3,2.7-1,4.6c0.6,3.8,3.8,8.1,8.2,8.5c0.6,0.1,1.1,0.6,1.1,1.2c0,11,0.2,23.4-0.8,34.7c0,0.1,0,0.1,0,0.2
				c0.7,0.1,1.6,0.2,2.3,0.3c2,0.2,3.8,0.4,5.2,0.4s2.1-0.3,2.2-0.4c0,0,0,0,0,0c1.1-1.3,3.3-3.4,5.1-5.2c-0.1-0.1-0.2-0.3-0.2-0.4
				c-2.5-8.2-2.7-18.9-4.5-27.8c-0.1-0.4,0.1-0.9,0.4-1.2c2.4-1.8,4.7-4,6.4-6.1C98.8,81.7,99.8,79.6,99.8,78.4z"/>
			<path fill="#F2F2F2" d="M137.5,107.9c7.8,3.2,10.3,9.7,9,15.3c-1.2,5.5-6.1,10.1-14.1,9.4c-3.2-0.3-7.3-3.1-9.5-7
				c-2.2-3.9-2.6-8.8,1.2-13.6c1.4-1.8,3.2-3.4,5.4-4.3c1.1-0.4,2.3-0.7,3.6-0.7C134.5,106.9,135.9,107.2,137.5,107.9z M136.2,124
				c2.1-1.2,2.9-3.9,1.7-6.2c-0.8-1.5-2.4-2.5-4.1-2.5c-0.7,0-1.4,0.2-2,0.5c-2.1,1.2-2.9,3.9-1.7,6.2
				C131.3,124.2,134.1,125.1,136.2,124z"/>
			<path fill="#4D4E4E" d="M137.9,117.8c1.2,2.2,0.5,5-1.7,6.2c-2.1,1.2-4.9,0.3-6.1-2c-1.2-2.2-0.5-5,1.7-6.2
				c0.6-0.3,1.3-0.5,2-0.5C135.5,115.3,137,116.3,137.9,117.8z"/>
			<path fill="#B2B3B3" d="M128.6,141.4c0.1,0.9-4.5,6.1-6.2,5.1c-1.1-0.5-1.1-6.3,0.1-7.3c0.1-0.1,0.4-0.2,0.6-0.2
				C124.8,139,128.5,140.6,128.6,141.4z"/>
			<path fill="#271F1F" d="M126.7,268.5c2,3.1,2.6,6.5-0.7,7.6c-1.3,0.4-3.4-0.6-5.6-3.4c-1-1.3-1.9-0.2-1,1.2c0.7,1.2,1,2,2,2.7
				c0,0.1,0,0.2,0,0.3c0.4,1.5,0,2.6-0.7,3.5c-0.7,0.9-1.8,1.6-2.9,1.6c-3.7,0.1-5-2.8-4.9-5.5c0.1-1.6-1.5-1.5-1.6,0
				c-0.1,1.4,0.1,2.6,0.4,3.6c-0.9,1.6-1.9,2.2-2.8,2.3c-4.7,0.3-5.4-6.5-4.6-9.2c6.2-1.9,11.8-5.2,16.7-9.4
				C123.2,264.9,125.4,266.5,126.7,268.5z"/>
			<path fill="#B2B3B3" d="M114.8,137.9c2.5,4.5,3,9.9,1.3,13.8c-1.7,3.9-4.6,6.4-7.7,7.6c-3.2,1.2-6.6,1.1-9.8,0
				c-6.3-2.2-11.5-8.3-10.2-16.1c0.5-2.9,2.2-5.6,4.5-7.8c2.2-2.1,4.9-3.7,7.5-4.1c0.9-0.1,1.7-0.2,2.5-0.2c0.8,0,1.6,0,2.3,0.2
				C109.6,131.9,112.9,134.6,114.8,137.9z M114.2,150.8c1.3-3,1-8-1.2-11.9c-1.7-2.9-4.3-5.2-8-5.7c-0.6-0.1-1.3-0.1-2-0.1
				c-0.7,0-1.4,0.1-2.2,0.2c-2,0.3-4.5,1.7-6.4,3.5c-2,1.9-3.5,4.3-3.9,6.6c-1.1,6.8,3.3,12,8.8,13.8c2.8,0.9,5.7,1,8.4,0
				C110.3,156.3,112.7,154.3,114.2,150.8z"/>
			<path fill="#F2F2F2" d="M113,138.9c2.2,3.9,2.5,8.9,1.2,11.9c-1.5,3.5-3.9,5.5-6.5,6.5c-2.7,1-5.6,0.9-8.4,0
				c-5.5-1.9-9.9-7.1-8.8-13.8c0.4-2.3,1.9-4.7,3.9-6.6c2-1.9,4.4-3.2,6.4-3.5c0.8-0.1,1.5-0.2,2.2-0.2c0.7,0,1.4,0.1,2,0.1
				C108.7,133.7,111.3,136,113,138.9z M105.7,150.1c2-1.3,2.6-4.1,1.2-6.3c-0.9-1.3-2.3-2.1-3.8-2.2c-0.1,0-0.2,0-0.3,0
				c-0.7,0.1-1.5,0.3-2.1,0.7c-2,1.3-2.6,4.1-1.2,6.3C100.8,150.8,103.6,151.4,105.7,150.1z"/>
			<path fill="#4D4E4E" d="M106.8,143.9c1.4,2.1,0.9,5-1.2,6.3c-2,1.3-4.8,0.6-6.2-1.5c-1.4-2.1-0.9-5,1.2-6.3
				c0.6-0.4,1.3-0.6,2.1-0.7c0.1,0,0.2,0,0.3,0C104.5,141.7,106,142.5,106.8,143.9z"/>
			<path fill="#271F1F" d="M96.8,74.3c1.7,0.1,3,1.6,3,4c0,1.2-1,3.3-2.7,5.4c-1.7,2.1-4,4.3-6.4,6.1c-0.4,0.3-0.5,0.7-0.4,1.2
				c1.8,8.9,2,19.6,4.5,27.8c0,0.2,0.1,0.3,0.2,0.4c-1.8,1.9-4,4-5.1,5.2c0,0,0,0,0,0c0,0.1-0.8,0.4-2.2,0.4s-3.2-0.2-5.2-0.4
				c-0.7-0.1-1.5-0.2-2.3-0.3c0-0.1,0-0.1,0-0.2c0.9-11.3,0.8-23.7,0.8-34.7c0-0.6-0.5-1.1-1.1-1.2c-4.4-0.4-7.6-4.7-8.2-8.5
				c-0.3-1.9,0.1-3.6,1-4.6s2.5-1.6,5.4-1.1h0.3c0.1,1.1,0.2,2.2,0.6,3.4c0.5,1.5,2.8,0.7,2.2-0.8c-1-2.7-0.8-4.7,0-6.1
				c0.8-1.4,2.1-2.2,3.5-2.4c0.3-0.1,0.7-0.1,1,0v0c1,0.1,2,0.6,2.8,1.5c1,1.2,1.7,3.3,1.3,6.6c0,0.1,0,0.1,0,0.2
				c-0.5,0.8-1,1.6-1.5,2.6c-0.7,1.5,1.5,2.5,2.2,1C92.6,75.4,95.1,74.2,96.8,74.3z"/>
		</g>
	</g>
	<g>
		<g>
			<path fill="#CCCBCB" d="M23.4,328.6c-0.4,0.1-1,0.2-1.6,0.3c-0.6,0-1,0.1-1.2,0.1c0,0.8-0.1,1.6-0.1,2.6
				c-0.1,0.9-0.1,1.7-0.2,2.3l-0.1,1.2l-0.1,1.2l-0.2,2.9c-0.1,1.3-0.5,1.9-1.2,1.9c-0.3,0-0.5-0.3-0.8-0.9s-0.4-1.1-0.4-1.5
				c0-0.1,0.1-0.3,0.3-0.6c0.2-0.3,0.3-0.7,0.4-1.1c0.1-0.7,0.2-1.8,0.3-3.5c0.1-1.6,0.2-3,0.3-4.1c-1,0.1-2,0.2-3.1,0.3
				c-0.5,0-1.6,0.2-3.3,0.3c-1.7,0.2-3.1,0.3-4.1,0.3c-0.1,1.6-0.2,3.6-0.3,6s-0.2,3.8-0.2,4.3c0,0.2,0,0.5,0.1,0.8
				c0.1,0.3,0.1,0.6,0.1,0.7c0,0.2-0.2,0.4-0.5,0.7C7,342.9,6.7,343,6.5,343c-0.2,0-0.5-0.2-0.6-0.5c-0.2-0.3-0.2-0.7-0.2-1.1
				c0-0.2,0-0.6,0.1-1.1c0-0.5,0.1-0.9,0.1-1.3c0.1-0.7,0.2-1.2,0.2-1.6c0.1-1.5,0.2-2.9,0.3-4.2c0.1-1.4,0.1-2.3,0.1-2.7
				c-1.6,0.3-3,0.4-4.4,0.4c-0.5,0-0.9-0.1-1.2-0.4c-0.3-0.2-0.5-0.6-0.5-1c0-0.3,0.1-0.6,0.2-0.7c0.2-0.2,0.5-0.2,1-0.2l2,0
				c1.3,0.1,2.3,0.1,3.1,0.1c0.1-2.1,0.2-3.8,0.2-5.1c0-2.9,0-5.5-0.1-7.7v-1.4c0-0.4,0.1-0.7,0.4-0.9c0.3-0.2,0.6-0.4,1-0.4
				c0.3,0,0.5,0.2,0.6,0.6c0.1,0.4,0.1,0.9,0.1,1.4c0,0.5-0.1,1.7-0.2,3.3c-0.1,2.9-0.2,4.4-0.2,4.6l-0.2,5.3c2.1,0,5.6-0.4,10.6-1
				c0.1-0.7,0.3-2.6,0.5-5.7c0.1-1.6,0.2-2.8,0.3-3.5l0.2-2.9c0.3-3.6,0.5-5.9,0.5-6.8c0-0.3,0.1-0.6,0.4-0.8s0.5-0.3,0.9-0.3
				c0.4,0,0.7,0.4,0.7,1.3c0,0.5-0.1,2-0.4,4.3c-0.3,3.1-0.4,4.8-0.4,5.1c-0.1,1.9-0.3,3.7-0.4,5.5c-0.1,1.7-0.2,2.9-0.3,3.5
				c0.4-0.1,0.8-0.2,1.2-0.3c0.4-0.1,0.8-0.2,1-0.2s0.5,0.1,0.9,0.4c0.3,0.3,0.5,0.5,0.5,0.6C24.3,328.1,24,328.4,23.4,328.6z"/>
			<path fill="#CCCBCB" d="M44,336c0.2,0.2,0.3,0.3,0.3,0.5c0,0.3-0.1,0.6-0.4,1c-0.2,0.4-0.5,0.6-0.7,0.6c-0.4,0-0.7-0.3-1-0.8
				c-0.2-0.5-0.3-1.1-0.3-1.8c0-0.6,0-2.4,0.1-5.4l0-1.4c0-0.6-0.1-1-0.4-1.2c-1.1,1.9-2.2,3.5-3.1,4.9c-1,1.4-2.2,2.7-3.7,3.9
				c-1.5,1.2-3,1.8-4.7,1.8c-0.8,0-1.4-0.2-1.8-0.7c-0.4-0.5-0.7-1.1-0.7-1.9c0-1,0.4-2.3,1.3-4.1c0.9-1.7,2-3.5,3.4-5.2
				c1.4-1.8,2.8-3.2,4.2-4.4c0.9-0.7,1.6-1.2,2.2-1.5c0.5-0.3,1-0.4,1.5-0.4c0.4,0,0.8,0.1,1.2,0.4c0.4,0.2,0.8,0.6,1.1,1
				c0.3,0.4,0.4,1,0.4,1.5c0,0.8-0.2,1.5-0.6,2.2l0.6-0.2c0.3,0,0.4,0.3,0.5,1c0,0.4,0.1,1.2,0.1,2.4c0,1.2,0.1,2.2,0.1,3
				c0,0.8,0,1.6,0.1,2.4c0,0.8,0,1.4,0.1,1.8C43.7,335.6,43.8,335.8,44,336z M34.4,334.6c1.2-1,2.3-2.2,3.3-3.5
				c1-1.4,2.1-3.1,3.3-5.1c0.3-0.7,0.4-1.5,0.4-2.4c0-0.5-0.2-1-0.5-1.4c-0.3-0.4-0.7-0.6-1.2-0.6c-0.6,0-1.4,0.4-2.4,1.3
				c-1.1,0.9-2.3,2.2-3.5,3.8c-1.2,1.6-2.3,3.1-3.1,4.7c-0.8,1.5-1.2,2.8-1.2,3.6c0,0.7,0.3,1.1,1,1.1
				C31.9,336.1,33.2,335.6,34.4,334.6z"/>
			<path fill="#CCCBCB" d="M60.4,338.8c-0.2,0.2-0.5,0.3-0.9,0.3c-0.2,0-0.5-0.1-0.6-0.2c-0.2-0.1-0.3-0.3-0.3-0.5
				c0-1,0.1-2.6,0.2-4.7c0.1-2.3,0.2-4.2,0.2-5.7c0-1.5,0-2.7-0.1-3.6c-0.1-0.9-0.3-1.4-0.6-1.4c-0.8,0-1.8,1-2.8,3.1
				c-1,2.1-2.1,4.9-3.4,8.3l-0.6,1.5c-0.1,0.2-0.3,0.4-0.5,0.6s-0.5,0.2-0.7,0.2c-0.3,0-0.5,0-0.6-0.1c-0.1,0-0.2-0.2-0.2-0.4
				l-0.3-3l-0.6-5.4c-0.2-2.1-0.4-4-0.6-5.6c-0.1-0.4-0.1-0.7-0.1-0.9c0-0.4,0.2-0.7,0.5-0.9c0.3-0.2,0.7-0.4,1.1-0.4
				c0.2,0,0.4,0.6,0.5,1.8s0.2,3.1,0.4,5.8l0.1,2c0.2,2.5,0.3,4.1,0.3,4.8c0.1-0.1,0.1-0.3,0.2-0.5c0.1-0.2,0.1-0.4,0.2-0.6
				c1.3-3.5,2.6-6.4,3.8-8.7c1.2-2.3,2.3-3.5,3.4-3.5c0.8,0,1.3,0.7,1.6,2c0.3,1.3,0.5,3,0.5,5c0.1,2.3,0.1,5.6,0.1,9.9
				C60.7,338.4,60.6,338.6,60.4,338.8z"/>
			<path fill="#CCCBCB" d="M80.5,342.7c-0.8,1.6-1.7,2.9-2.7,3.9c-1.1,1-2.2,1.8-3.3,2.5c-1.2,0.6-2.1,0.9-3,0.9
				c-0.5,0-0.8-0.1-1-0.4c-0.2-0.2-0.3-0.5-0.3-0.8c0-0.3,0.6-0.6,1.7-1c1.7-0.5,3.2-1.5,4.7-2.8c1.1-1,1.9-2.1,2.5-3.4
				c0.5-1.3,0.8-2.6,0.8-3.9c0-1.5-0.1-2.8-0.3-4.1c-0.2-1.2-0.5-2.8-0.9-4.6c-0.4-1.9-0.8-3.5-0.9-4.9c-0.4,1.1-1.1,2.5-2,4.1
				c-0.9,1.6-1.9,3.2-3.1,4.6c-1.1,1.4-2.2,2.5-3.1,3.2c-0.9,0.7-1.8,1-2.7,1c-0.7,0-1.3-0.3-1.7-0.9c-0.4-0.6-0.5-1.4-0.5-2.4
				c0-1.7,0.5-3.7,1.6-5.9c1-2.3,2.3-4.2,3.9-5.9c1.6-1.6,3.1-2.5,4.6-2.5c0.5,0,0.9,0.2,1.2,0.6c0.3,0.4,0.4,0.8,0.4,1.3
				c0,0.7-0.1,1-0.4,1c-0.1,0-0.2-0.1-0.3-0.3c-0.1-0.2-0.2-0.4-0.4-0.5c-0.1-0.1-0.3-0.2-0.5-0.2c-1.3,0-2.5,0.7-3.8,2.1
				c-1.3,1.4-2.4,3.1-3.2,5c-0.9,1.9-1.3,3.5-1.3,4.7c0,0.7,0.1,1.2,0.3,1.4c0.2,0.3,0.5,0.4,0.9,0.4c0.6,0,1.3-0.3,2.2-1
				c0.8-0.7,1.8-1.8,3-3.3c1-1.3,2-2.8,2.8-4.6c0.9-1.7,1.5-3.4,2-5c0-0.1,0.1-0.3,0.2-0.4c0.1-0.1,0.2-0.1,0.4-0.1
				c0.2,0,0.5,0.1,0.7,0.2c0.2,0.1,0.4,0.3,0.4,0.4c0,0.1,0,0.2-0.1,0.3c0,0.1-0.1,0.2-0.1,0.2c0.2,1.4,0.6,3.5,1.2,6.4
				c0.5,2,0.8,3.7,1.1,5.1c0.2,1.4,0.4,2.7,0.4,4C81.6,339.4,81.2,341.1,80.5,342.7z"/>
			<path fill="#CCCBCB" d="M116.2,315.1c-0.5,0.2-1.2,0.4-2.1,0.6c-1,0.2-2.3,0.4-3.9,0.6s-2.8,0.3-3.8,0.4
				c-0.1,1.1-0.2,4.1-0.3,9.2c-0.1,5.1-0.2,8.8-0.2,11.3c1.3,0,3.1-0.1,5.3-0.3c1.8-0.1,2.9-0.1,3.1-0.1c0.4,0,0.8,0.1,1.2,0.3
				c0.4,0.2,0.5,0.5,0.5,0.9c0,0.3-0.1,0.6-0.2,0.7s-0.4,0.2-0.7,0.2c-0.1,0-0.6,0-1.2-0.1c-0.5-0.1-0.9-0.1-1.3-0.1
				c-1.2,0-3.5,0.1-7,0.2c-0.1,0.2-0.3,0.3-0.4,0.4c-0.2,0.1-0.3,0.1-0.4,0.1c-0.1,0-0.3,0-0.4-0.1c-0.1-0.1-0.2-0.2-0.3-0.3
				l-1.7,0.2c-1.9,0.2-3.4,0.4-4.3,0.4c-0.8,0-1.4-0.2-1.9-0.5c-0.2-0.2-0.3-0.6-0.3-1.1c0-0.1,0.1-0.3,0.2-0.6
				c0.2-0.2,0.3-0.3,0.5-0.3c0,0,0.2,0.1,0.6,0.2c0.3,0.1,0.7,0.2,0.9,0.2c0.9,0,2.3,0,4.1-0.1l1.7-0.1l0.2-5.5c0-0.6,0-1.1,0.1-1.5
				c0-0.5,0-0.8,0-1.2l0.4-12.2c-2.6,0.2-3.8,0.3-3.7,0.3c-2.5,0.2-4,0.3-4.5,0.3c-0.4,0-0.8-0.1-1.2-0.4c-0.4-0.3-0.6-0.6-0.6-1
				c0-0.3,0.1-0.5,0.2-0.7c0.2-0.2,0.4-0.3,0.7-0.3c0.2,0,0.4,0,0.6,0c0.2,0,0.4,0,0.6,0.1c0.6,0.1,1.2,0.2,1.8,0.2
				c0.5,0,1.6,0,3.1-0.1c1.5-0.1,2.6-0.1,3.1-0.2c0-0.3,0.1-0.6,0.3-0.8c0.2-0.2,0.5-0.3,0.8-0.3c0.1,0,0.3,0.1,0.4,0.3
				c0.1,0.2,0.1,0.4,0.1,0.7c1.4,0,4-0.4,7.8-1c0.3,0,0.6-0.2,1-0.4c0.4-0.2,0.6-0.3,0.6-0.3c0.2,0,0.5,0.1,0.7,0.3
				c0.2,0.2,0.3,0.4,0.3,0.7C116.9,314.6,116.6,314.9,116.2,315.1z"/>
			<path fill="#CCCBCB" d="M132.9,338.8c-0.2,0.2-0.5,0.3-0.9,0.3c-0.2,0-0.5-0.1-0.6-0.2c-0.2-0.1-0.3-0.3-0.3-0.5
				c0-1,0.1-2.6,0.2-4.7c0.1-2.3,0.2-4.2,0.2-5.7c0-1.5,0-2.7-0.1-3.6c-0.1-0.9-0.3-1.4-0.6-1.4c-0.8,0-1.8,1-2.8,3.1
				c-1,2.1-2.1,4.9-3.4,8.3l-0.6,1.5c-0.1,0.2-0.3,0.4-0.5,0.6c-0.2,0.1-0.5,0.2-0.7,0.2c-0.3,0-0.5,0-0.6-0.1
				c-0.1,0-0.2-0.2-0.2-0.4l-0.3-3l-0.6-5.4c-0.2-2.1-0.4-4-0.6-5.6c-0.1-0.4-0.1-0.7-0.1-0.9c0-0.4,0.2-0.7,0.5-0.9
				c0.3-0.2,0.7-0.4,1.1-0.4c0.2,0,0.4,0.6,0.5,1.8c0.1,1.2,0.2,3.1,0.4,5.8l0.1,2c0.2,2.5,0.3,4.1,0.3,4.8c0.1-0.1,0.1-0.3,0.2-0.5
				c0.1-0.2,0.1-0.4,0.2-0.6c1.3-3.5,2.6-6.4,3.8-8.7c1.2-2.3,2.3-3.5,3.4-3.5c0.8,0,1.3,0.7,1.6,2c0.3,1.3,0.5,3,0.5,5
				c0.1,2.3,0.1,5.6,0.1,9.9C133.3,338.4,133.2,338.6,132.9,338.8z"/>
			<path fill="#CCCBCB" d="M171.6,315.7c-0.2,0.2-0.4,0.3-0.7,0.3c-0.1,0-0.3-0.1-0.8-0.2c-0.4-0.1-0.8-0.2-1.2-0.2
				c-1.2,0-2.5,0.1-4.1,0.2c-1.5,0.1-2.8,0.3-3.8,0.5c0.1,1.2,0.1,3.1,0.2,5.6c0.1,2.6,0.1,5.3,0.1,8.1c0,1.2,0,2.5-0.1,4
				c0,1.5-0.1,2.4-0.2,2.7c0,0.3-0.2,0.5-0.5,0.7c-0.3,0.2-0.6,0.3-0.9,0.3c-0.2,0-0.3-0.1-0.4-0.2s-0.2-0.3-0.2-0.5l0-1.3
				c0.1-1.9,0.2-4.3,0.2-7.1c0-2,0-4.4-0.1-7c0-2.6-0.1-4.2-0.1-4.9c-5,0.5-8.3,1.1-9.9,1.5c-0.3,0.1-0.6,0.1-1,0.1
				c-0.4,0-0.9-0.2-1.3-0.5c-0.4-0.3-0.6-0.7-0.6-1c0-0.2,0.1-0.4,0.2-0.5c0.1-0.1,0.3-0.2,0.6-0.2c1.4-0.1,2.6-0.1,3.6-0.2
				c2.2-0.2,5-0.5,8.3-0.9c0-0.8,0-1.3,0.1-1.6c0-0.3,0.1-0.5,0.2-0.5c0.5,0,0.9,0.2,1.3,0.6c0.1,0.1,0.1,0.3,0.2,0.6
				c0,0.3,0.1,0.5,0.1,0.6c0.5,0,1.4-0.1,2.7-0.4c2.7-0.4,4.5-0.6,5.5-0.6c1.2,0,2,0.1,2.4,0.4c0.3,0.2,0.4,0.6,0.4,1.1
				C171.9,315.3,171.8,315.5,171.6,315.7z"/>
			<path fill="#CCCBCB" d="M190.4,339.1c-0.2,0.2-0.5,0.3-0.8,0.3c-0.2,0-0.5-0.1-0.6-0.2c-0.2-0.1-0.3-0.3-0.3-0.5l0.1-2.6
				c0.1-3,0.2-5.5,0.2-7.5c0-2.8-0.2-4.8-0.6-5.9c-0.4-1.1-0.9-1.7-1.4-1.7c-1.2,0-2.6,1.8-4.4,5.4c-1.8,3.6-3.5,7.5-5.1,11.8
				c-0.1,0.3-0.3,0.7-0.5,1c-0.2,0.3-0.4,0.5-0.7,0.5c-0.5,0-0.8-0.2-0.8-0.5c0-1.5-0.1-4.3-0.2-8.5c-0.1-4.1-0.2-6.9-0.3-8.2
				c-0.2-4.4-0.4-7.2-0.6-8.2c-0.2-1-0.3-1.6-0.3-1.7c0-0.2,0.1-0.4,0.4-0.6c0.3-0.1,0.6-0.2,1-0.2c0.3,0,0.6,0.8,0.8,2.4
				c0.2,1.6,0.3,3.6,0.4,6l0,1c0,0.8,0.1,3,0.1,6.6c0,3.6,0,6.3,0,8c1.1-2.8,2.2-5.4,3.2-7.6c1-2.2,2.2-4.3,3.5-6.3
				c1.3-1.9,2.5-2.9,3.6-2.9c0.9,0,1.7,0.8,2.4,2.4c0.6,1.6,1,3.9,1,7c0,1.4,0,3.3,0.1,5.8l0,3.9
				C190.7,338.6,190.6,338.9,190.4,339.1z"/>
			<path fill="#CCCBCB" d="M209.6,328.9c0,0.4-0.3,1.4-1,2.9c-0.7,1.5-1.6,2.9-3,4.2c-1.3,1.3-3,1.9-4.9,1.9c-1.6,0-2.9-0.5-4-1.5
				c-1.1-1-1.6-2.5-1.6-4.6c0-1.9,0.4-3.8,1.3-5.7c0.9-1.9,2.1-3.4,3.5-4.6c1.4-1.2,2.9-1.8,4.5-1.8c0.9,0,1.7,0.2,2.3,0.6
				c0.6,0.4,0.9,1,0.9,1.8c0,0.9-0.5,1.7-1.5,2.5c-1,0.8-2.2,1.5-3.8,2.2c-1.6,0.6-3.2,1.1-4.8,1.3c-0.3,1.1-0.4,2.3-0.4,3.3
				c0,1.4,0.3,2.6,1,3.3c0.7,0.8,1.7,1.2,2.9,1.2c1.9,0,3.5-0.7,4.6-2c1.2-1.4,2.2-2.9,3-4.6c0-0.1,0.1-0.3,0.3-0.6
				c0.1-0.3,0.2-0.4,0.3-0.4C209.5,328.3,209.6,328.5,209.6,328.9z M205.5,321.6c-0.4-0.2-0.9-0.3-1.4-0.3c-0.9,0-1.8,0.3-2.7,0.9
				c-0.9,0.6-1.6,1.4-2.2,2.2c-0.6,0.9-1,1.6-1.1,2.3c1.1-0.1,2.3-0.4,3.6-1c1.3-0.5,2.3-1.1,3.2-1.7c0.9-0.6,1.3-1.1,1.3-1.5
				S205.9,321.8,205.5,321.6z"/>
			<path fill="#CCCBCB" d="M224.8,322.9c-0.3,0.3-0.6,0.4-0.8,0.4c-0.2,0-0.3-0.1-0.5-0.2s-0.3-0.4-0.5-0.6
				c-0.2-0.2-0.4-0.5-0.7-0.6c-0.3-0.2-0.6-0.3-0.9-0.3c-0.7,0-1.7,0.9-2.9,2.8c-1.2,1.9-2.4,4.3-3.6,7.2c0,0.6,0.1,1.3,0.1,2.2
				c0.1,0.9,0.1,1.5,0.1,1.9l0.1,1.5c0,0.3-0.1,0.7-0.2,0.9c-0.1,0.3-0.4,0.4-0.8,0.4c-0.4,0-0.7-0.6-0.8-1.7
				c-0.1-1.1-0.2-2.8-0.2-4.9c0-0.5,0-1.3-0.1-2.3c0-1,0-2.2-0.1-3.6c-0.1-2.1-0.1-3.7-0.1-4.6c0-0.6,0.3-0.9,1-0.9
				c0.4,0,0.7,0.2,0.8,0.5c0.1,0.4,0.1,1,0.1,2.1v5.9c0.7-1.9,1.5-3.6,2.4-4.9c0.9-1.4,1.7-2.4,2.5-3.2c0.8-0.7,1.6-1.1,2.2-1.1
				c0.5,0,1.1,0.1,1.6,0.4c0.5,0.2,0.9,0.6,1.2,0.9c0.3,0.4,0.4,0.7,0.4,1.1C225.3,322.4,225.1,322.6,224.8,322.9z"/>
			<path fill="#CCCBCB" d="M242.2,328.9c0,0.4-0.3,1.4-1,2.9c-0.7,1.5-1.6,2.9-3,4.2c-1.3,1.3-3,1.9-4.9,1.9c-1.6,0-2.9-0.5-4-1.5
				c-1.1-1-1.6-2.5-1.6-4.6c0-1.9,0.4-3.8,1.3-5.7c0.9-1.9,2.1-3.4,3.5-4.6c1.4-1.2,2.9-1.8,4.5-1.8c0.9,0,1.7,0.2,2.3,0.6
				c0.6,0.4,0.9,1,0.9,1.8c0,0.9-0.5,1.7-1.5,2.5c-1,0.8-2.2,1.5-3.8,2.2c-1.6,0.6-3.2,1.1-4.8,1.3c-0.3,1.1-0.4,2.3-0.4,3.3
				c0,1.4,0.3,2.6,1,3.3c0.7,0.8,1.7,1.2,2.9,1.2c1.9,0,3.5-0.7,4.6-2c1.2-1.4,2.2-2.9,3-4.6c0-0.1,0.1-0.3,0.3-0.6
				c0.1-0.3,0.2-0.4,0.3-0.4C242.2,328.3,242.2,328.5,242.2,328.9z M238.1,321.6c-0.4-0.2-0.9-0.3-1.4-0.3c-0.9,0-1.8,0.3-2.7,0.9
				c-0.9,0.6-1.6,1.4-2.2,2.2c-0.6,0.9-1,1.6-1.1,2.3c1.1-0.1,2.3-0.4,3.6-1c1.3-0.5,2.3-1.1,3.2-1.7c0.9-0.6,1.3-1.1,1.3-1.5
				S238.5,321.8,238.1,321.6z"/>
			<path fill="#CCCBCB" d="M248.3,316.6c-0.4,3.6-0.6,7.3-0.6,10.9c0,0.8,0,1.6,0.1,2.4c0.1,0.8,0.1,1.3,0.1,1.5
				c0,0.6-0.2,0.9-0.7,0.9c-0.2,0-0.4-0.2-0.6-0.6c-0.2-0.4-0.4-0.9-0.5-1.6c-0.1-0.7-0.2-1.3-0.2-2.1c0-2,0.1-5.9,0.3-11.9
				c0-0.7,0.2-1.4,0.4-2c0.2-0.6,0.7-0.9,1.2-0.9c0.2,0,0.3,0.1,0.4,0.3c0.1,0.2,0.1,0.6,0.1,1.2
				C248.4,314.8,248.4,315.4,248.3,316.6z M248.4,338.7c-0.5,0-0.9-0.1-1.2-0.4c-0.3-0.3-0.5-0.6-0.6-1c-0.1-0.4-0.2-0.6-0.2-0.8
				c0-0.3,0.1-0.5,0.4-0.8c0.3-0.2,0.5-0.4,0.8-0.4c0.2,0,0.3,0.1,0.4,0.2c0.1,0.1,0.2,0.4,0.3,0.6c0.2,0.4,0.4,0.7,0.6,0.9
				c0.2,0.1,0.4,0.3,0.5,0.6c0.1,0.2,0.2,0.4,0.2,0.5C249.7,338.6,249.3,338.7,248.4,338.7z"/>
		</g>
	</g>
</g>
</svg>
