<svg version="1.1" xmlns="http://www.w3.org/2000/svg" xmlns:xlink="http://www.w3.org/1999/xlink" viewBox="0 0 290 250" xml:space="preserve">
<g>
	<path fill="#FFC799" d="M175.6,120.9c-0.4,2.3-0.9,4.4-1.6,6.2c-0.8,2.4-1.6,4.2-2.2,5.3l0.3-15.4h-52.8l0.6,15.8
		c-0.5-1-1.4-3-2.3-5.6c-0.6-1.8-1.1-3.9-1.6-6.3c-2.5,1.7-3.2,4.8-3,7.6c0.3,3.7,2.2,7.3,5.2,8l0.3,4.4c0,10.3,4.9,17.9,12.9,21.9
		c-0.1,1.7-0.2,3.5-0.4,5.2c4.2,2.3,9.2,3.5,14.9,3.5c5.8,0,11-1.3,15.1-3.6c-0.3-1.5-0.4-3.2-0.6-5.1c7.9-4,12.8-11.7,12.8-21.8
		l0.3-4.4c3-0.7,4.9-4.3,5.2-8C178.9,125.7,178.2,122.6,175.6,120.9z"/>
	<g>
		<path fill="#FFDBBA" d="M161,167.8c-4.2,2.3-9.4,3.6-15.1,3.6c-5.6,0-10.7-1.2-14.9-3.5c-0.5,3.7-1.4,7.2-3.2,9.8
			c0.1,0.1,0.3,0.1,0.3,0.1c5.4,2,11.6,3.1,17.9,3.1c6.3,0.1,12.5-1.1,17.9-3.1c0.1-0.1,0.2-0.1,0.3-0.1
			C164.2,177.7,162.3,175.9,161,167.8z"/>
		<path fill="#FFDBBA" d="M171.8,108.1L157,91.4l-27.7,2.3l-10.5,17.4l1.6,20.3l0.6,11c0,8.7,4,15.3,10.5,18.9
			c3.9,2.2,8.9,3.4,14.4,3.4l0,0c5.5,0,10.4-1.2,14.4-3.4c6.5-3.7,10.4-10.2,10.4-18.9l0.6-10.9c0-0.3,0-0.5-0.1-0.8h0.1
			L171.8,108.1z"/>
	</g>
	<path fill="#C09464" d="M120.4,133.5c0,0,0-0.8,0.1-2.1c0.2-3.8,1-12.4,4-21.7c4-12.4,38.9-12.4,42.9,0c3,9.3,3.8,18,4,21.8
		c0.1,1.3,0.1,2,0.1,2s1.4-2.5,2.7-6.4c0.6-1.8,1.1-3.9,1.6-6.2c2-11,0.3-27-19.7-38.3l-2.1,4.2c0,0-1.8-2-8-8c-6.1,6-8,8-8,8
		l-2.1-4.2c-20,11.3-21.7,27.3-19.7,38.3c0.4,2.3,0.9,4.4,1.6,6.3C119,131.1,120.4,133.5,120.4,133.5z"/>
	<path fill="#FFBB4B" d="M114.8,250h63.6c13.5-4.8,25.6-12.6,35.5-22.5c-3.7-22.5-11.4-38.7-31.3-43.1c-5.1-1.1-13.9-3.7-18.2-6.5
		c-0.1,0.1-0.2,0.1-0.3,0.1c-5.5,2-11.6,3.2-17.9,3.1c-6.3,0.1-12.4-1-17.9-3.1c-0.1-0.1-0.3-0.1-0.4-0.1
		c-4.4,2.8-13.1,5.4-18.2,6.5c-19.7,4.3-27.5,20.3-31.2,42.4C88.6,237,100.9,245.1,114.8,250z"/>
</g>
<g>
	<path fill="#BF7940" d="M75.9,118.7l-15.5-0.5L43,133.8l-13,21.6l6.2,29l21.1,12.5c0,0.3,0,0.6,0,0.8c2.7,1,5.8,1.6,8.9,1.6
		c3.2,0.1,6.2-0.5,8.9-1.5c0-1.2,0-2.4,0-3.5l14.7-7.2l6.5-8.3l4.1-29L75.9,118.7z"/>
	<g>
		<path fill="#CB9263" d="M75.3,201.9c0-1,0-2.5,0-4.1c-2.7,1-5.8,1.6-8.9,1.6s-6.1-0.6-8.9-1.6c0,1.6,0,3.1,0,4.1
			c0,2-3.4,4.4-7,6.6c6.8,2.1,19.6,3.7,31.7-0.1C78.6,206.4,75.3,204,75.3,201.9z"/>
		<path fill="#CB9263" d="M87.7,211.8c-0.2-0.1-0.3-0.3-0.5-0.3C87.4,211.6,87.6,211.7,87.7,211.8z"/>
		<path fill="#CB9263" d="M45.1,211.8c-0.2,0.1-0.3,0.1-0.4,0.3C44.8,212,44.9,211.9,45.1,211.8z"/>
		<path fill="#CB9263" d="M45.6,211.5c-0.2,0.1-0.4,0.2-0.5,0.3C45.3,211.7,45.4,211.6,45.6,211.5z"/>
		<path fill="#CB9263" d="M94.8,141.9L73.3,117l-22.9,1.7l-12.2,16.8l3.9,21.5l0.6,11.8c0,10.8,5.8,19.9,14.7,23.7
			c2.7,1.1,5.7,1.8,8.9,1.8c3.2,0,6.2-0.6,8.9-1.8c8.9-3.7,14.7-12.9,14.7-23.7l0.6-13.9c0-0.1,0-0.1-0.1-0.1L94.8,141.9z"/>
	</g>
	<path fill="#38302C" d="M66.7,108.9c-0.1,0-0.1,0-0.2,0C20.3,95.9-8,212.7,57.5,197c0-1.1,0-2.2,0-3.2c-10.3-3.9-17-14.4-17-26.6
		c0.3-4,0.9-7.4,1.8-10.3c5.9-19.4,23.5-17.8,24.1-32.4c2.5,13.2,19,14,24.2,30.3c0.4,1.1,0.7,2.4,0.9,3.7c0.3,1.8,0.6,3.8,0.6,6
		c2.5-4.4,4.1-9,4.8-13.5c1.7,1.8,2.2,4.4,2,6.9c-0.4,4.3-2.8,8.6-6.7,8.4l-0.1,0.9c0,12.3-6.8,22.7-17,26.5c0,0.2,0,0.3,0,0.5
		C124.7,190.1,109.1,106.2,66.7,108.9z"/>
	<path fill="#E6EDF0" d="M126.3,250c-2.6-8.9-6.1-17.8-10.3-25.3c-3.7-6.6-15.7-7-24.9-11.1c-0.3-0.1-0.6-0.3-0.8-0.4
		c-0.8-0.4-1.6-0.8-2.4-1.3c-0.1,0-0.1-0.1-0.1-0.1c0,0,0,0-0.1,0c-0.2-0.1-0.3-0.2-0.5-0.3c-0.1,0-0.1-0.1-0.1-0.1
		c-0.1-0.1-0.3-0.2-0.4-0.3c-0.1,0-0.1-0.1-0.1-0.1c-0.2-0.1-0.4-0.2-0.6-0.3c-0.1-0.1-0.3-0.1-0.4-0.2c-0.1,0-0.1-0.1-0.1-0.1
		c-1-0.6-2.2-1.3-3.3-2c-12,3.7-24.8,2.2-31.7,0.1c-1.1,0.6-2.2,1.3-3.2,1.9c-0.1,0.1-0.1,0.1-0.2,0.1c-0.1,0.1-0.2,0.1-0.3,0.2
		c-0.2,0.1-0.4,0.2-0.6,0.3c-0.1,0-0.1,0.1-0.1,0.1c-0.1,0.1-0.3,0.2-0.4,0.3c-0.1,0-0.1,0.1-0.1,0.1c-0.2,0.1-0.4,0.2-0.5,0.3
		c-0.1,0.1-0.3,0.2-0.4,0.3c0,0,0,0-0.1,0c-0.6,0.4-1.3,0.8-2,1.1c-9.4,4.6-22.6,5.2-26.5,12c-4.1,7.1-7.4,15.8-10,24.8H126.3z"/>
</g>
<g>
	<path fill="#D5DBDE" d="M224.3,234.8c6.1-9.8,11-20.1,15.5-29.5l0,0c-3.4-2.1-6.6-4.4-6.6-6.4c0-0.9,0-2.2,0-3.7l0,0
		c0,1.2,0,2.7,0,4c-2.7,1-5.8,1.6-8.9,1.6c-3.2,0-6.1-0.6-8.9-1.6c0-0.1,0-0.1,0-0.1c-0.3,2-3.4,4.2-6.6,6.2l0,0
		C213.4,213.9,216.2,222.1,224.3,234.8z"/>
	<g>
		<path fill="#FFC799" d="M248.7,154c0.1,0.7,0.3,1.3,0.4,2c0,0.1,0,0.1,0,0.3c1.1,5.4,1,10.2,1,11.5h0.1c0,0.3,0,0.4,0,0.4
			s0.1-0.1,0.1-0.1l-0.1,0.7c0,12.3-6.8,22.7-17,26.5v0.1c0,1.2,0,2.6,0,4c-2.8,1-5.8,1.6-8.9,1.6c-3.2,0-6.2-0.5-8.9-1.6
			c0,0,0-0.1,0-0.1c0-1.3,0-2.7,0-3.9v-0.1c-10.1-3.9-16.9-14.2-16.9-26.5l-0.1-0.6c0-0.1,0-0.2,0-0.3h0.1c-0.1,0-0.1,0-0.1,0
			c0.3-2.5,0.6-4.9,1.1-7c0,0.1,0,0.2,0,0.3l0.1-0.4c0.2-0.9,0.4-1.9,0.6-2.8L248.7,154z"/>
		<path fill="#FFC799" d="M255.9,155.1c-1.3,4-3.1,8.2-5.6,12.6c3.5-0.3,5.7-4.3,6-8.4C256.5,158,256.4,156.5,255.9,155.1z"/>
	</g>
	<path fill="#FFDBBA" d="M248.5,153.6L248.5,153.6l-0.9-2.6l-0.1-0.1h0.2c-1.7-4.8-4.6-9.2-9.3-11.3c-3.9-1.6-16.1-3.5-24.2-13.9
		c0.4,8.7-6.8,12.4-11.8,25.1l-0.1,0.1l-0.9,2.7v0.2c-0.4,1.3-0.8,2.6-1.1,4.1l0.6,12.4c0,10.8,5.8,19.9,14.7,23.7
		c2.7,1.1,5.7,1.8,8.9,1.8c3.2,0,6.2-0.6,8.9-1.8c8.9-3.7,14.7-12.9,14.7-23.7l0.8-16.2C248.6,153.9,248.6,153.7,248.5,153.6z"/>
	<path fill="#3F3F3F" d="M202.9,162.9c0.4,1.3,1.5,2.4,3.1,3.1c1.5,0.7,3.5,1.1,5.5,1.1c1.7,0,3.4-0.3,4.6-0.8
		c3.7-1.6,6-7.5,6.5-10.3h3.4c0.6,2.8,2.8,8.7,6.5,10.3c1.3,0.6,2.9,0.8,4.6,0.8c2,0,4-0.4,5.5-1.1c1.6-0.8,2.7-1.8,3.1-3.1
		c0.6-1.9,2-6.3,0.1-9.4h2.6c-0.3-0.9-0.5-1.8-0.8-2.7h-5.6c-4.1-1-11.6-0.5-14.6,1.7c-0.8,0.6-1.2,1.2-1.4,1.8h-3.5
		c-0.2-0.6-0.6-1.2-1.4-1.8c-3-2.2-10.5-2.7-14.6-1.7h-4.2c-0.3,0.8-0.6,1.7-0.9,2.7h1.3C201,156.6,202.3,161,202.9,162.9z
		 M228.4,153.9c3-2.2,11.8-2.5,14.6-1c2.5,1.3,2.9,4.3,1.3,9.6c-0.3,1.1-1.4,1.8-2.2,2.2c-2.7,1.3-6.8,1.1-8.9,0.2
		c-3.2-1.5-5.3-7.1-5.6-9.4C227.4,155.1,227.5,154.5,228.4,153.9z M205.7,152.9c1.1-0.6,3.3-0.9,5.6-0.9c3.4,0,7.3,0.6,9,1.9
		c0.9,0.6,0.9,1.2,0.8,1.6c-0.4,2.3-2.4,8-5.6,9.4c-2,0.9-6.1,1-8.9-0.2c-0.8-0.4-1.9-1.1-2.2-2.2
		C202.8,157.2,203.1,154.2,205.7,152.9z"/>
	<path fill="#EB695E" d="M258.5,141.5L258.5,141.5v-0.1c-0.1-0.5-0.2-1.1-0.3-1.6l-0.2-1.2l0,0c-2.3-25.9-31.7-37.4-49.6-23.4
		c-24.6-0.3-20.3,50.3-10.5,72.4c-0.4-7.7-0.2-14.1,0.4-19.6c0-0.1,0-0.2,0-0.3c0.3-2.5,0.7-4.9,1.1-7c0.2-1,0.4-2,0.6-3
		c0.4-1.5,0.8-2.9,1.2-4.2c0.3-0.9,0.6-1.8,0.9-2.7c4.9-12.8,12.2-16.4,11.8-25.1c8.2,10.4,20.5,12.3,24.2,13.9
		c4.7,2,7.6,6.5,9.3,11.3c0.3,0.9,0.6,1.8,0.8,2.7c0.1,0.1,0.1,0.3,0.1,0.4c0.2,0.7,0.3,1.3,0.4,2c1.1,5.4,1.1,10.4,1.1,11.7
		c0,0.3,0,0.4,0,0.4c0-0.1,0.1-0.1,0.1-0.1c0.1-0.1,0.1-0.1,0.1-0.2c2.5-4.4,4.3-8.6,5.6-12.6v-0.1h0.1c0.4,1.3,0.6,2.8,0.4,4.2
		c-0.3,4.1-2.5,8-6,8.4c-0.1,0.1-0.1,0.1-0.1,0.2l-0.1,0.7c0,12.2-6.8,22.7-17,26.5c0,1.4,0,2.7,0,3.7c0,2,3.2,4.3,6.6,6.4
		c3.9,2.4,7.7,4.1,11.3,5.3C247.7,191.8,262.5,167.9,258.5,141.5z"/>
	<path fill="#3F4E6C" d="M284.5,250c-1-5.4-2.1-10-3.1-13.9c-2.4-10.1-5.8-15.3-10-18.1c-4.6-3.5-11.7-4.3-20.3-7.4
		c-3.5-1.3-7.3-2.9-11.3-5.3c-4.6,9.3-9.4,19.8-15.5,29.5c-8.2-12.6-11-20.8-15.6-29.4c-13.7,8.4-26.7,8.2-32.9,13.8
		c-3.5,3-6.5,8.1-8.7,17c-1,3.9-2,8.5-3.1,13.9H284.5z"/>
</g>
<path fill="#F2F2F2" stroke="#CCCCCC" stroke-width="2" stroke-miterlimit="10" d="M198.3,5.3H97.7c-6.6,0-12,5.4-12,12v42.9
	c0,6.6,5.4,12,12,12h42.5l5.1,19.7l4.8-19.7h48.3c6.6,0,12-5.4,12-12V17.3C210.3,10.7,204.9,5.3,198.3,5.3z"/>
<g>
	<rect x="97.6" y="16.1" fill="#CCCCCC" width="100.7" height="6.9"/>
	<rect x="97.6" y="28.9" fill="#CCCCCC" width="100.7" height="6.9"/>
	<rect x="97.6" y="41.6" fill="#CCCCCC" width="100.7" height="6.9"/>
	<rect x="97.6" y="54.4" fill="#CCCCCC" width="100.7" height="6.9"/>
</g>
<path fill="#F2F2F2" stroke="#CCCCCC" stroke-width="2" stroke-miterlimit="10" d="M89.8,40.8H21.3c-6.6,0-12,5.4-12,12v32.3
	c0,6.6,5.4,12,12,12h15.1l16.4,24.7l-4-24.7h41c6.6,0,12-5.4,12-12V52.8C101.8,46.2,96.4,40.8,89.8,40.8z"/>
<path fill="#F2F2F2" stroke="#CCCCCC" stroke-width="2" stroke-miterlimit="10" d="M275.5,42.8H207c-6.6,0-12,5.4-12,12v32.3
	c0,6.6,5.4,12,12,12h41l-4,24.7l16.4-24.7h15.1c6.6,0,12-5.4,12-12V54.8C287.5,48.2,282.1,42.8,275.5,42.8z"/>
<g>
	<rect x="19.4" y="52.4" fill="#CCCCCC" width="72.3" height="6.9"/>
	<rect x="19.4" y="65.6" fill="#CCCCCC" width="72.3" height="6.9"/>
	<rect x="19.4" y="77.9" fill="#CCCCCC" width="72.3" height="6.9"/>
</g>
<g>
	<rect x="205.1" y="54.4" fill="#CCCCCC" width="72.3" height="6.9"/>
	<rect x="205.1" y="67.6" fill="#CCCCCC" width="72.3" height="6.9"/>
	<rect x="205.1" y="79.9" fill="#CCCCCC" width="72.3" height="6.9"/>
</g>
</svg>
