<svg version="1.1" id="Layer_1" xmlns="http://www.w3.org/2000/svg" xmlns:xlink="http://www.w3.org/1999/xlink" viewBox="0 0 36 36" xml:space="preserve">
<g>
	<path fill="#A9B1B7" d="M5.1,4.8h6c1.1,0,1.9-0.1,1.9,1v-2c0-1.1-0.8-2-1.9-2h-8c-2,0-3.6,2.1-3,5c0,0,1.8,9.4,1.9,10
		c0.3,1.6,2.1,3.1,4,3.1H13c1.1,0,0-1.9,0-3v-2c0,1.1-0.8,2-1.9,2h-4c-1.1,0-1.8-1-2-2S3.5,7.5,3.5,7.5C3.2,5.6,4,4.8,5.1,4.8z
		 M30.9,4.8h-6c-1.1,0-2.9-0.1-2.9,1v-2c0-1.1,1.8-2,2.9-2h8c2,0,3.6,2.1,3,5c0,0-1.6,9.5-1.8,10.1c-0.4,1.5-2,3-4,3H23
		c-1.1,0-1-1.9-1-3v-2c0,1.1,1.8,2,2.9,2h4c1.1,0,1.8-1,2-2c0.2-1,1.6-7.4,1.6-7.4C32.8,5.6,32,4.8,30.9,4.8z M20.8,21.9
		c0-7-2.7,0-2.7,0s-3-7-3,0S11.8,32,11.8,32h12.3C24.1,32,20.8,28.9,20.8,21.9z"/>
	<path fill="#CCD6DC" d="M29.1,6.4c0,6.8-6.8,18.3-11,18.3c-4.2,0-11-11.5-11-18.3c0-5.2,1-6.4,3-6.4c1.4,0,6,0,8,0l7,0
		C28,0,29.1,0.7,29.1,6.4z"/>
	<path fill="#9E513F" d="M27,33c0,1.1,0.2,2-0.9,2h-16C9,35,9,34.1,9,33v-1c0-1.1,1.2-2,2.2-2h13.9c1,0,1.9,0.9,1.9,2L27,33z"/>
	<path fill="#9E513F" d="M29,34.6c0,0.8,0.2,1.4-1.3,1.4H8.5C7.2,36,7,35.4,7,34.6v-0.3C7,33.6,7.7,33,8.5,33h19.2
		c0.8,0,1.3,0.6,1.3,1.4L29,34.6z"/>
</g>
</svg>
