<svg version="1.1" id="Layer_1" xmlns="http://www.w3.org/2000/svg" xmlns:xlink="http://www.w3.org/1999/xlink" viewBox="0 0 36 36" xml:space="preserve">
<g>
	<path fill="#FFDB5E" d="M34.1,18.2c0,0.5-0.1,1-0.3,1.4c-1.4,4.4-7.7,4-16.7,4.2c-1.5,0-0.6,1.8-0.1,5.7c0.3,2.5-1.3,6.4-4,6.4
		c-4.5,0-0.2-3.6-4.2-12.4c-2.1-4.7-6.9-2.1-6.9-6.8V6c0-1.8,0.2-3.6,2.8-3.9C7.2,1.8,6.6,0,10.2,0h18.2c1.9,0,3.4,1.5,3.4,3.4
		c0,0.8-0.3,1.5-0.7,2c1,0.6,1.7,1.7,1.7,2.9c0,0.8-0.3,1.5-0.7,2c1,0.6,1.7,1.7,1.7,2.9c0,0.9-0.4,1.7-1,2.4
		C33.6,16.2,34.1,17.2,34.1,18.2z"/>
	<path fill="#EE9547" d="M22.1,14.9h8.7c1.2,0,2.3,0.6,2.9,1.6c0.2,0.4,0.1,1-0.3,1.2c-0.4,0.2-1,0.1-1.2-0.3
		c-0.3-0.5-0.8-0.8-1.4-0.8h-8.9c-0.9,0-1.6,0.7-1.6,1.6c0,0.9,0.7,1.6,1.6,1.6h5.9c0.5,0,0.9,0.4,0.9,0.9s-0.4,0.9-0.9,0.9h-5.9
		c-1.9,0-3.4-1.5-3.4-3.4c0-1,0.5-1.9,1.2-2.6c-0.6-0.6-1-1.5-1-2.4c0-1,0.5-2,1.2-2.6c-0.6-0.6-1-1.5-1-2.4c0-1.1,0.6-2.1,1.4-2.7
		c-0.5-0.6-0.9-1.4-0.9-2.2C19.5,1.5,21,0,22.9,0h5.5c1.2,0,2.3,0.6,2.9,1.6c0.2,0.4,0.1,1-0.3,1.2c-0.4,0.2-1,0.1-1.2-0.3
		c-0.3-0.5-0.8-0.8-1.4-0.8h-5.5c-0.9,0-1.6,0.7-1.6,1.6S22,5,22.9,5h6.5c1.2,0,2.3,0.6,2.9,1.6c0.2,0.4,0.1,1-0.3,1.2
		c-0.4,0.3-1,0.1-1.2-0.3C30.5,7,30,6.7,29.4,6.7h-7.1c-0.9,0-1.6,0.7-1.6,1.6s0.7,1.6,1.6,1.6h8.1c1.2,0,2.3,0.6,2.9,1.6
		c0.2,0.4,0.1,1-0.3,1.2c-0.4,0.2-1,0.1-1.2-0.3c-0.3-0.5-0.8-0.8-1.4-0.8h-8.4c-0.9,0-1.6,0.7-1.6,1.6
		C20.5,14.1,21.2,14.9,22.1,14.9z"/>
</g>
</svg>
