<svg version="1.1" id="Layer_1" xmlns="http://www.w3.org/2000/svg" xmlns:xlink="http://www.w3.org/1999/xlink" viewBox="0 0 36 36" xml:space="preserve">
<path fill="#3B88C3" d="M36,32c0,2.2-1.8,4-4,4H4c-2.2,0-4-1.8-4-4V4c0-2.2,1.8-4,4-4h28c2.2,0,4,1.8,4,4V32z"/>
<path fill="#FFFFFF" d="M20.4,11.2h-7.9c-1.7,0-2.3-1.1-2.3-2.1c0-1.1,0.6-2.1,2.3-2.1h11.2c1.6,0,2.2,1.4,2.2,2.2
	c0,0.6-0.3,1.3-0.7,2l-7.7,15.6c-0.9,1.7-1.2,2.4-2.6,2.4c-1.7,0-2.6-1.3-2.6-2.2c0-0.4,0.1-0.6,0.3-1.1
	C12.6,25.9,20.4,11.2,20.4,11.2z"/>
</svg>
