<svg version="1.1" id="Layer_1" xmlns="http://www.w3.org/2000/svg" xmlns:xlink="http://www.w3.org/1999/xlink" viewBox="0 0 516 200" xml:space="preserve">
<g>
	<path fill="#C0D7DE" d="M9.7,40.7c0-4,0.9-7.5,2.8-10.4c1.9-2.9,4.5-5.2,8-6.8c3.4-1.6,7.4-2.4,11.9-2.4c4.1,0,7.7,0.7,10.8,2
		c3.1,1.3,5.5,3.2,7.4,5.6c1.9-2.5,4.4-4.3,7.4-5.6c3-1.3,6.5-1.9,10.6-1.9c4.5,0,8.4,0.8,11.8,2.4c3.4,1.6,6,3.8,7.9,6.8
		c1.9,2.9,2.8,6.4,2.8,10.4v32.5h-16V45.3c0-6.3-2.7-9.4-8-9.4c-2.9,0-5.1,0.9-6.6,2.8c-1.5,1.9-2.2,4.5-2.2,8.1v26.5h-16V46.7
		c0-7.2-2.9-10.8-8.6-10.8c-5.4,0-8.1,3.1-8.1,9.4v27.9h-16V40.7z"/>
	<path fill="#C0D7DE" d="M214.2,46.1c0,6-1.1,11.1-3.3,15.4c-2.2,4.3-5.4,7.5-9.4,9.8c-4.1,2.3-8.9,3.4-14.5,3.4
		c-5.6,0-10.5-1.1-14.7-3.4c-4.2-2.3-7.4-5.4-9.7-9.5c-2.3-4-3.4-8.6-3.4-13.8c0-5.2,1.1-9.8,3.3-13.8c2.2-4,5.1-7.2,8.8-9.5
		c3.7-2.3,7.9-3.5,12.4-3.5c3,0,5.7,0.5,8.2,1.4c2.5,1,4.6,2.3,6.3,4V1.5c1.1-0.5,2.4-0.8,3.7-1.1c1.4-0.3,2.7-0.4,3.9-0.4
		c2.6,0,4.7,0.6,6.2,1.8c1.5,1.2,2.2,2.9,2.2,5.3V46.1z M178.7,39c-2.1,2.2-3.2,5.2-3.2,8.8c0,3.6,1.1,6.6,3.2,8.8
		c2.1,2.2,4.9,3.3,8.2,3.3c3.4,0,6.1-1.1,8.2-3.3c2.1-2.2,3.2-5.2,3.2-8.8c0-3.6-1.1-6.6-3.2-8.8c-2.1-2.2-4.9-3.3-8.2-3.3
		C183.6,35.7,180.9,36.8,178.7,39z"/>
	<path fill="#C0D7DE" d="M247.2,74.6c-5.3,0-10-1.1-14-3.4c-4-2.3-7.1-5.4-9.4-9.4c-2.3-4-3.4-8.7-3.4-14c0-5.2,1.2-9.9,3.5-13.9
		c2.4-4,5.6-7.2,9.7-9.4c4.1-2.3,8.8-3.4,14-3.4c4.4,0,8.3,0.8,11.7,2.3c3.4,1.5,6.2,3.6,8.1,6.3c2,2.7,3,5.7,3,9
		c0,5.5-2.2,9.5-6.5,12c-4.3,2.5-11.3,3.8-21,3.8c-1.3,0-2.3,0-3.2,0c-0.9,0-1.7-0.1-2.4-0.1c0.4,2.1,1.8,3.7,4.2,5
		c2.4,1.3,5.4,1.9,9,1.9c1.3,0,2.8-0.1,4.6-0.4c1.7-0.3,3.4-0.7,4.9-1.2c1.6-0.5,2.7-1,3.4-1.4l5.6,11.1c-1.5,1-3.5,1.9-6,2.7
		c-2.5,0.8-5.1,1.5-7.9,1.9C252.5,74.4,249.8,74.6,247.2,74.6z M247.6,33.5c-3,0-5.6,1-7.7,3c-2.1,2-3.1,4.6-3.1,7.7
		c0.5,0.1,1.1,0.1,1.6,0.1s1.1,0,1.5,0c5.4,0,9.3-0.5,11.7-1.4c2.4-1,3.5-2.4,3.5-4.2c0-1.5-0.7-2.8-2.1-3.7
		C251.7,34,249.9,33.5,247.6,33.5z"/>
	<path fill="#C0D7DE" d="M277.9,41.4c0-6.4,1.9-11.4,5.8-15c3.9-3.5,9.3-5.3,16.2-5.3c4.9,0,8.8,0.8,11.7,2.4
		c2.9,1.6,4.3,3.7,4.3,6.3c0,1.3-0.4,2.7-1.1,4.2c-0.7,1.5-1.6,2.7-2.6,3.6c-1.3-0.7-2.7-1.2-4.5-1.6c-1.7-0.4-3.3-0.6-4.9-0.6
		c-6,0-9,3.1-9,9.4v28.3h-16V41.4z"/>
	<path fill="#C0D7DE" d="M366.6,72.9c-0.7,0.2-2,0.4-3.7,0.6s-3.8,0.4-6.1,0.5c-2.3,0.2-4.6,0.3-7.1,0.4c-2.4,0.1-4.7,0.1-6.7,0.1
		c-8.5,0-14.9-1.4-19.3-4.1c-4.4-2.7-6.6-7.1-6.6-13.1c0-5.5,1.9-9.6,5.8-12.4c3.8-2.7,10.1-4.1,18.7-4.1c4,0,7,0.1,8.8,0.4
		c0-5-4.1-7.5-12.2-7.5c-2.7,0-5.3,0.3-7.7,0.8c-2.4,0.5-4.3,1.3-5.7,2.2c-0.9-0.8-1.8-1.9-2.5-3.2c-0.7-1.4-1.1-2.7-1.1-4.1
		c0-2.6,1.5-4.6,4.4-6.1c2.9-1.5,7.4-2.2,13.3-2.2c9.1,0,16,1.8,20.6,5.5c4.7,3.6,7,9.1,7,16.3V72.9z M343,63.3c1.7,0,3.2,0,4.7-0.1
		c1.5-0.1,2.5-0.2,2.9-0.3V52.2c-1.2-0.1-2.5-0.2-4-0.3c-1.5-0.1-2.7-0.1-3.9-0.1c-3.5,0-6,0.5-7.5,1.6c-1.5,1.1-2.2,2.6-2.2,4.5
		C333.1,61.5,336.4,63.3,343,63.3z"/>
	<path fill="#C0D7DE" d="M376,14.7c0-2.3,0.7-4.1,2.2-5.3c1.5-1.2,3.5-1.8,6.2-1.8c1.3,0,2.6,0.1,4,0.4c1.3,0.3,2.5,0.6,3.7,1.1
		v13.4h11.4c5.5,0,8.2,2.4,8.2,7.2c0,1.3-0.2,2.7-0.6,4.1c-0.4,1.4-0.9,2.6-1.4,3.6H392v15.6c0,2.3,0.6,4,1.9,5.2
		c1.3,1.2,3.1,1.8,5.5,1.8c1.5,0,3-0.2,4.6-0.6c1.6-0.4,2.9-1,4-1.6l6.3,10.9c-1.2,1.1-2.8,2-4.8,2.9s-4.2,1.6-6.6,2.1
		c-2.4,0.5-4.8,0.8-7.2,0.8c-5.8,0-10.6-1.6-14.2-4.9c-3.6-3.2-5.4-7.7-5.4-13.2V14.7z"/>
	<path fill="#C0D7DE" d="M477.9,41.4c0-6.4,1.9-11.4,5.8-15c3.9-3.5,9.3-5.3,16.2-5.3c4.9,0,8.8,0.8,11.7,2.4
		c2.9,1.6,4.3,3.7,4.3,6.3c0,1.3-0.4,2.7-1.1,4.2c-0.7,1.5-1.6,2.7-2.6,3.6c-1.3-0.7-2.7-1.2-4.5-1.6c-1.7-0.4-3.3-0.6-4.9-0.6
		c-6,0-9,3.1-9,9.4v28.3h-16V41.4z"/>
	<g>
		<g>
			<linearGradient id="SVGID_1_" gradientUnits="userSpaceOnUse" x1="443.5867" y1="21.1684" x2="443.5867" y2="74.6361">
				<stop  offset="0" style="stop-color:#F26F71"/>
				<stop  offset="1" style="stop-color:#CC5A5A"/>
			</linearGradient>
			<circle fill="url(#SVGID_1_)" cx="443.6" cy="47.9" r="26.7"/>
		</g>
		<path fill="#B95153" d="M448.7,47.9l8.3-8.3c0.9-0.9,0.9-2.5,0-3.4l-1.7-1.7c-0.9-0.9-2.5-0.9-3.4,0l-8.3,8.3l-8.3-8.3
			c-0.9-0.9-2.5-0.9-3.4,0l-1.7,1.7c-0.9,0.9-0.9,2.5,0,3.4l8.3,8.3l-8.3,8.3c-0.9,0.9-0.9,2.5,0,3.4l1.7,1.7c0.9,0.9,2.5,0.9,3.4,0
			l8.3-8.3l8.3,8.3c0.9,0.9,2.5,0.9,3.4,0l1.7-1.7c0.9-0.9,0.9-2.5,0-3.4L448.7,47.9z"/>
	</g>
	<g>
		<g>
			<linearGradient id="SVGID_2_" gradientUnits="userSpaceOnUse" x1="125.1265" y1="21.1684" x2="125.1265" y2="74.6361">
				<stop  offset="0" style="stop-color:#BCD86B"/>
				<stop  offset="1" style="stop-color:#96BD54"/>
			</linearGradient>
			<circle fill="url(#SVGID_2_)" cx="125.1" cy="47.9" r="26.7"/>
		</g>
		<path fill="#5D7132" d="M138.6,38.2L134,35c-0.4-0.3-0.9-0.2-1.2,0.2l-11,15.8l-6.1-4.2c-0.4-0.3-0.9-0.2-1.2,0.2l-3.2,4.6
			c-0.3,0.4-0.2,0.9,0.2,1.2l6.8,4.7l0,0l4.6,3.2c0.4,0.3,0.9,0.2,1.2-0.2l14.7-21.2C139.1,39,139,38.5,138.6,38.2z"/>
	</g>
	<g>
		<g>
			<linearGradient id="SVGID_3_" gradientUnits="userSpaceOnUse" x1="50.8332" y1="186.3994" x2="50.8332" y2="87.3631">
				<stop  offset="0" style="stop-color:#E85A41"/>
				<stop  offset="1" style="stop-color:#ED7555"/>
			</linearGradient>
			<path fill="url(#SVGID_3_)" d="M13.8,171.7c-1.4-0.3-2.5-0.9-3.1-1.7s-1-2-1-3.4c0-2.1,0-4.2,0-6.2s0-3.9,0-5.8
				c0-1.9,0-3.7,0-5.5c0-1.8,0-3.5,0-5.2c0-1.7,0-3.4,0-5c0-1.7,0-3.3,0-4.9c0-1.6,0-3.2,0-4.8c0-1.6,0-3.2,0-4.8c0-1.6,0-3.2,0-4.9
				s0-3.3,0-5c0-1.7,0-3.4,0-5.2s0-3.6,0-5.5c0-1.9,0-3.8,0-5.8c0-2,0-4.1,0-6.2c0-1.4,0.3-2.5,1-3.2c0.7-0.7,1.7-1,3.2-1
				c1.9,0,3.5,0,5,0c1.5,0,2.9,0,4.3,0c1.4,0,2.8,0,4.3,0s3.1,0,5,0c1.2,0,2.2,0.2,3.1,0.8c0.9,0.6,1.6,1.5,2.3,2.9
				c0.8,1.6,1.6,3.1,2.3,4.5c0.7,1.4,1.3,2.7,2,3.9c0.6,1.3,1.2,2.5,1.9,3.8c0.6,1.3,1.3,2.6,2,4c0.7,1.4,1.4,2.9,2.3,4.7
				c0.8,1.6,1.1,2.2,2.1,2.3c0.4,0,0.6,0,1,0.1c0.9,0.1,1.3-0.6,2.1-2.1c0.8-1.6,1.6-3.1,2.3-4.5c0.7-1.4,1.3-2.7,2-4
				c0.6-1.3,1.2-2.5,1.9-3.8c0.6-1.3,1.3-2.6,2-4c0.7-1.4,1.5-3,2.3-4.7c0.7-1.4,1.4-2.4,2.3-3.1c0.9-0.6,1.8-0.9,3.1-0.9
				c1.9,0,3.5,0,5,0c1.5,0,2.9,0,4.3,0c1.4,0,2.8,0,4.3,0c1.5,0,3.2,0,5,0c1.4,0,2.5,0.4,3.2,1.2c0.7,0.8,1,2.1,1,3.8
				c0,2.1,0,4.2,0,6.1c0,2,0,3.9,0,5.8s0,3.7,0,5.5c0,1.8,0,3.6,0,5.3c0,1.7,0,3.4,0,5.1c0,1.7,0,3.3,0,4.9c0,1.6,0,3.2,0,4.8
				c0,1.6,0,3.2,0,4.8c0,1.6,0,3.2,0,4.7c0,1.6,0,3.2,0,4.8c0,1.6,0,3.2,0,4.8c0,1.6,0,3.3,0,4.9c0,1.7,0,3.4,0,5.1
				c0,1.7,0,3.5,0,5.3c0,1.8,0,3.6,0,5.5c0,1.9,0,3.8,0,5.8c0,2,0,4,0,6.1c0,1.7-0.3,2.9-1,3.6c-0.7,0.7-1.7,0.9-3.2,0.7
				c-1.8-0.3-3.3-0.5-4.8-0.8c-1.4-0.2-2.8-0.5-4.1-0.7c-1.3-0.2-2.7-0.5-4.1-0.7c-1.4-0.3-3-0.5-4.8-0.8c-1.5-0.3-2.5-0.8-3.2-1.7
				c-0.7-0.9-0.9-2.1-0.9-3.8c0-2.1,0-4,0-5.9c0-1.9,0-3.6,0-5.3c0-1.7,0-3.4,0-5c0-1.6,0-3.2,0-4.7c0-1.6,0-3.1,0-4.7
				c0-1.6,0-3.1,0-4.7c0-1.6,0-3.3,0-5c0-1.7,0-3.5,0-5.3c0-1.9,0-3.8,0-5.9c-0.9,1.8-1.7,3.4-2.4,4.8c-0.7,1.4-1.4,2.7-2.1,4.1
				c-0.7,1.4-1.5,2.9-2.4,4.7c-0.7,1.4-1.5,2.4-2.5,2.9c-1,0.5-2.2,0.7-3.7,0.5c-1.8-0.2-2.8-0.4-4.6-0.6c-1.5-0.2-2.7-0.6-3.7-1.4
				s-1.7-1.9-2.4-3.4c-0.9-1.9-1.6-3.6-2.3-5c-0.7-1.5-1.3-2.9-2-4.4c-0.7-1.5-1.4-3.1-2.4-5c0,2.2,0,4.2,0,6.2c0,1.9,0,3.8,0,5.5
				c0,1.8,0,3.5,0,5.1c0,1.7,0,3.3,0,4.9c0,1.6,0,3.3,0,4.9c0,1.7,0,3.4,0,5.1s0,3.6,0,5.5c0,1.9,0,4,0,6.2c0,1.5-0.3,2.6-1,3.2
				c-0.7,0.6-1.7,0.7-3.1,0.4c-1.7-0.4-3.2-0.7-4.6-1c-1.4-0.3-2.7-0.6-3.9-0.9c-1.3-0.3-2.6-0.6-3.9-0.9
				C17,172.5,15.5,172.1,13.8,171.7z"/>
			<linearGradient id="SVGID_4_" gradientUnits="userSpaceOnUse" x1="138.9812" y1="196.5356" x2="138.9812" y2="87.3631">
				<stop  offset="0" style="stop-color:#E85A41"/>
				<stop  offset="1" style="stop-color:#ED7555"/>
			</linearGradient>
			<path fill="url(#SVGID_4_)" d="M124,191.6c-1.7-0.2-3.2-0.4-4.6-0.6c-1.4-0.2-2.7-0.4-3.9-0.5c-1.3-0.2-2.6-0.3-3.9-0.5
				c-1.4-0.2-2.9-0.4-4.6-0.6c-1.4-0.2-2.5-0.7-3.2-1.7c-0.7-0.9-1-2.2-1-4c0-2.1,0-4.1,0-6c0-1.9,0-3.6,0-5.3c0-1.7,0-3.3,0-4.9
				c0-1.6,0-3.2,0-4.8c0-1.6,0-3.2,0-4.9c0-1.7,0-3.4,0-5.3c0-1.9,0-3.8,0-6c0-1.1,0.1-2.3,0.2-3.5c0.1-1.2,0.3-2.5,0.5-3.9
				c0.2-1.4,0.5-2.8,0.9-4.4c0.4-1.5,0.8-3.2,1.3-4.9c0.5-1.7,1.1-3.6,1.7-5.5c0.6-1.8,1.1-3.5,1.6-5.1s1-3.1,1.5-4.6
				c0.5-1.5,0.9-2.9,1.4-4.2c0.4-1.4,0.9-2.7,1.3-4.1c0.4-1.4,0.9-2.8,1.4-4.3c0.5-1.5,1-3,1.5-4.6c0.5-1.6,1.1-3.3,1.6-5.2
				c0.5-1.6,1.2-2.8,2.2-3.6c1-0.8,2.2-1.1,3.8-1.1c2.1,0,4,0,5.8,0c1.8,0,3.5,0,5.1,0c1.6,0,3.2,0,4.7,0c1.6,0,3.1,0,4.7,0
				c1.6,0,3.3,0,5.1,0c1.8,0,3.7,0,5.8,0c1.5,0,2.7,0.4,3.7,1.2c1,0.8,1.6,2,2.1,3.8c0.6,2,1.1,3.8,1.6,5.5c0.5,1.7,1,3.3,1.4,4.9
				c0.5,1.6,0.9,3.1,1.3,4.6c0.4,1.5,0.8,3,1.3,4.4c0.4,1.5,0.9,3,1.3,4.6c0.5,1.6,0.9,3.2,1.4,4.9c0.5,1.7,1,3.6,1.6,5.6
				c0.6,2.1,1.2,4.2,1.6,6.1c0.5,1.9,0.9,3.7,1.2,5.4c0.4,1.7,0.6,3.3,0.9,4.8c0.2,1.5,0.4,2.9,0.5,4.3c0.1,1.4,0.2,2.6,0.2,3.9
				c0,2,0,3.9,0,5.7c0,1.8,0,3.5,0,5.1c0,1.6,0,3.2,0,4.7c0,1.5,0,3,0,4.5c0,1.5,0,3,0,4.5c0,1.5,0,3.1,0,4.7c0,1.6,0,3.3,0,5.1
				c0,1.8,0,3.7,0,5.7c0,1.9-0.3,3.2-1,4.1c-0.7,0.8-1.7,1.2-3.2,1.1c-1.8-0.1-3.3-0.3-4.7-0.4c-1.4-0.1-2.7-0.2-4.1-0.4
				c-1.3-0.1-2.6-0.2-4.1-0.4c-1.4-0.1-3-0.3-4.7-0.5c-1.6-0.2-2.7-0.7-3.4-1.6c-0.7-0.9-1.1-2.3-1.1-4.2c0-2.1,0-3.9,0-5.6
				s0-3.3,0-4.8c0-1.6,0-3.1,0-4.8s0-3.5,0-5.6c-2.1-0.2-3.9-0.3-5.5-0.4s-3.2-0.3-4.7-0.4c-1.5-0.1-3.1-0.3-4.7-0.4
				c-1.7-0.1-3.5-0.3-5.5-0.5c0,2,0,3.8,0,5.5c0,1.7,0,3.2,0,4.7c0,1.5,0,3.1,0,4.7c0,1.7,0,3.4,0,5.5c0,1.8-0.3,3.1-1,3.9
				C126.5,191.5,125.4,191.8,124,191.6z M129.6,140.1c1.8,0.1,3.4,0.2,4.9,0.3c1.5,0.1,2.8,0.2,4.2,0.2c1.4,0.1,2.7,0.2,4.2,0.2
				c1.5,0.1,3.1,0.2,4.9,0.3c-0.4-1.8-0.8-3.5-1.2-5c-0.4-1.5-0.7-3-1-4.3c-0.3-1.4-0.6-2.7-1-4.1c-0.3-1.4-0.7-2.8-1-4.3
				c-0.4-1.5-0.7-3.2-1.2-5c-0.6-1.8-1.3-2.6-2.2-2.6c-1.2,0-1.7-0.1-2.9-0.1c-0.9,0-1.6,0.7-2.2,2.4c-0.4,1.8-0.8,3.4-1.2,4.8
				c-0.4,1.5-0.7,2.9-1.1,4.2c-0.3,1.3-0.7,2.6-1,4c-0.3,1.3-0.7,2.7-1.1,4.2C130.5,136.8,130.1,138.4,129.6,140.1z"/>
			<linearGradient id="SVGID_5_" gradientUnits="userSpaceOnUse" x1="219.4314" y1="199.6828" x2="219.4314" y2="87.3631">
				<stop  offset="0" style="stop-color:#E85A41"/>
				<stop  offset="1" style="stop-color:#ED7555"/>
			</linearGradient>
			<path fill="url(#SVGID_5_)" d="M209.9,199c-1.5-0.1-2.6-0.5-3.2-1.5c-0.7-0.9-1-2.3-0.9-4.3c0-2,0-3.7,0-5.3c0-1.6,0-3.1,0-4.6
				c0-1.5,0-3,0-4.6s0-3.3,0-5.3c-1-1.9-2-3.6-2.8-5.2c-0.9-1.6-1.7-3.1-2.5-4.6c-0.8-1.5-1.6-2.9-2.3-4.3c-0.8-1.4-1.5-2.8-2.3-4.2
				c-0.8-1.4-1.5-2.8-2.3-4.3c-0.8-1.5-1.6-3-2.5-4.6c-0.9-1.6-1.8-3.3-2.8-5.1c-0.9-1.6-1.6-3-2.2-4.3c-0.6-1.3-1-2.6-1.3-4
				c-0.3-1.4-0.5-2.9-0.7-4.6c-0.1-1.7-0.2-3.7-0.2-6.1c0-2,0-3.8,0-5.4c0-1.7,0-3.3,0-4.8c0-1.5,0-3,0-4.5c0-1.5,0-2.9,0-4.5
				c0-1.5,0-3.1,0-4.8c0-1.7,0-3.5,0-5.4c0-1.9,0.3-3.3,1-4.2c0.7-0.9,1.7-1.3,3.2-1.3c1.8,0,3.3,0,4.8,0c1.4,0,2.8,0,4.1,0
				c1.3,0,2.7,0,4.1,0s3,0,4.8,0c1.4,0,2.5,0.4,3.2,1.3c0.7,0.9,1,2.3,1,4.2c0,2,0,3.9,0,5.6c0,1.7,0,3.3,0,4.8c0,1.5,0,3.1,0,4.6
				c0,1.5,0,3.1,0,4.8c0,1.7,0,3.5,0,5.6c0,1.1,0,2.2,0.1,3.3c0.1,1.1,0.4,2.2,0.9,3.3c0.7,1.5,1.3,2.8,1.8,3.9
				c0.6,1.2,1.1,2.3,1.6,3.4c0.6,1.2,1.1,2.4,1.8,3.9c0.8,1.9,1.5,2.7,2.8,2.7c0.5,0,0.7,0,1.2,0c1.3,0,2-0.7,2.8-2.6
				c0.7-1.5,1.3-2.7,1.9-3.9c0.6-1.2,1.1-2.2,1.6-3.4c0.6-1.2,1.2-2.4,1.9-3.9c0.5-1.1,0.8-2.2,0.9-3.3c0.1-1.1,0.1-2.2,0.1-3.3
				c0-2,0-3.9,0-5.6c0-1.7,0-3.3,0-4.9c0-1.6,0-3.1,0-4.6c0-1.6,0-3.2,0-4.9c0-1.7,0-3.6,0-5.6c0-2,0.3-3.4,1-4.3
				c0.7-0.9,1.7-1.3,3.2-1.3c1.7,0,3.2,0,4.6,0c1.4,0,2.7,0,4,0c1.3,0,2.6,0,4,0c1.4,0,2.9,0,4.6,0c1.4,0,2.5,0.4,3.2,1.4
				c0.7,0.9,1,2.3,1,4.3c0,2,0,3.8,0,5.6c0,1.7,0,3.3,0,4.9c0,1.6,0,3.1,0,4.6c0,1.5,0,3,0,4.6c0,1.6,0,3.2,0,4.9c0,1.7,0,3.6,0,5.6
				c0,2.4-0.1,4.4-0.2,6.2c-0.1,1.8-0.4,3.3-0.7,4.7c-0.3,1.4-0.8,2.7-1.4,4c-0.6,1.3-1.3,2.7-2.2,4.3c-1,1.8-1.9,3.5-2.8,5.2
				s-1.7,3.1-2.5,4.6c-0.8,1.5-1.6,2.9-2.3,4.2c-0.8,1.4-1.5,2.7-2.3,4.1c-0.8,1.4-1.5,2.8-2.3,4.2c-0.8,1.5-1.6,3-2.5,4.6
				c-0.9,1.6-1.8,3.3-2.8,5.1c0,2,0,3.7,0,5.3c0,1.6,0,3.1,0,4.6c0,1.5,0,3,0,4.6c0,1.6,0,3.3,0,5.3c0,2-0.3,3.3-1,4.3
				c-0.7,0.9-1.7,1.3-3.2,1.3c-1.9-0.1-3.5-0.1-5.1-0.2c-1.5,0-3-0.1-4.4-0.1c-1.4-0.1-2.8-0.1-4.4-0.2S211.8,199.1,209.9,199z"/>
			<linearGradient id="SVGID_6_" gradientUnits="userSpaceOnUse" x1="302.1934" y1="200" x2="302.1934" y2="87.3631">
				<stop  offset="0" style="stop-color:#E85A41"/>
				<stop  offset="1" style="stop-color:#ED7555"/>
			</linearGradient>
			<path fill="url(#SVGID_6_)" d="M270.3,200c-1.5,0-2.5-0.4-3.2-1.3c-0.7-0.9-1-2.3-1-4.3c0-2.1,0-4.2,0-6.2c0-2,0-4,0-5.9
				s0-3.8,0-5.7s0-3.7,0-5.4c0-1.8,0-3.5,0-5.2c0-1.7,0-3.4,0-5.1c0-1.7,0-3.3,0-5c0-1.6,0-3.3,0-4.9c0-1.6,0-3.2,0-4.8
				c0-1.6,0-3.2,0-4.8c0-1.6,0-3.2,0-4.8c0-1.6,0-3.2,0-4.9c0-1.6,0-3.3,0-5c0-1.7,0-3.4,0-5.1c0-1.7,0-3.5,0-5.2c0-1.8,0-3.6,0-5.4
				c0-1.9,0-3.7,0-5.7c0-1.9,0-3.9,0-5.9c0-2,0-4.1,0-6.2c0-2,0.3-3.4,1-4.3c0.7-0.9,1.7-1.3,3.2-1.3c1.8,0,3.4,0,4.8,0s2.8,0,4.1,0
				s2.7,0,4.1,0s3,0,4.8,0c1.4,0,2.5,0.4,3.2,1.3c0.7,0.9,1,2.3,1,4.3c0,1.9,0,3.7,0,5.4c0,1.7,0,3.3,0,4.8c0,1.5,0,3,0,4.5
				c0,1.5,0,2.9,0,4.4c0,1.5,0,2.9,0,4.5s0,3.1,0,4.8c0,1.7,0,3.5,0,5.4c1.9,0,3.6,0,5.2-0.1c1.6,0,3,0,4.5-0.1c1.5,0,2.9,0,4.5-0.1
				c1.6,0,3.3-0.1,5.2-0.1c0-1.9,0-3.7,0-5.4c0-1.7,0-3.3,0-4.8c0-1.5,0-3,0-4.4c0-1.4,0-2.9,0-4.3c0-1.4,0-2.9,0-4.4
				c0-1.5,0-3.1,0-4.8s0-3.5,0-5.4c0-1.9,0.3-3.3,1-4.2c0.7-0.9,1.7-1.3,3.2-1.3c1.8,0,3.4,0,4.8,0c1.5,0,2.8,0,4.1,0
				c1.3,0,2.7,0,4.1,0c1.5,0,3,0,4.8,0c1.4,0,2.5,0.4,3.2,1.3c0.7,0.9,1,2.3,1,4.2c0,2.2,0,4.3,0,6.4c0,2.1,0,4.1,0,6.1
				c0,2,0,3.9,0,5.8c0,1.9,0,3.7,0,5.5c0,1.8,0,3.6,0,5.3c0,1.8,0,3.5,0,5.2s0,3.4,0,5.1s0,3.3,0,5c0,1.7,0,3.3,0,4.9
				c0,1.6,0,3.3,0,4.9c0,1.7,0,3.3,0,5c0,1.7,0,3.4,0,5.1c0,1.7,0,3.4,0,5.2c0,1.8,0,3.5,0,5.3c0,1.8,0,3.7,0,5.5c0,1.9,0,3.8,0,5.8
				c0,2,0,4,0,6.1c0,2.1,0,4.2,0,6.4c0,1.9-0.3,3.3-1,4.2c-0.7,0.9-1.7,1.4-3.2,1.5c-1.8,0.1-3.4,0.2-4.8,0.3
				c-1.5,0.1-2.8,0.2-4.2,0.3c-1.4,0.1-2.7,0.2-4.2,0.3c-1.5,0.1-3,0.2-4.9,0.3c-1.5,0.1-2.5-0.3-3.2-1.2c-0.7-0.9-1-2.2-1-4.2
				c0-2,0-3.8,0-5.5c0-1.7,0-3.3,0-4.9c0-1.6,0-3.1,0-4.5c0-1.5,0-2.9,0-4.4c0-1.5,0-3,0-4.5c0-1.6,0-3.2,0-4.9c0-1.7,0-3.5,0-5.5
				c-1.9,0.1-3.6,0.1-5.2,0.2c-1.6,0-3,0.1-4.5,0.1c-1.5,0-2.9,0.1-4.5,0.1c-1.6,0-3.3,0.1-5.2,0.1c0,2,0,3.8,0,5.5
				c0,1.7,0,3.4,0,4.9c0,1.6,0,3.1,0,4.6c0,1.5,0,3,0,4.5c0,1.5,0,3,0,4.6c0,1.6,0,3.2,0,4.9s0,3.6,0,5.5c0,1.9-0.3,3.4-1,4.3
				c-0.7,0.9-1.7,1.4-3.2,1.4c-1.8,0.1-3.4,0.1-4.9,0.1c-1.5,0-2.8,0.1-4.2,0.1c-1.4,0-2.7,0.1-4.2,0.1
				C273.6,200,272.1,200,270.3,200z"/>
			<linearGradient id="SVGID_7_" gradientUnits="userSpaceOnUse" x1="381.5318" y1="195.6431" x2="381.5318" y2="87.3631">
				<stop  offset="0" style="stop-color:#E85A41"/>
				<stop  offset="1" style="stop-color:#ED7555"/>
			</linearGradient>
			<path fill="url(#SVGID_7_)" d="M354.9,195.6c-1.5,0.1-2.5-0.2-3.2-1c-0.7-0.8-1-2.2-1-4c0-2.2,0-4.3,0-6.3c0-2.1,0-4.1,0-6
				c0-2,0-3.9,0-5.7c0-1.9,0-3.7,0-5.5c0-1.8,0-3.6,0-5.3c0-1.7,0-3.4,0-5.1c0-1.7,0-3.4,0-5c0-1.7,0-3.3,0-4.9c0-1.6,0-3.3,0-4.9
				c0-1.6,0-3.3,0-4.9c0-1.6,0-3.3,0-4.9c0-1.7,0-3.3,0-5c0-1.7,0-3.4,0-5.1c0-1.7,0-3.5,0-5.3c0-1.8,0-3.6,0-5.5c0-1.9,0-3.8,0-5.7
				c0-2,0-4,0-6c0-2.1,0-4.2,0-6.3c0-1.9,0.3-3.2,1-4.1c0.7-0.9,1.7-1.3,3.2-1.3c2.1,0,4.2,0,6.1,0c2,0,3.8,0,5.6,0s3.5,0,5.2,0
				c1.7,0,3.4,0,5,0c1.6,0,3.2,0,4.9,0c1.6,0,3.2,0,4.9,0c1.6,0,3.3,0,5,0c1.7,0,3.4,0,5.2,0s3.7,0,5.6,0c2,0,4,0,6.1,0
				c1.4,0,2.5,0.4,3.2,1.2s1,2.1,1,3.9c0,2.2,0,4,0,5.7c0,1.7,0,3.3,0,5c0,1.7,0,3.5,0,5.7c0,1.8-0.3,3-1,3.9
				c-0.7,0.9-1.7,1.3-3.2,1.3c-2.1,0.1-4.1,0.2-5.9,0.2c-1.8,0.1-3.6,0.1-5.2,0.2c-1.7,0.1-3.3,0.1-4.9,0.2s-3.2,0.1-4.9,0.2
				c-1.7,0.1-3.4,0.1-5.2,0.2c-1.8,0.1-3.8,0.1-5.9,0.2c0,1.5,0,2.8,0,3.9c0,1.2,0,2.3,0,3.4c0,1.2,0,2.4,0,3.9
				c1.8-0.1,3.4-0.1,5-0.2c1.5-0.1,2.9-0.1,4.3-0.2c1.4-0.1,2.7-0.1,4.1-0.2c1.4-0.1,2.8-0.1,4.3-0.2c1.5-0.1,3.1-0.2,4.9-0.2
				c1.4-0.1,2.5,0.3,3.2,1.1c0.7,0.8,1,2.1,1,3.9c0,2,0,3.7,0,5.3c0,1.6,0,3.1,0,4.6c0,1.6,0,3.3,0,5.3c0,1.8-0.3,3.1-1,4
				c-0.7,0.9-1.7,1.4-3.2,1.5c-1.8,0.2-3.4,0.3-5,0.4c-1.5,0.1-2.9,0.2-4.3,0.3c-1.4,0.1-2.7,0.2-4.1,0.3c-1.4,0.1-2.8,0.2-4.3,0.3
				c-1.5,0.1-3.1,0.2-5,0.4c0,1.7,0,3.1,0,4.4c0,1.3,0,2.5,0,3.8c0,1.3,0,2.7,0,4.4c2.1-0.2,4.1-0.3,5.9-0.5
				c1.8-0.2,3.6-0.3,5.2-0.5c1.7-0.2,3.3-0.3,4.9-0.5c1.6-0.2,3.2-0.3,4.9-0.5c1.7-0.2,3.4-0.3,5.2-0.5c1.8-0.2,3.8-0.4,5.9-0.6
				c1.4-0.2,2.5,0.1,3.2,0.9c0.7,0.8,1,2,1,3.7c0,2.2,0,4,0,5.7c0,1.7,0,3.3,0,5c0,1.7,0,3.5,0,5.7c0,1.8-0.3,3.1-1,4
				c-0.7,0.9-1.7,1.5-3.2,1.7c-2.1,0.3-4.2,0.6-6.1,0.9c-2,0.3-3.8,0.5-5.6,0.8c-1.8,0.2-3.5,0.5-5.2,0.7c-1.7,0.2-3.4,0.4-5,0.6
				c-1.6,0.2-3.2,0.4-4.9,0.6c-1.6,0.2-3.2,0.4-4.9,0.6c-1.6,0.2-3.3,0.4-5,0.6c-1.7,0.2-3.4,0.4-5.3,0.6c-1.8,0.2-3.7,0.4-5.6,0.6
				C359.1,195.2,357.1,195.4,354.9,195.6z"/>
			<linearGradient id="SVGID_8_" gradientUnits="userSpaceOnUse" x1="464.5112" y1="186.3996" x2="464.5112" y2="87.3631">
				<stop  offset="0" style="stop-color:#E85A41"/>
				<stop  offset="1" style="stop-color:#ED7555"/>
			</linearGradient>
			<path fill="url(#SVGID_8_)" d="M428.1,186.3c-1.4,0.2-2.5,0-3.2-0.7c-0.7-0.7-1-1.9-1-3.6c0-2.1,0-4.2,0-6.1c0-2,0-3.9,0-5.8
				c0-1.9,0-3.7,0-5.5c0-1.8,0-3.6,0-5.3c0-1.7,0-3.4,0-5.1c0-1.7,0-3.3,0-4.9c0-1.6,0-3.2,0-4.8c0-1.6,0-3.2,0-4.8
				c0-1.6,0-3.2,0-4.7c0-1.6,0-3.2,0-4.8c0-1.6,0-3.2,0-4.8c0-1.6,0-3.3,0-4.9c0-1.7,0-3.4,0-5.1c0-1.7,0-3.5,0-5.3s0-3.6,0-5.5
				c0-1.9,0-3.8,0-5.8c0-2,0-4,0-6.1c0-1.7,0.3-3,1-3.8c0.7-0.8,1.7-1.2,3.2-1.2c1.9,0,3.5,0,5,0c1.5,0,2.9,0,4.3,0
				c1.4,0,2.8,0,4.3,0c1.5,0,3.1,0,5,0c1.2,0,2.2,0.3,3.1,0.9s1.6,1.6,2.3,3.1c0.8,1.7,1.6,3.2,2.3,4.7c0.7,1.4,1.4,2.7,2,4
				c0.6,1.3,1.3,2.5,1.9,3.8c0.6,1.3,1.3,2.6,2,4c0.7,1.4,1.5,2.9,2.3,4.5c0.8,1.5,1.2,2.1,2.1,2.1c0.4,0,0.6,0,1-0.1
				c0.9-0.1,1.3-0.7,2.1-2.3c0.8-1.7,1.5-3.2,2.2-4.7s1.3-2.7,1.9-4c0.6-1.3,1.2-2.5,1.8-3.8c0.6-1.3,1.3-2.6,1.9-3.9
				c0.7-1.4,1.4-2.9,2.2-4.5c0.7-1.4,1.4-2.3,2.3-2.9c0.9-0.6,1.8-0.8,3.1-0.8c1.9,0,3.5,0,5,0s2.9,0,4.3,0c1.4,0,2.8,0,4.3,0
				c1.5,0,3.2,0,5,0c1.4,0,2.5,0.3,3.2,1c0.7,0.7,1,1.7,1,3.2c0,2.1,0,4.2,0,6.2c0,2,0,3.9,0,5.8c0,1.9,0,3.7,0,5.5s0,3.5,0,5.2
				c0,1.7,0,3.4,0,5s0,3.3,0,4.9c0,1.6,0,3.2,0,4.8s0,3.2,0,4.8c0,1.6,0,3.2,0,4.9c0,1.7,0,3.3,0,5c0,1.7,0,3.4,0,5.2
				c0,1.8,0,3.6,0,5.5c0,1.9,0,3.8,0,5.8s0,4.1,0,6.2c0,1.4-0.3,2.6-1,3.4c-0.7,0.8-1.7,1.4-3.1,1.7c-1.8,0.4-3.3,0.8-4.7,1.1
				c-1.4,0.3-2.8,0.6-4.1,0.9c-1.3,0.3-2.6,0.6-4.1,0.9c-1.4,0.3-3,0.7-4.7,1c-1.5,0.3-2.5,0.2-3.2-0.4c-0.7-0.6-1-1.6-1-3.2
				c0-2.2,0-4.2,0-6.2s0-3.8,0-5.6c0-1.8,0-3.5,0-5.1c0-1.7,0-3.3,0-4.9c0-1.6,0-3.3,0-4.9s0-3.4,0-5.1c0-1.8,0-3.6,0-5.6
				c0-1.9,0-4,0-6.2c-0.9,1.9-1.7,3.5-2.3,5c-0.7,1.5-1.3,2.9-2,4.4c-0.7,1.5-1.4,3.1-2.3,5.1c-0.7,1.5-1.5,2.6-2.4,3.4
				c-1,0.8-2.2,1.2-3.7,1.4c-1.8,0.2-2.8,0.4-4.6,0.6c-1.5,0.2-2.7,0.1-3.7-0.5c-1-0.5-1.8-1.5-2.5-2.9c-0.9-1.8-1.7-3.3-2.4-4.7
				c-0.7-1.4-1.4-2.7-2.1-4.1c-0.7-1.4-1.5-2.9-2.4-4.8c0,2.1,0,4,0,5.9c0,1.9,0,3.6,0,5.4c0,1.7,0,3.4,0,5c0,1.6,0,3.2,0,4.7
				c0,1.6,0,3.1,0,4.7c0,1.6,0,3.1,0,4.7c0,1.6,0,3.3,0,5c0,1.7,0,3.5,0,5.4c0,1.9,0,3.8,0,5.9c0,1.7-0.3,2.9-1,3.8
				s-1.7,1.5-3.1,1.7c-1.7,0.3-3.2,0.6-4.6,0.8c-1.4,0.2-2.7,0.5-4,0.7c-1.3,0.2-2.6,0.4-4,0.7C431.4,185.8,429.9,186,428.1,186.3z"
				/>
		</g>
	</g>
</g>
</svg>
