<svg version="1.1" id="Layer_1" xmlns="http://www.w3.org/2000/svg" xmlns:xlink="http://www.w3.org/1999/xlink" viewBox="0 0 36 36" xml:space="preserve">
<g>
	<path fill="#77B255" d="M9.8,12.4c0,9.8,6.6,9.7,5.2,10.1c-7,2-8.8-7.6-9.5-7.6c-2.4,0-5.5-0.4-5.5-2.5c0-2,2.5-4.9,6.2-4.9
		C8.5,7.5,9.8,10.4,9.8,12.4z M36,21.1c0,1.1-3.5-0.7-5,0c-2,1-2-0.9-2-2s1.3-1,3-1C33.7,18.1,36,20,36,21.1z"/>
	<path fill="#77B255" d="M16.7,25.6c0,2.8-1.3,2.9-2.9,2.9S11,28.4,11,25.6c0-0.5,0.1-1,0.2-1.6c0.7-2.6,2.8-5.6,4.1-5.6
		C16.9,18.5,16.7,22.9,16.7,25.6z M25.3,25.6c0,2.8,1.3,2.9,2.9,2.9c1.6,0,2.9-0.1,2.9-2.9c0-0.5-0.1-1-0.2-1.6
		c-0.7-2.6-2.8-5.6-4.1-5.6C25.1,18.5,25.3,22.9,25.3,25.6z"/>
	<path fill="#3E721D" d="M32,19.5c0,4-5.1,4-11.5,4S9,23.5,9,19.5c0-6.6,5.1-12,11.5-12S32,12.9,32,19.5z"/>
	<circle fill="#292F33" cx="5" cy="10.5" r="1"/>
	<path fill="#5C913B" d="M23.7,17.6c0,3.6-1.4,3.9-3.2,3.9s-3.2-0.3-3.2-3.9s1.4-8.1,3.2-8.1S23.7,14,23.7,17.6z M30,16.5
		c0.9,3.5-0.8,4-2.5,4s-2.5,0.7-2.5-2.9s-1.1-6.5,0.6-6.5C27.3,11.1,29,12.5,30,16.5z M16.1,17.6c0,3.6-0.8,2.9-2.5,2.9
		s-3.4-0.5-2.5-4c1-4,3.3-5.4,5-5.4C17.8,11.1,16.1,14,16.1,17.6z"/>
</g>
</svg>
