<svg version="1.1" id="Layer_1" xmlns="http://www.w3.org/2000/svg" xmlns:xlink="http://www.w3.org/1999/xlink" viewBox="0 0 36 36" xml:space="preserve">
<g>
	<path fill="#FFAC33" d="M28.8,17.6c-1,1-1.6,3.1-1.4,4.5l0.9,6.4c0.2,1.4-0.7,2.1-2,1.5l-5.9-2.8c-1.3-0.6-3.4-0.6-4.7,0l-5.8,2.8
		c-1.3,0.6-2.2,0-2-1.5l0.8-6.4c0.2-1.4-0.5-3.4-1.5-4.5L2.8,13c-1-1-0.7-2.1,0.8-2.4l6.4-1.2C11.3,9.2,13,8,13.7,6.7L16.8,1
		c0.7-1.3,1.8-1.3,2.5,0l3.1,5.7c0.7,1.3,2.4,2.5,3.8,2.8l6.4,1.1c1.4,0.3,1.8,1.3,0.8,2.4C33.3,12.9,28.8,17.6,28.8,17.6z"/>
	<path fill="#FFD983" d="M9.8,2.2c1,1.4,2.4,4.9,1.7,5.4c-0.7,0.5-3.6-1.9-4.6-3.3c-1-1.4-0.9-2.7-0.1-3.3C7.5,0.5,8.8,0.8,9.8,2.2z
		 M29.1,4.3c-1,1.4-3.9,3.9-4.6,3.3c-0.7-0.5,0.7-4,1.7-5.4c1-1.4,2.2-1.7,3-1.1C30.1,1.6,30.2,2.9,29.1,4.3z M16.6,33.3
		c0-1.7,0.9-5.4,1.8-5.4c0.9,0,1.8,3.7,1.8,5.4c0,1.7-0.8,2.7-1.8,2.7C17.4,36,16.6,35,16.6,33.3z M32.8,24
		c-1.7-0.5-4.9-2.5-4.6-3.4c0.3-0.9,4-0.6,5.7,0c1.7,0.5,2.3,1.6,2,2.6C35.6,24.1,34.5,24.6,32.8,24z M2.1,20.6
		c1.7-0.5,5.4-0.8,5.7,0c0.3,0.9-2.9,2.9-4.6,3.4c-1.7,0.5-2.8,0.1-3.1-0.9C-0.2,22.2,0.4,21.1,2.1,20.6z"/>
</g>
</svg>
