<svg version="1.1" id="Layer_1" xmlns="http://www.w3.org/2000/svg" xmlns:xlink="http://www.w3.org/1999/xlink" viewBox="0 0 36 36" xml:space="preserve">
<g>
	<path fill="#55ACEE" d="M18,8l-7-8H0l14,17l11.5-4.8L18,8z"/>
	<path fill="#3B88C3" d="M25,0l-7,8l5.4,7.3l1.2-1.5L36,0H25z"/>
	<path fill="#FFAC33" d="M23.2,16c0.1-0.2,0.1-0.4,0.1-0.7c0-1.1-0.9-2-2-2h-6.7c-1.1,0-2,0.9-2,2c0,0.2,0.1,0.5,0.1,0.7
		c-3.3,1.8-5.5,5.3-5.5,9.3C7.3,31.2,12.1,36,18,36s10.7-4.8,10.7-10.7C28.7,21.3,26.5,17.9,23.2,16z"/>
</g>
</svg>
