<svg version="1.1" id="Layer_1" xmlns="http://www.w3.org/2000/svg" xmlns:xlink="http://www.w3.org/1999/xlink" viewBox="0 0 36 36" xml:space="preserve">
<g>
	<path fill="#EF9645" d="M21.2,3c-1.4,0-2.5,1.1-2.5,2.5v0l-2.5-5c-1.4,0-2.5,1.1-2.5,2.5v1.3l-2.5-1.5c-1.4,0-2.5,1.1-2.5,2.5v3.5
		l-1,9.2h13.5L21.2,3z"/>
	<path fill="#FFDC5D" d="M32.1,16.2c-1.4-0.6-3.4,0.2-4.8,2.2c-0.9,1.3-1.2,3.2-2.4,3.3c-0.5,0.1-1.2-0.3-1.2-1.4V4.5c0,0,0-2-2-2
		s-2,2-2,2v11.6c0,0-1-0.1-1-0.1V2c0,0,0-2-2-2s-2,2-2,2v14.1c0,0-1,0-1,0.1V4.2c0,0,0-2-2-2s-2,2-2,2v12.6c0,0.1-1,0.3-1,0.4V8.8
		c0,0,0-2-2-2s-2,2-2,2V24c0,6.6,5.4,12,12,12c4.8,0,8.1-2.6,9.9-5.3c1.6-2.3,2-4.7,2.1-5.4c0,0,0.1-1.5,1.2-2.9
		c1.5-2,2.5-3.2,3.1-3.9C33.3,18.2,33.6,16.9,32.1,16.2z"/>
	<path fill="#EF9645" d="M24.2,21.5c-0.3-0.3-0.4-0.6-0.4-0.8c-1.9,0.3-4.5,0.8-6.4,2.7c-2.6,2.5-3,5.2-3,7c0,1.5,0.8,2.1,1,0
		c0.3-2.7,2.3-8.1,8.8-8.6c0,0,0.4,0,0.6,0C24.8,21.8,24.4,21.7,24.2,21.5z"/>
</g>
</svg>
