<svg version="1.1" id="Layer_1" xmlns="http://www.w3.org/2000/svg" xmlns:xlink="http://www.w3.org/1999/xlink" viewBox="0 0 36 36" xml:space="preserve">
<g>
	<path fill="#8CCAF7" d="M35.6,25.3c0,2.4-1.9,2.1-4.3,2.1H4.7c-2.4,0-4.3,0.2-4.3-2.1l2.1-14.9c0.3-1.9,1.1-2.1,2.1-2.1h26.6
		c1.1,0,1.9,0.2,2.1,2.1C33.4,10.4,35.6,25.3,35.6,25.3z"/>
	<path fill="#292F33" d="M29.2,16.3c0,0.9-0.7,1.6-1.6,1.6H8.4c-0.9,0-1.6-0.7-1.6-1.6c0-0.9,0.7-1.6,1.6-1.6h19.2
		C28.5,14.7,29.2,15.4,29.2,16.3z"/>
	<path fill="#FFD983" d="M26.8,17V2.1c0-1.2-1-2.1-2.1-2.1H10.8C9.6,0,8.7,1,8.7,2.1V17H26.8z"/>
	<path fill="#5DADEC" d="M35.6,25.4c0-1.2-1-2.1-2.1-2.1H2.6c-1.2,0-2.1,1-2.1,2.1v8.5c0,1.2,1,2.1,2.1,2.1h30.9
		c1.2,0,2.1-1,2.1-2.1V25.4z"/>
	<path fill="#4289C1" d="M13.2,23.2v6.4c0,1.2,1,2.1,2.1,2.1h5.3c1.2,0,2.1-1,2.1-2.1v-6.4H13.2z"/>
	<path fill="#5DADEC" d="M22.8,23.2v-1.1c0-1.2-1-2.1-2.1-2.1h-5.3c-1.2,0-2.1,1-2.1,2.1v1.1H22.8z M19.6,28c0,0.9-0.7,1.6-1.6,1.6
		c-0.9,0-1.6-0.7-1.6-1.6v-1.1c0-0.9,0.7-1.6,1.6-1.6c0.9,0,1.6,0.7,1.6,1.6V28z"/>
	<path fill="#C1694F" d="M24.4,4.1c0,0.3-0.2,0.5-0.5,0.5h-8c-0.3,0-0.5-0.2-0.5-0.5s0.2-0.5,0.5-0.5h8C24.1,3.5,24.4,3.8,24.4,4.1
		 M24.4,8.3c0,0.3-0.2,0.5-0.5,0.5h-8c-0.3,0-0.5-0.2-0.5-0.5c0-0.3,0.2-0.5,0.5-0.5h8C24.1,7.8,24.4,8,24.4,8.3 M24.4,12.6
		c0,0.3-0.2,0.5-0.5,0.5h-8c-0.3,0-0.5-0.2-0.5-0.5s0.2-0.5,0.5-0.5h8C24.1,12,24.4,12.3,24.4,12.6"/>
	<g>
		<circle fill="#C1694F" cx="12.7" cy="4.1" r="1.1"/>
		<circle fill="#C1694F" cx="12.7" cy="8.3" r="1.1"/>
		<circle fill="#C1694F" cx="12.7" cy="12.6" r="1.1"/>
	</g>
</g>
</svg>
