<svg version="1.1" id="Layer_1" xmlns="http://www.w3.org/2000/svg" xmlns:xlink="http://www.w3.org/1999/xlink" viewBox="0 0 36 36" xml:space="preserve">
<g>
	<path fill="#292F33" d="M7,11.5h22v18H7V11.5z"/>
	<path fill="#CCD6DD" d="M8,29.5c0,1.1-0.6,2-1.3,2H5.3c-0.7,0-1.3-0.9-1.3-2v-18c0-1.1,0.6-2,1.3-2h1.3c0.7,0,1.3,0.9,1.3,2V29.5z
		 M32,29.5c0,1.1-0.6,2-1.3,2h-1.3c-0.7,0-1.3-0.9-1.3-2v-18c0-1.1,0.6-2,1.3-2h1.3c0.7,0,1.3,0.9,1.3,2V29.5z M16,29.5
		c0,1.1-0.6,2-1.3,2h-1.3c-0.7,0-1.3-0.9-1.3-2v-18c0-1.1,0.6-2,1.3-2h1.3c0.7,0,1.3,0.9,1.3,2V29.5z M24,29.5c0,1.1-0.6,2-1.3,2
		h-1.3c-0.7,0-1.3-0.9-1.3-2v-18c0-1.1,0.6-2,1.3-2h1.3c0.7,0,1.3,0.9,1.3,2V29.5z"/>
	<path fill="#9AAAB4" d="M33,30.5c0,1.1-0.9,2-2,2H5c-1.1,0-2-0.9-2-2s0.9-2,2-2h26C32.1,28.5,33,29.4,33,30.5z"/>
	<path fill="#CCD6DD" d="M35,32.5c0,1.1-0.9,2-2,2H3c-1.1,0-2-0.9-2-2s0.9-2,2-2h30C34.1,30.5,35,31.4,35,32.5z"/>
	<path fill="#E1E8ED" d="M36,34c0,0.8-0.7,1.5-1.5,1.5h-33C0.7,35.5,0,34.8,0,34s0.7-1.5,1.5-1.5h33C35.3,32.5,36,33.2,36,34z"/>
	<path fill="#9AAAB4" d="M33,10.5c0-1.1-1-2-2.1-2H5c-1.2,0-2,0.9-2,2c0,0.8,0.4,1.4,1,1.7v1.3h4v-1h4v1h4v-1h4v1h4v-1h4v1h4v-1.3
		C32.6,11.8,33,11.2,33,10.5z"/>
	<path fill="#CCD6DD" d="M2,8.9c0-1,1-1.4,1-1.4l14.9-7l15,7c0,0,1,0.2,1,1.4v0.6H2V8.9z"/>
	<path fill="#9AAAB4" d="M18,3C18,3,7.7,7.9,6.7,8.3c-1,0.4-0.7,1.2,0,1.2h22.6c1.1,0,0.8-0.8,0-1.2C28.4,7.8,18,3,18,3z"/>
	<path fill="#CCD6DD" d="M34,9.5c0,0.6-0.4,1-1,1H3c-0.6,0-1-0.4-1-1s0.4-1,1-1l30,0C33.6,8.5,34,8.9,34,9.5z"/>
</g>
</svg>
