<svg version="1.1" id="Layer_1" xmlns="http://www.w3.org/2000/svg" xmlns:xlink="http://www.w3.org/1999/xlink" viewBox="0 0 36 36" xml:space="preserve">
<path fill="#3B88C3" d="M36,32c0,2.2-1.8,4-4,4H4c-2.2,0-4-1.8-4-4V4c0-2.2,1.8-4,4-4h28c2.2,0,4,1.8,4,4V32z"/>
<path fill="#FFFFFF" d="M16.4,14.5c0.7-0.2,1.6-0.3,2.3-0.3c3.8,0,6.4,3,6.4,6.6c0,5.2-2.9,8.6-8.2,8.6c-2.2,0-6.8-1.4-6.8-4.2
	c0-1.1,1-2.1,2.1-2.1c1.2,0,2.7,2,4.8,2c2.2,0,3.3-2.1,3.3-4.1c0-1.9-1.1-3.1-3-3.1c-1.8,0-2.1,1-3.7,1c-1.2,0-1.8-0.9-1.8-1.5
	c0-0.4,0.1-0.7,0.1-1.1l0.8-6.5c0.3-2.4,0.9-2.9,2.4-2.9h7.5c1.4,0,2.3,0.8,2.3,2c0,2.1-1.6,2.3-2.2,2.3h-5.8
	C16.9,11.2,16.4,14.5,16.4,14.5z"/>
</svg>
